<?xml version='1.0' encoding='UTF-8' standalone='no'?>
<svg baseProfile="tiny" height="300mm" version="1.2" viewBox="0 0 4000 3000" width="400mm" xmlns="http://www.w3.org/2000/svg" xmlns:cc="http://creativecommons.org/ns#" xmlns:dc="http://purl.org/dc/elements/1.1/" xmlns:freecad="https://www.freecad.org/wiki/index.php?title=Svg_Namespace" xmlns:inkscape="http://www.inkscape.org/namespaces/inkscape" xmlns:rdf="http://www.w3.org/1999/02/22-rdf-syntax-ns#" xmlns:sodipodi="http://sodipodi.sourceforge.net/DTD/sodipodi-0.dtd" xmlns:svg="http://www.w3.org/2000/svg" xmlns:xlink="http://www.w3.org/1999/xlink">
 <title>FreeCAD SVG Export</title>
 <desc>Drawing page: Page011 exported from FreeCAD document: marble_pump_export</desc>
 <defs/>
 <g id="Page011" inkscape:groupmode="layer" inkscape:label="TechDraw">
  <g id="TD_CAM_300x3006.svg" style="stroke: none;" transform="scale(10.000000, 10.000000)">
   <sodipodi:namedview bordercolor="#666666" borderopacity="1" gridtolerance="10" guidetolerance="10" id="namedview221" inkscape:current-layer="svg2" inkscape:cx="553.15027" inkscape:cy="576.16869" inkscape:deskcolor="#505050" inkscape:document-units="mm" inkscape:pagecheckerboard="true" inkscape:pageopacity="0" inkscape:pageshadow="2" inkscape:showpageshadow="false" inkscape:window-height="1659" inkscape:window-maximized="1" inkscape:window-width="3072" inkscape:window-x="0" inkscape:window-y="0" inkscape:zoom="1.4119129" objecttolerance="10" pagecolor="#ffffff" showgrid="false">
    <inkscape:grid empspacing="10" id="grid811" originx="0" originy="0" spacingx="1" spacingy="1" type="xygrid" units="mm"/>
   </sodipodi:namedview>
   <!-- Working space 10 10 410 287 -->
   <!-- Title block 220 227 410 287 -->
   <metadata id="metadata849">
    <rdf:RDF>
     <cc:Work rdf:about="">
      <dc:format>image/svg+xml</dc:format>
      <dc:type rdf:resource="http://purl.org/dc/dcmitype/StillImage"/>
      <dc:date>25.04.2026</dc:date>
      <dc:creator>
       <cc:Agent>
        <dc:title>Stefan Krüger</dc:title>
       </cc:Agent>
      </dc:creator>
      <dc:rights>
       <cc:Agent>
        <dc:title>Stefan Krüger</dc:title>
       </cc:Agent>
      </dc:rights>
      <dc:publisher>
       <cc:Agent>
        <dc:title>Stefan Krüger</dc:title>
       </cc:Agent>
      </dc:publisher>
      <dc:language>EN / DE</dc:language>
      <cc:license rdf:resource="http://creativecommons.org/publicdomain/zero/1.0/"/>
     </cc:Work>
     <cc:License rdf:about="http://creativecommons.org/publicdomain/zero/1.0/">
      <cc:permits rdf:resource="http://creativecommons.org/ns#Reproduction"/>
      <cc:permits rdf:resource="http://creativecommons.org/ns#Distribution"/>
      <cc:permits rdf:resource="http://creativecommons.org/ns#DerivativeWorks"/>
     </cc:License>
    </rdf:RDF>
   </metadata>
   <defs id="defs847"/>
   <!-- DrawingContent -->
  </g>
  <g fill="none" fill-rule="evenodd" id="DrawingContent" stroke="black" stroke-linecap="square" stroke-linejoin="bevel" stroke-width="1">
   <g fill="#f1f3f5" fill-opacity="1" font-family="Noto Sans" font-size="42.3333" font-style="normal" font-weight="400" stroke="none" transform="matrix(1,0,0,1,1105.2,1356.83)">
    <path d="M-1100,1350 L-164.136,1350 L-164.136,650 L1100,650 L1100,-1350 L-1100,-1350 L-1100,1350" fill-rule="evenodd" vector-effect="non-scaling-stroke"/>
   </g>
   <g fill="#f1f3f5" fill-opacity="1" font-family="Noto Sans" font-size="42.3333" font-style="normal" font-weight="400" stroke="none" transform="matrix(1,0,0,1,1105.2,1356.83)">
    <path d="M85,362.5 C85,453.627 11.127,527.5 -80,527.5 C-171.127,527.5 -245,453.627 -245,362.5 C-245,271.373 -171.127,197.5 -80,197.5 C11.127,197.5 85,271.373 85,362.5 " fill-rule="evenodd" vector-effect="non-scaling-stroke"/>
   </g>
   <g fill="#f1f3f5" fill-opacity="1" font-family="Noto Sans" font-size="42.3333" font-style="normal" font-weight="400" stroke="none" transform="matrix(1,0,0,1,1105.2,1356.83)">
    <path d="M85,-530 C85,-438.873 11.127,-365 -80,-365 C-171.127,-365 -245,-438.873 -245,-530 C-245,-621.127 -171.127,-695 -80,-695 C11.127,-695 85,-621.127 85,-530 " fill-rule="evenodd" vector-effect="non-scaling-stroke"/>
   </g>
   <g fill="#f1f3f5" fill-opacity="1" font-family="Noto Sans" font-size="42.3333" font-style="normal" font-weight="400" stroke="none" transform="matrix(1,0,0,1,1105.2,1356.83)">
    <path d="M922.5,362.5 C922.5,423.251 873.251,472.5 812.5,472.5 C751.749,472.5 702.5,423.251 702.5,362.5 C702.5,301.749 751.749,252.5 812.5,252.5 C873.251,252.5 922.5,301.749 922.5,362.5 " fill-rule="evenodd" vector-effect="non-scaling-stroke"/>
   </g>
   <g fill="#f1f3f5" fill-opacity="1" font-family="Noto Sans" font-size="42.3333" font-style="normal" font-weight="400" stroke="none" transform="matrix(1,0,0,1,1105.2,1356.83)">
    <path d="M1017,-730 C1017,-720.611 1009.39,-713 1000,-713 C990.611,-713 983,-720.611 983,-730 C983,-739.389 990.611,-747 1000,-747 C1009.39,-747 1017,-739.389 1017,-730 " fill-rule="evenodd" vector-effect="non-scaling-stroke"/>
   </g>
   <g fill="#f1f3f5" fill-opacity="1" font-family="Noto Sans" font-size="42.3333" font-style="normal" font-weight="400" stroke="none" transform="matrix(1,0,0,1,1105.2,1356.83)">
    <path d="M917,550 C917,559.389 909.389,567 900,567 C890.611,567 883,559.389 883,550 C883,540.611 890.611,533 900,533 C909.389,533 917,540.611 917,550 " fill-rule="evenodd" vector-effect="non-scaling-stroke"/>
   </g>
   <g fill="#f1f3f5" fill-opacity="1" font-family="Noto Sans" font-size="42.3333" font-style="normal" font-weight="400" stroke="none" transform="matrix(1,0,0,1,1105.2,1356.83)">
    <path d="M984.5,517.5 C984.5,526.889 976.889,534.5 967.5,534.5 C958.111,534.5 950.5,526.889 950.5,517.5 C950.5,508.111 958.111,500.5 967.5,500.5 C976.889,500.5 984.5,508.111 984.5,517.5 " fill-rule="evenodd" vector-effect="non-scaling-stroke"/>
   </g>
   <g fill="#f1f3f5" fill-opacity="1" font-family="Noto Sans" font-size="42.3333" font-style="normal" font-weight="400" stroke="none" transform="matrix(1,0,0,1,1105.2,1356.83)">
    <path d="M674.5,517.5 C674.5,526.889 666.889,534.5 657.5,534.5 C648.111,534.5 640.5,526.889 640.5,517.5 C640.5,508.111 648.111,500.5 657.5,500.5 C666.889,500.5 674.5,508.111 674.5,517.5 " fill-rule="evenodd" vector-effect="non-scaling-stroke"/>
   </g>
   <g fill="#f1f3f5" fill-opacity="1" font-family="Noto Sans" font-size="42.3333" font-style="normal" font-weight="400" stroke="none" transform="matrix(1,0,0,1,1105.2,1356.83)">
    <path d="M-1003,1250 C-1003,1259.39 -1010.61,1267 -1020,1267 C-1029.39,1267 -1037,1259.39 -1037,1250 C-1037,1240.61 -1029.39,1233 -1020,1233 C-1010.61,1233 -1003,1240.61 -1003,1250 " fill-rule="evenodd" vector-effect="non-scaling-stroke"/>
   </g>
   <g fill="#f1f3f5" fill-opacity="1" font-family="Noto Sans" font-size="42.3333" font-style="normal" font-weight="400" stroke="none" transform="matrix(1,0,0,1,1105.2,1356.83)">
    <path d="M317,270 C317,279.389 309.389,287 300,287 C290.611,287 283,279.389 283,270 C283,260.611 290.611,253 300,253 C309.389,253 317,260.611 317,270 " fill-rule="evenodd" vector-effect="non-scaling-stroke"/>
   </g>
   <g fill="#f1f3f5" fill-opacity="1" font-family="Noto Sans" font-size="42.3333" font-style="normal" font-weight="400" stroke="none" transform="matrix(1,0,0,1,1105.2,1356.83)">
    <path d="M984.5,207.5 C984.5,216.889 976.889,224.5 967.5,224.5 C958.111,224.5 950.5,216.889 950.5,207.5 C950.5,198.111 958.111,190.5 967.5,190.5 C976.889,190.5 984.5,198.111 984.5,207.5 " fill-rule="evenodd" vector-effect="non-scaling-stroke"/>
   </g>
   <g fill="#f1f3f5" fill-opacity="1" font-family="Noto Sans" font-size="42.3333" font-style="normal" font-weight="400" stroke="none" transform="matrix(1,0,0,1,1105.2,1356.83)">
    <path d="M7,-1250 C7,-1240.61 -0.611159,-1233 -10,-1233 C-19.3888,-1233 -27,-1240.61 -27,-1250 C-27,-1259.39 -19.3888,-1267 -10,-1267 C-0.611159,-1267 7,-1259.39 7,-1250 " fill-rule="evenodd" vector-effect="non-scaling-stroke"/>
   </g>
   <g fill="#f1f3f5" fill-opacity="1" font-family="Noto Sans" font-size="42.3333" font-style="normal" font-weight="400" stroke="none" transform="matrix(1,0,0,1,1105.2,1356.83)">
    <path d="M-83,550 C-83,559.389 -90.6112,567 -100,567 C-109.389,567 -117,559.389 -117,550 C-117,540.611 -109.389,533 -100,533 C-90.6112,533 -83,540.611 -83,550 " fill-rule="evenodd" vector-effect="non-scaling-stroke"/>
   </g>
   <g fill="#f1f3f5" fill-opacity="1" font-family="Noto Sans" font-size="42.3333" font-style="normal" font-weight="400" stroke="none" transform="matrix(1,0,0,1,1105.2,1356.83)">
    <path d="M-1003,550 C-1003,559.389 -1010.61,567 -1020,567 C-1029.39,567 -1037,559.389 -1037,550 C-1037,540.611 -1029.39,533 -1020,533 C-1010.61,533 -1003,540.611 -1003,550 " fill-rule="evenodd" vector-effect="non-scaling-stroke"/>
   </g>
   <g fill="#f1f3f5" fill-opacity="1" font-family="Noto Sans" font-size="42.3333" font-style="normal" font-weight="400" stroke="none" transform="matrix(1,0,0,1,1105.2,1356.83)">
    <path d="M674.5,207.5 C674.5,216.889 666.889,224.5 657.5,224.5 C648.111,224.5 640.5,216.889 640.5,207.5 C640.5,198.111 648.111,190.5 657.5,190.5 C666.889,190.5 674.5,198.111 674.5,207.5 " fill-rule="evenodd" vector-effect="non-scaling-stroke"/>
   </g>
   <g fill="#f1f3f5" fill-opacity="1" font-family="Noto Sans" font-size="42.3333" font-style="normal" font-weight="400" stroke="none" transform="matrix(1,0,0,1,1105.2,1356.83)">
    <path d="M-1003,750 C-1003,759.389 -1010.61,767 -1020,767 C-1029.39,767 -1037,759.389 -1037,750 C-1037,740.611 -1029.39,733 -1020,733 C-1010.61,733 -1003,740.611 -1003,750 " fill-rule="evenodd" vector-effect="non-scaling-stroke"/>
   </g>
   <g fill="#f1f3f5" fill-opacity="1" font-family="Noto Sans" font-size="42.3333" font-style="normal" font-weight="400" stroke="none" transform="matrix(1,0,0,1,1105.2,1356.83)">
    <path d="M-183,550 C-183,559.389 -190.611,567 -200,567 C-209.389,567 -217,559.389 -217,550 C-217,540.611 -209.389,533 -200,533 C-190.611,533 -183,540.611 -183,550 " fill-rule="evenodd" vector-effect="non-scaling-stroke"/>
   </g>
   <g fill="#f1f3f5" fill-opacity="1" font-family="Noto Sans" font-size="42.3333" font-style="normal" font-weight="400" stroke="none" transform="matrix(1,0,0,1,1105.2,1356.83)">
    <path d="M717,-730 C717,-720.611 709.389,-713 700,-713 C690.611,-713 683,-720.611 683,-730 C683,-739.389 690.611,-747 700,-747 C709.389,-747 717,-739.389 717,-730 " fill-rule="evenodd" vector-effect="non-scaling-stroke"/>
   </g>
   <g fill="#f1f3f5" fill-opacity="1" font-family="Noto Sans" font-size="42.3333" font-style="normal" font-weight="400" stroke="none" transform="matrix(1,0,0,1,1105.2,1356.83)">
    <path d="M617,-440 C617,-430.611 609.389,-423 600,-423 C590.611,-423 583,-430.611 583,-440 C583,-449.389 590.611,-457 600,-457 C609.389,-457 617,-449.389 617,-440 " fill-rule="evenodd" vector-effect="non-scaling-stroke"/>
   </g>
   <g fill="#f1f3f5" fill-opacity="1" font-family="Noto Sans" font-size="42.3333" font-style="normal" font-weight="400" stroke="none" transform="matrix(1,0,0,1,1105.2,1356.83)">
    <path d="M917,-730 C917,-720.611 909.389,-713 900,-713 C890.611,-713 883,-720.611 883,-730 C883,-739.389 890.611,-747 900,-747 C909.389,-747 917,-739.389 917,-730 " fill-rule="evenodd" vector-effect="non-scaling-stroke"/>
   </g>
   <g fill="#f1f3f5" fill-opacity="1" font-family="Noto Sans" font-size="42.3333" font-style="normal" font-weight="400" stroke="none" transform="matrix(1,0,0,1,1105.2,1356.83)">
    <path d="M-447.136,1250 C-447.136,1259.39 -454.747,1267 -464.136,1267 C-473.525,1267 -481.136,1259.39 -481.136,1250 C-481.136,1240.61 -473.525,1233 -464.136,1233 C-454.747,1233 -447.136,1240.61 -447.136,1250 " fill-rule="evenodd" vector-effect="non-scaling-stroke"/>
   </g>
   <g fill="#f1f3f5" fill-opacity="1" font-family="Noto Sans" font-size="42.3333" font-style="normal" font-weight="400" stroke="none" transform="matrix(1,0,0,1,1105.2,1356.83)">
    <path d="M617,-730 C617,-720.611 609.389,-713 600,-713 C590.611,-713 583,-720.611 583,-730 C583,-739.389 590.611,-747 600,-747 C609.389,-747 617,-739.389 617,-730 " fill-rule="evenodd" vector-effect="non-scaling-stroke"/>
   </g>
   <g fill="#f1f3f5" fill-opacity="1" font-family="Noto Sans" font-size="42.3333" font-style="normal" font-weight="400" stroke="none" transform="matrix(1,0,0,1,1105.2,1356.83)">
    <path d="M-1003,-1250 C-1003,-1240.61 -1010.61,-1233 -1020,-1233 C-1029.39,-1233 -1037,-1240.61 -1037,-1250 C-1037,-1259.39 -1029.39,-1267 -1020,-1267 C-1010.61,-1267 -1003,-1259.39 -1003,-1250 " fill-rule="evenodd" vector-effect="non-scaling-stroke"/>
   </g>
   <g fill="#f1f3f5" fill-opacity="1" font-family="Noto Sans" font-size="42.3333" font-style="normal" font-weight="400" stroke="none" transform="matrix(1,0,0,1,1105.2,1356.83)">
    <path d="M1017,550 C1017,559.389 1009.39,567 1000,567 C990.611,567 983,559.389 983,550 C983,540.611 990.611,533 1000,533 C1009.39,533 1017,540.611 1017,550 " fill-rule="evenodd" vector-effect="non-scaling-stroke"/>
   </g>
   <g fill="#f1f3f5" fill-opacity="1" font-family="Noto Sans" font-size="42.3333" font-style="normal" font-weight="400" stroke="none" transform="matrix(1,0,0,1,1105.2,1356.83)">
    <path d="M1017,-1250 C1017,-1240.61 1009.39,-1233 1000,-1233 C990.611,-1233 983,-1240.61 983,-1250 C983,-1259.39 990.611,-1267 1000,-1267 C1009.39,-1267 1017,-1259.39 1017,-1250 " fill-rule="evenodd" vector-effect="non-scaling-stroke"/>
   </g>
   <g fill="none" font-family="Noto Sans" font-size="42.3333" font-style="normal" font-weight="400" stroke="#000000" stroke-linecap="round" stroke-linejoin="bevel" stroke-opacity="1" stroke-width="7" transform="matrix(1,0,0,1,1105.2,1356.83)">
    <path d="M-1100,1350 L-164.136,1350" fill-rule="evenodd" vector-effect="none"/>
   </g>
   <g fill="none" font-family="Noto Sans" font-size="42.3333" font-style="normal" font-weight="400" stroke="#000000" stroke-linecap="round" stroke-linejoin="bevel" stroke-opacity="1" stroke-width="7" transform="matrix(1,0,0,1,1105.2,1356.83)">
    <path d="M-1100,1350 L-1100,-1350" fill-rule="evenodd" vector-effect="none"/>
   </g>
   <g fill="none" font-family="Noto Sans" font-size="42.3333" font-style="normal" font-weight="400" stroke="#000000" stroke-linecap="round" stroke-linejoin="bevel" stroke-opacity="1" stroke-width="7" transform="matrix(1,0,0,1,1105.2,1356.83)">
    <path d="M-164.136,1350 L-164.136,650" fill-rule="evenodd" vector-effect="none"/>
   </g>
   <g fill="none" font-family="Noto Sans" font-size="42.3333" font-style="normal" font-weight="400" stroke="#000000" stroke-linecap="round" stroke-linejoin="bevel" stroke-opacity="1" stroke-width="7" transform="matrix(1,0,0,1,1105.2,1356.83)">
    <path d="M1100,-1350 L-1100,-1350" fill-rule="evenodd" vector-effect="none"/>
   </g>
   <g fill="none" font-family="Noto Sans" font-size="42.3333" font-style="normal" font-weight="400" stroke="#000000" stroke-linecap="round" stroke-linejoin="bevel" stroke-opacity="1" stroke-width="7" transform="matrix(1,0,0,1,1105.2,1356.83)">
    <path d="M1100,650 L1100,-1350" fill-rule="evenodd" vector-effect="none"/>
   </g>
   <g fill="none" font-family="Noto Sans" font-size="42.3333" font-style="normal" font-weight="400" stroke="#000000" stroke-linecap="round" stroke-linejoin="bevel" stroke-opacity="1" stroke-width="7" transform="matrix(1,0,0,1,1105.2,1356.83)">
    <path d="M-164.136,650 L1100,650" fill-rule="evenodd" vector-effect="none"/>
   </g>
   <g fill="none" font-family="Noto Sans" font-size="42.3333" font-style="normal" font-weight="400" stroke="#000000" stroke-linecap="round" stroke-linejoin="bevel" stroke-opacity="1" stroke-width="7" transform="matrix(1,0,0,1,1105.2,1356.83)">
    <path d="M1017,-1250 C1017,-1240.61 1009.39,-1233 1000,-1233 C990.611,-1233 983,-1240.61 983,-1250 C983,-1259.39 990.611,-1267 1000,-1267 C1009.39,-1267 1017,-1259.39 1017,-1250 " fill-rule="evenodd" vector-effect="none"/>
   </g>
   <g fill="none" font-family="Noto Sans" font-size="42.3333" font-style="normal" font-weight="400" stroke="#000000" stroke-linecap="round" stroke-linejoin="bevel" stroke-opacity="1" stroke-width="7" transform="matrix(1,0,0,1,1105.2,1356.83)">
    <path d="M1017,-730 C1017,-720.611 1009.39,-713 1000,-713 C990.611,-713 983,-720.611 983,-730 C983,-739.389 990.611,-747 1000,-747 C1009.39,-747 1017,-739.389 1017,-730 " fill-rule="evenodd" vector-effect="none"/>
   </g>
   <g fill="none" font-family="Noto Sans" font-size="42.3333" font-style="normal" font-weight="400" stroke="#000000" stroke-linecap="round" stroke-linejoin="bevel" stroke-opacity="1" stroke-width="7" transform="matrix(1,0,0,1,1105.2,1356.83)">
    <path d="M917,-730 C917,-720.611 909.389,-713 900,-713 C890.611,-713 883,-720.611 883,-730 C883,-739.389 890.611,-747 900,-747 C909.389,-747 917,-739.389 917,-730 " fill-rule="evenodd" vector-effect="none"/>
   </g>
   <g fill="none" font-family="Noto Sans" font-size="42.3333" font-style="normal" font-weight="400" stroke="#000000" stroke-linecap="round" stroke-linejoin="bevel" stroke-opacity="1" stroke-width="7" transform="matrix(1,0,0,1,1105.2,1356.83)">
    <path d="M717,-730 C717,-720.611 709.389,-713 700,-713 C690.611,-713 683,-720.611 683,-730 C683,-739.389 690.611,-747 700,-747 C709.389,-747 717,-739.389 717,-730 " fill-rule="evenodd" vector-effect="none"/>
   </g>
   <g fill="none" font-family="Noto Sans" font-size="42.3333" font-style="normal" font-weight="400" stroke="#000000" stroke-linecap="round" stroke-linejoin="bevel" stroke-opacity="1" stroke-width="7" transform="matrix(1,0,0,1,1105.2,1356.83)">
    <path d="M617,-730 C617,-720.611 609.389,-713 600,-713 C590.611,-713 583,-720.611 583,-730 C583,-739.389 590.611,-747 600,-747 C609.389,-747 617,-739.389 617,-730 " fill-rule="evenodd" vector-effect="none"/>
   </g>
   <g fill="none" font-family="Noto Sans" font-size="42.3333" font-style="normal" font-weight="400" stroke="#000000" stroke-linecap="round" stroke-linejoin="bevel" stroke-opacity="1" stroke-width="7" transform="matrix(1,0,0,1,1105.2,1356.83)">
    <path d="M7,-1250 C7,-1240.61 -0.611159,-1233 -10,-1233 C-19.3888,-1233 -27,-1240.61 -27,-1250 C-27,-1259.39 -19.3888,-1267 -10,-1267 C-0.611159,-1267 7,-1259.39 7,-1250 " fill-rule="evenodd" vector-effect="none"/>
   </g>
   <g fill="none" font-family="Noto Sans" font-size="42.3333" font-style="normal" font-weight="400" stroke="#000000" stroke-linecap="round" stroke-linejoin="bevel" stroke-opacity="1" stroke-width="7" transform="matrix(1,0,0,1,1105.2,1356.83)">
    <path d="M617,-440 C617,-430.611 609.389,-423 600,-423 C590.611,-423 583,-430.611 583,-440 C583,-449.389 590.611,-457 600,-457 C609.389,-457 617,-449.389 617,-440 " fill-rule="evenodd" vector-effect="none"/>
   </g>
   <g fill="none" font-family="Noto Sans" font-size="42.3333" font-style="normal" font-weight="400" stroke="#000000" stroke-linecap="round" stroke-linejoin="bevel" stroke-opacity="1" stroke-width="7" transform="matrix(1,0,0,1,1105.2,1356.83)">
    <path d="M-1003,-1250 C-1003,-1240.61 -1010.61,-1233 -1020,-1233 C-1029.39,-1233 -1037,-1240.61 -1037,-1250 C-1037,-1259.39 -1029.39,-1267 -1020,-1267 C-1010.61,-1267 -1003,-1259.39 -1003,-1250 " fill-rule="evenodd" vector-effect="none"/>
   </g>
   <g fill="none" font-family="Noto Sans" font-size="42.3333" font-style="normal" font-weight="400" stroke="#000000" stroke-linecap="round" stroke-linejoin="bevel" stroke-opacity="1" stroke-width="7" transform="matrix(1,0,0,1,1105.2,1356.83)">
    <path d="M85,-530 C85,-438.873 11.127,-365 -80,-365 C-171.127,-365 -245,-438.873 -245,-530 C-245,-621.127 -171.127,-695 -80,-695 C11.127,-695 85,-621.127 85,-530 " fill-rule="evenodd" vector-effect="none"/>
   </g>
   <g fill="none" font-family="Noto Sans" font-size="42.3333" font-style="normal" font-weight="400" stroke="#000000" stroke-linecap="round" stroke-linejoin="bevel" stroke-opacity="1" stroke-width="7" transform="matrix(1,0,0,1,1105.2,1356.83)">
    <path d="M984.5,207.5 C984.5,216.889 976.889,224.5 967.5,224.5 C958.111,224.5 950.5,216.889 950.5,207.5 C950.5,198.111 958.111,190.5 967.5,190.5 C976.889,190.5 984.5,198.111 984.5,207.5 " fill-rule="evenodd" vector-effect="none"/>
   </g>
   <g fill="none" font-family="Noto Sans" font-size="42.3333" font-style="normal" font-weight="400" stroke="#000000" stroke-linecap="round" stroke-linejoin="bevel" stroke-opacity="1" stroke-width="7" transform="matrix(1,0,0,1,1105.2,1356.83)">
    <path d="M674.5,207.5 C674.5,216.889 666.889,224.5 657.5,224.5 C648.111,224.5 640.5,216.889 640.5,207.5 C640.5,198.111 648.111,190.5 657.5,190.5 C666.889,190.5 674.5,198.111 674.5,207.5 " fill-rule="evenodd" vector-effect="none"/>
   </g>
   <g fill="none" font-family="Noto Sans" font-size="42.3333" font-style="normal" font-weight="400" stroke="#000000" stroke-linecap="round" stroke-linejoin="bevel" stroke-opacity="1" stroke-width="7" transform="matrix(1,0,0,1,1105.2,1356.83)">
    <path d="M922.5,362.5 C922.5,423.251 873.251,472.5 812.5,472.5 C751.749,472.5 702.5,423.251 702.5,362.5 C702.5,301.749 751.749,252.5 812.5,252.5 C873.251,252.5 922.5,301.749 922.5,362.5 " fill-rule="evenodd" vector-effect="none"/>
   </g>
   <g fill="none" font-family="Noto Sans" font-size="42.3333" font-style="normal" font-weight="400" stroke="#000000" stroke-linecap="round" stroke-linejoin="bevel" stroke-opacity="1" stroke-width="7" transform="matrix(1,0,0,1,1105.2,1356.83)">
    <path d="M1017,550 C1017,559.389 1009.39,567 1000,567 C990.611,567 983,559.389 983,550 C983,540.611 990.611,533 1000,533 C1009.39,533 1017,540.611 1017,550 " fill-rule="evenodd" vector-effect="none"/>
   </g>
   <g fill="none" font-family="Noto Sans" font-size="42.3333" font-style="normal" font-weight="400" stroke="#000000" stroke-linecap="round" stroke-linejoin="bevel" stroke-opacity="1" stroke-width="7" transform="matrix(1,0,0,1,1105.2,1356.83)">
    <path d="M984.5,517.5 C984.5,526.889 976.889,534.5 967.5,534.5 C958.111,534.5 950.5,526.889 950.5,517.5 C950.5,508.111 958.111,500.5 967.5,500.5 C976.889,500.5 984.5,508.111 984.5,517.5 " fill-rule="evenodd" vector-effect="none"/>
   </g>
   <g fill="none" font-family="Noto Sans" font-size="42.3333" font-style="normal" font-weight="400" stroke="#000000" stroke-linecap="round" stroke-linejoin="bevel" stroke-opacity="1" stroke-width="7" transform="matrix(1,0,0,1,1105.2,1356.83)">
    <path d="M917,550 C917,559.389 909.389,567 900,567 C890.611,567 883,559.389 883,550 C883,540.611 890.611,533 900,533 C909.389,533 917,540.611 917,550 " fill-rule="evenodd" vector-effect="none"/>
   </g>
   <g fill="none" font-family="Noto Sans" font-size="42.3333" font-style="normal" font-weight="400" stroke="#000000" stroke-linecap="round" stroke-linejoin="bevel" stroke-opacity="1" stroke-width="7" transform="matrix(1,0,0,1,1105.2,1356.83)">
    <path d="M674.5,517.5 C674.5,526.889 666.889,534.5 657.5,534.5 C648.111,534.5 640.5,526.889 640.5,517.5 C640.5,508.111 648.111,500.5 657.5,500.5 C666.889,500.5 674.5,508.111 674.5,517.5 " fill-rule="evenodd" vector-effect="none"/>
   </g>
   <g fill="none" font-family="Noto Sans" font-size="42.3333" font-style="normal" font-weight="400" stroke="#000000" stroke-linecap="round" stroke-linejoin="bevel" stroke-opacity="1" stroke-width="7" transform="matrix(1,0,0,1,1105.2,1356.83)">
    <path d="M317,270 C317,279.389 309.389,287 300,287 C290.611,287 283,279.389 283,270 C283,260.611 290.611,253 300,253 C309.389,253 317,260.611 317,270 " fill-rule="evenodd" vector-effect="none"/>
   </g>
   <g fill="none" font-family="Noto Sans" font-size="42.3333" font-style="normal" font-weight="400" stroke="#000000" stroke-linecap="round" stroke-linejoin="bevel" stroke-opacity="1" stroke-width="7" transform="matrix(1,0,0,1,1105.2,1356.83)">
    <path d="M85,362.5 C85,453.627 11.127,527.5 -80,527.5 C-171.127,527.5 -245,453.627 -245,362.5 C-245,271.373 -171.127,197.5 -80,197.5 C11.127,197.5 85,271.373 85,362.5 " fill-rule="evenodd" vector-effect="none"/>
   </g>
   <g fill="none" font-family="Noto Sans" font-size="42.3333" font-style="normal" font-weight="400" stroke="#000000" stroke-linecap="round" stroke-linejoin="bevel" stroke-opacity="1" stroke-width="7" transform="matrix(1,0,0,1,1105.2,1356.83)">
    <path d="M-83,550 C-83,559.389 -90.6112,567 -100,567 C-109.389,567 -117,559.389 -117,550 C-117,540.611 -109.389,533 -100,533 C-90.6112,533 -83,540.611 -83,550 " fill-rule="evenodd" vector-effect="none"/>
   </g>
   <g fill="none" font-family="Noto Sans" font-size="42.3333" font-style="normal" font-weight="400" stroke="#000000" stroke-linecap="round" stroke-linejoin="bevel" stroke-opacity="1" stroke-width="7" transform="matrix(1,0,0,1,1105.2,1356.83)">
    <path d="M-183,550 C-183,559.389 -190.611,567 -200,567 C-209.389,567 -217,559.389 -217,550 C-217,540.611 -209.389,533 -200,533 C-190.611,533 -183,540.611 -183,550 " fill-rule="evenodd" vector-effect="none"/>
   </g>
   <g fill="none" font-family="Noto Sans" font-size="42.3333" font-style="normal" font-weight="400" stroke="#000000" stroke-linecap="round" stroke-linejoin="bevel" stroke-opacity="1" stroke-width="7" transform="matrix(1,0,0,1,1105.2,1356.83)">
    <path d="M-1003,550 C-1003,559.389 -1010.61,567 -1020,567 C-1029.39,567 -1037,559.389 -1037,550 C-1037,540.611 -1029.39,533 -1020,533 C-1010.61,533 -1003,540.611 -1003,550 " fill-rule="evenodd" vector-effect="none"/>
   </g>
   <g fill="none" font-family="Noto Sans" font-size="42.3333" font-style="normal" font-weight="400" stroke="#000000" stroke-linecap="round" stroke-linejoin="bevel" stroke-opacity="1" stroke-width="7" transform="matrix(1,0,0,1,1105.2,1356.83)">
    <path d="M-447.136,1250 C-447.136,1259.39 -454.747,1267 -464.136,1267 C-473.525,1267 -481.136,1259.39 -481.136,1250 C-481.136,1240.61 -473.525,1233 -464.136,1233 C-454.747,1233 -447.136,1240.61 -447.136,1250 " fill-rule="evenodd" vector-effect="none"/>
   </g>
   <g fill="none" font-family="Noto Sans" font-size="42.3333" font-style="normal" font-weight="400" stroke="#000000" stroke-linecap="round" stroke-linejoin="bevel" stroke-opacity="1" stroke-width="7" transform="matrix(1,0,0,1,1105.2,1356.83)">
    <path d="M-1003,750 C-1003,759.389 -1010.61,767 -1020,767 C-1029.39,767 -1037,759.389 -1037,750 C-1037,740.611 -1029.39,733 -1020,733 C-1010.61,733 -1003,740.611 -1003,750 " fill-rule="evenodd" vector-effect="none"/>
   </g>
   <g fill="none" font-family="Noto Sans" font-size="42.3333" font-style="normal" font-weight="400" stroke="#000000" stroke-linecap="round" stroke-linejoin="bevel" stroke-opacity="1" stroke-width="7" transform="matrix(1,0,0,1,1105.2,1356.83)">
    <path d="M-1003,1250 C-1003,1259.39 -1010.61,1267 -1020,1267 C-1029.39,1267 -1037,1259.39 -1037,1250 C-1037,1240.61 -1029.39,1233 -1020,1233 C-1010.61,1233 -1003,1240.61 -1003,1250 " fill-rule="evenodd" vector-effect="none"/>
   </g>
  </g>
 </g>
</svg>
