<?xml version='1.0' encoding='UTF-8' standalone='no'?>
<svg baseProfile="tiny" height="300mm" version="1.2" viewBox="0 0 4200 3000" width="420mm" xmlns="http://www.w3.org/2000/svg" xmlns:cc="http://creativecommons.org/ns#" xmlns:dc="http://purl.org/dc/elements/1.1/" xmlns:freecad="https://www.freecad.org/wiki/index.php?title=Svg_Namespace" xmlns:inkscape="http://www.inkscape.org/namespaces/inkscape" xmlns:rdf="http://www.w3.org/1999/02/22-rdf-syntax-ns#" xmlns:sodipodi="http://sodipodi.sourceforge.net/DTD/sodipodi-0.dtd" xmlns:svg="http://www.w3.org/2000/svg" xmlns:xlink="http://www.w3.org/1999/xlink">
 <title>FreeCAD SVG Export</title>
 <desc>Drawing page: Page010 exported from FreeCAD document: marble_pump_export</desc>
 <defs/>
 <g id="Page010" inkscape:groupmode="layer" inkscape:label="TechDraw">
  <g id="TD_CAM_300x3005.svg" style="stroke: none;" transform="scale(10.000000, 10.000000)">
   <sodipodi:namedview bordercolor="#666666" borderopacity="1" gridtolerance="10" guidetolerance="10" id="namedview221" inkscape:current-layer="svg2" inkscape:cx="553.15027" inkscape:cy="576.16869" inkscape:deskcolor="#505050" inkscape:document-units="mm" inkscape:pagecheckerboard="true" inkscape:pageopacity="0" inkscape:pageshadow="2" inkscape:showpageshadow="false" inkscape:window-height="1659" inkscape:window-maximized="1" inkscape:window-width="3072" inkscape:window-x="0" inkscape:window-y="0" inkscape:zoom="1.4119129" objecttolerance="10" pagecolor="#ffffff" showgrid="false">
    <inkscape:grid empspacing="10" id="grid811" originx="0" originy="0" spacingx="1" spacingy="1" type="xygrid" units="mm"/>
   </sodipodi:namedview>
   <!-- Working space 10 10 410 287 -->
   <!-- Title block 220 227 410 287 -->
   <metadata id="metadata849">
    <rdf:RDF>
     <cc:Work rdf:about="">
      <dc:format>image/svg+xml</dc:format>
      <dc:type rdf:resource="http://purl.org/dc/dcmitype/StillImage"/>
      <dc:date>25.04.2026</dc:date>
      <dc:creator>
       <cc:Agent>
        <dc:title>Stefan Krüger</dc:title>
       </cc:Agent>
      </dc:creator>
      <dc:rights>
       <cc:Agent>
        <dc:title>Stefan Krüger</dc:title>
       </cc:Agent>
      </dc:rights>
      <dc:publisher>
       <cc:Agent>
        <dc:title>Stefan Krüger</dc:title>
       </cc:Agent>
      </dc:publisher>
      <dc:language>EN / DE</dc:language>
      <cc:license rdf:resource="http://creativecommons.org/publicdomain/zero/1.0/"/>
     </cc:Work>
     <cc:License rdf:about="http://creativecommons.org/publicdomain/zero/1.0/">
      <cc:permits rdf:resource="http://creativecommons.org/ns#Reproduction"/>
      <cc:permits rdf:resource="http://creativecommons.org/ns#Distribution"/>
      <cc:permits rdf:resource="http://creativecommons.org/ns#DerivativeWorks"/>
     </cc:License>
    </rdf:RDF>
   </metadata>
   <defs id="defs847"/>
   <!-- DrawingContent -->
  </g>
  <g fill="none" fill-rule="evenodd" id="DrawingContent" stroke="black" stroke-linecap="square" stroke-linejoin="bevel" stroke-width="1">
   <g fill="#f1f3f5" fill-opacity="1" font-family="Noto Sans" font-size="42.3333" font-style="normal" font-weight="400" stroke="none" transform="matrix(1,0,0,1,1205.43,1503.81)">
    <path d="M1180,-1225 L-930,-1225 L-930,-1475 L-1180,-1475 L-1180,1475 L-344.136,1475 L-344.136,1375 L-644.136,1175 L-777.641,-350.963 C-792.791,-524.131 -734.549,-695.706 -617.112,-823.866 C-499.675,-952.026 -333.829,-1025 -160,-1025 L1020,-1025 L1020,-1145 L1060,-1145 L1060,-1085 L1180,-1085 L1180,-1225" fill-rule="evenodd" vector-effect="non-scaling-stroke"/>
   </g>
   <g fill="#f1f3f5" fill-opacity="1" font-family="Noto Sans" font-size="42.3333" font-style="normal" font-weight="400" stroke="none" transform="matrix(1,0,0,1,1205.43,1503.81)">
    <path d="M-1140.41,-1125 L-1120.21,-1090 L-1079.79,-1090 L-1059.59,-1125 L-1079.79,-1160 L-1120.21,-1160 L-1140.41,-1125" fill-rule="evenodd" vector-effect="non-scaling-stroke"/>
   </g>
   <g fill="#f1f3f5" fill-opacity="1" font-family="Noto Sans" font-size="42.3333" font-style="normal" font-weight="400" stroke="none" transform="matrix(1,0,0,1,1205.43,1503.81)">
    <path d="M-130.415,-1125 L-110.207,-1090 L-69.7927,-1090 L-49.5855,-1125 L-69.7927,-1160 L-110.207,-1160 L-130.415,-1125" fill-rule="evenodd" vector-effect="non-scaling-stroke"/>
   </g>
   <g fill="#f1f3f5" fill-opacity="1" font-family="Noto Sans" font-size="42.3333" font-style="normal" font-weight="400" stroke="none" transform="matrix(1,0,0,1,1205.43,1503.81)">
    <path d="M-1140.41,675 L-1120.21,710 L-1079.79,710 L-1059.59,675 L-1079.79,640 L-1120.21,640 L-1140.41,675" fill-rule="evenodd" vector-effect="non-scaling-stroke"/>
   </g>
   <g fill="#f1f3f5" fill-opacity="1" font-family="Noto Sans" font-size="42.3333" font-style="normal" font-weight="400" stroke="none" transform="matrix(1,0,0,1,1205.43,1503.81)">
    <path d="M879.585,-1125 L899.793,-1090 L940.207,-1090 L960.415,-1125 L940.207,-1160 L899.793,-1160 L879.585,-1125" fill-rule="evenodd" vector-effect="non-scaling-stroke"/>
   </g>
   <g fill="#f1f3f5" fill-opacity="1" font-family="Noto Sans" font-size="42.3333" font-style="normal" font-weight="400" stroke="none" transform="matrix(1,0,0,1,1205.43,1503.81)">
    <path d="M-527.136,1375 C-527.136,1384.39 -534.747,1392 -544.136,1392 C-553.525,1392 -561.136,1384.39 -561.136,1375 C-561.136,1365.61 -553.525,1358 -544.136,1358 C-534.747,1358 -527.136,1365.61 -527.136,1375 " fill-rule="evenodd" vector-effect="non-scaling-stroke"/>
   </g>
   <g fill="#f1f3f5" fill-opacity="1" font-family="Noto Sans" font-size="42.3333" font-style="normal" font-weight="400" stroke="none" transform="matrix(1,0,0,1,1205.43,1503.81)">
    <path d="M-993,-1305 C-993,-1295.61 -1000.61,-1288 -1010,-1288 C-1019.39,-1288 -1027,-1295.61 -1027,-1305 C-1027,-1314.39 -1019.39,-1322 -1010,-1322 C-1000.61,-1322 -993,-1314.39 -993,-1305 " fill-rule="evenodd" vector-effect="non-scaling-stroke"/>
   </g>
   <g fill="#f1f3f5" fill-opacity="1" font-family="Noto Sans" font-size="42.3333" font-style="normal" font-weight="400" stroke="none" transform="matrix(1,0,0,1,1205.43,1503.81)">
    <path d="M-1083,-1395 C-1083,-1385.61 -1090.61,-1378 -1100,-1378 C-1109.39,-1378 -1117,-1385.61 -1117,-1395 C-1117,-1404.39 -1109.39,-1412 -1100,-1412 C-1090.61,-1412 -1083,-1404.39 -1083,-1395 " fill-rule="evenodd" vector-effect="non-scaling-stroke"/>
   </g>
   <g fill="#f1f3f5" fill-opacity="1" font-family="Noto Sans" font-size="42.3333" font-style="normal" font-weight="400" stroke="none" transform="matrix(1,0,0,1,1205.43,1503.81)">
    <path d="M-1083,1375 C-1083,1384.39 -1090.61,1392 -1100,1392 C-1109.39,1392 -1117,1384.39 -1117,1375 C-1117,1365.61 -1109.39,1358 -1100,1358 C-1090.61,1358 -1083,1365.61 -1083,1375 " fill-rule="evenodd" vector-effect="non-scaling-stroke"/>
   </g>
   <g fill="#f1f3f5" fill-opacity="1" font-family="Noto Sans" font-size="42.3333" font-style="normal" font-weight="400" stroke="none" transform="matrix(1,0,0,1,1205.43,1503.81)">
    <path d="M-1083,875 C-1083,884.389 -1090.61,892 -1100,892 C-1109.39,892 -1117,884.389 -1117,875 C-1117,865.611 -1109.39,858 -1100,858 C-1090.61,858 -1083,865.611 -1083,875 " fill-rule="evenodd" vector-effect="non-scaling-stroke"/>
   </g>
   <g fill="none" font-family="Noto Sans" font-size="42.3333" font-style="normal" font-weight="400" stroke="#000000" stroke-linecap="round" stroke-linejoin="bevel" stroke-opacity="1" stroke-width="7" transform="matrix(1,0,0,1,1205.43,1503.81)">
    <path d="M-930,-1225 L-930,-1475" fill-rule="evenodd" vector-effect="none"/>
   </g>
   <g fill="none" font-family="Noto Sans" font-size="42.3333" font-style="normal" font-weight="400" stroke="#000000" stroke-linecap="round" stroke-linejoin="bevel" stroke-opacity="1" stroke-width="7" transform="matrix(1,0,0,1,1205.43,1503.81)">
    <path d="M-930,-1475 L-1180,-1475" fill-rule="evenodd" vector-effect="none"/>
   </g>
   <g fill="none" font-family="Noto Sans" font-size="42.3333" font-style="normal" font-weight="400" stroke="#000000" stroke-linecap="round" stroke-linejoin="bevel" stroke-opacity="1" stroke-width="7" transform="matrix(1,0,0,1,1205.43,1503.81)">
    <path d="M-1180,-1475 L-1180,1475" fill-rule="evenodd" vector-effect="none"/>
   </g>
   <g fill="none" font-family="Noto Sans" font-size="42.3333" font-style="normal" font-weight="400" stroke="#000000" stroke-linecap="round" stroke-linejoin="bevel" stroke-opacity="1" stroke-width="7" transform="matrix(1,0,0,1,1205.43,1503.81)">
    <path d="M-1180,1475 L-344.136,1475" fill-rule="evenodd" vector-effect="none"/>
   </g>
   <g fill="none" font-family="Noto Sans" font-size="42.3333" font-style="normal" font-weight="400" stroke="#000000" stroke-linecap="round" stroke-linejoin="bevel" stroke-opacity="1" stroke-width="7" transform="matrix(1,0,0,1,1205.43,1503.81)">
    <path d="M-344.136,1475 L-344.136,1375" fill-rule="evenodd" vector-effect="none"/>
   </g>
   <g fill="none" font-family="Noto Sans" font-size="42.3333" font-style="normal" font-weight="400" stroke="#000000" stroke-linecap="round" stroke-linejoin="bevel" stroke-opacity="1" stroke-width="7" transform="matrix(1,0,0,1,1205.43,1503.81)">
    <path d="M-344.136,1375 L-644.136,1175" fill-rule="evenodd" vector-effect="none"/>
   </g>
   <g fill="none" font-family="Noto Sans" font-size="42.3333" font-style="normal" font-weight="400" stroke="#000000" stroke-linecap="round" stroke-linejoin="bevel" stroke-opacity="1" stroke-width="7" transform="matrix(1,0,0,1,1205.43,1503.81)">
    <path d="M-777.641,-350.963 L-644.136,1175" fill-rule="evenodd" vector-effect="none"/>
   </g>
   <g fill="none" font-family="Noto Sans" font-size="42.3333" font-style="normal" font-weight="400" stroke="#000000" stroke-linecap="round" stroke-linejoin="bevel" stroke-opacity="1" stroke-width="7" transform="matrix(1,0,0,1,1205.43,1503.81)">
    <path d="M-160,-1025 C-333.829,-1025 -499.675,-952.026 -617.112,-823.866 C-734.549,-695.706 -792.791,-524.131 -777.641,-350.963 " fill-rule="evenodd" vector-effect="none"/>
   </g>
   <g fill="none" font-family="Noto Sans" font-size="42.3333" font-style="normal" font-weight="400" stroke="#000000" stroke-linecap="round" stroke-linejoin="bevel" stroke-opacity="1" stroke-width="7" transform="matrix(1,0,0,1,1205.43,1503.81)">
    <path d="M-160,-1025 L1020,-1025" fill-rule="evenodd" vector-effect="none"/>
   </g>
   <g fill="none" font-family="Noto Sans" font-size="42.3333" font-style="normal" font-weight="400" stroke="#000000" stroke-linecap="round" stroke-linejoin="bevel" stroke-opacity="1" stroke-width="7" transform="matrix(1,0,0,1,1205.43,1503.81)">
    <path d="M1020,-1145 L1020,-1025" fill-rule="evenodd" vector-effect="none"/>
   </g>
   <g fill="none" font-family="Noto Sans" font-size="42.3333" font-style="normal" font-weight="400" stroke="#000000" stroke-linecap="round" stroke-linejoin="bevel" stroke-opacity="1" stroke-width="7" transform="matrix(1,0,0,1,1205.43,1503.81)">
    <path d="M1060,-1145 L1020,-1145" fill-rule="evenodd" vector-effect="none"/>
   </g>
   <g fill="none" font-family="Noto Sans" font-size="42.3333" font-style="normal" font-weight="400" stroke="#000000" stroke-linecap="round" stroke-linejoin="bevel" stroke-opacity="1" stroke-width="7" transform="matrix(1,0,0,1,1205.43,1503.81)">
    <path d="M1060,-1085 L1060,-1145" fill-rule="evenodd" vector-effect="none"/>
   </g>
   <g fill="none" font-family="Noto Sans" font-size="42.3333" font-style="normal" font-weight="400" stroke="#000000" stroke-linecap="round" stroke-linejoin="bevel" stroke-opacity="1" stroke-width="7" transform="matrix(1,0,0,1,1205.43,1503.81)">
    <path d="M1180,-1085 L1060,-1085" fill-rule="evenodd" vector-effect="none"/>
   </g>
   <g fill="none" font-family="Noto Sans" font-size="42.3333" font-style="normal" font-weight="400" stroke="#000000" stroke-linecap="round" stroke-linejoin="bevel" stroke-opacity="1" stroke-width="7" transform="matrix(1,0,0,1,1205.43,1503.81)">
    <path d="M1180,-1225 L1180,-1085" fill-rule="evenodd" vector-effect="none"/>
   </g>
   <g fill="none" font-family="Noto Sans" font-size="42.3333" font-style="normal" font-weight="400" stroke="#000000" stroke-linecap="round" stroke-linejoin="bevel" stroke-opacity="1" stroke-width="7" transform="matrix(1,0,0,1,1205.43,1503.81)">
    <path d="M-1140.41,675 L-1120.21,710" fill-rule="evenodd" vector-effect="none"/>
   </g>
   <g fill="none" font-family="Noto Sans" font-size="42.3333" font-style="normal" font-weight="400" stroke="#000000" stroke-linecap="round" stroke-linejoin="bevel" stroke-opacity="1" stroke-width="7" transform="matrix(1,0,0,1,1205.43,1503.81)">
    <path d="M-1120.21,640 L-1140.41,675" fill-rule="evenodd" vector-effect="none"/>
   </g>
   <g fill="none" font-family="Noto Sans" font-size="42.3333" font-style="normal" font-weight="400" stroke="#000000" stroke-linecap="round" stroke-linejoin="bevel" stroke-opacity="1" stroke-width="7" transform="matrix(1,0,0,1,1205.43,1503.81)">
    <path d="M-1120.21,710 L-1079.79,710" fill-rule="evenodd" vector-effect="none"/>
   </g>
   <g fill="none" font-family="Noto Sans" font-size="42.3333" font-style="normal" font-weight="400" stroke="#000000" stroke-linecap="round" stroke-linejoin="bevel" stroke-opacity="1" stroke-width="7" transform="matrix(1,0,0,1,1205.43,1503.81)">
    <path d="M-1079.79,640 L-1120.21,640" fill-rule="evenodd" vector-effect="none"/>
   </g>
   <g fill="none" font-family="Noto Sans" font-size="42.3333" font-style="normal" font-weight="400" stroke="#000000" stroke-linecap="round" stroke-linejoin="bevel" stroke-opacity="1" stroke-width="7" transform="matrix(1,0,0,1,1205.43,1503.81)">
    <path d="M-1079.79,710 L-1059.59,675" fill-rule="evenodd" vector-effect="none"/>
   </g>
   <g fill="none" font-family="Noto Sans" font-size="42.3333" font-style="normal" font-weight="400" stroke="#000000" stroke-linecap="round" stroke-linejoin="bevel" stroke-opacity="1" stroke-width="7" transform="matrix(1,0,0,1,1205.43,1503.81)">
    <path d="M-1059.59,675 L-1079.79,640" fill-rule="evenodd" vector-effect="none"/>
   </g>
   <g fill="none" font-family="Noto Sans" font-size="42.3333" font-style="normal" font-weight="400" stroke="#000000" stroke-linecap="round" stroke-linejoin="bevel" stroke-opacity="1" stroke-width="7" transform="matrix(1,0,0,1,1205.43,1503.81)">
    <path d="M-1140.41,-1125 L-1120.21,-1090" fill-rule="evenodd" vector-effect="none"/>
   </g>
   <g fill="none" font-family="Noto Sans" font-size="42.3333" font-style="normal" font-weight="400" stroke="#000000" stroke-linecap="round" stroke-linejoin="bevel" stroke-opacity="1" stroke-width="7" transform="matrix(1,0,0,1,1205.43,1503.81)">
    <path d="M-1120.21,-1160 L-1140.41,-1125" fill-rule="evenodd" vector-effect="none"/>
   </g>
   <g fill="none" font-family="Noto Sans" font-size="42.3333" font-style="normal" font-weight="400" stroke="#000000" stroke-linecap="round" stroke-linejoin="bevel" stroke-opacity="1" stroke-width="7" transform="matrix(1,0,0,1,1205.43,1503.81)">
    <path d="M-1120.21,-1090 L-1079.79,-1090" fill-rule="evenodd" vector-effect="none"/>
   </g>
   <g fill="none" font-family="Noto Sans" font-size="42.3333" font-style="normal" font-weight="400" stroke="#000000" stroke-linecap="round" stroke-linejoin="bevel" stroke-opacity="1" stroke-width="7" transform="matrix(1,0,0,1,1205.43,1503.81)">
    <path d="M-1079.79,-1160 L-1120.21,-1160" fill-rule="evenodd" vector-effect="none"/>
   </g>
   <g fill="none" font-family="Noto Sans" font-size="42.3333" font-style="normal" font-weight="400" stroke="#000000" stroke-linecap="round" stroke-linejoin="bevel" stroke-opacity="1" stroke-width="7" transform="matrix(1,0,0,1,1205.43,1503.81)">
    <path d="M-1079.79,-1090 L-1059.59,-1125" fill-rule="evenodd" vector-effect="none"/>
   </g>
   <g fill="none" font-family="Noto Sans" font-size="42.3333" font-style="normal" font-weight="400" stroke="#000000" stroke-linecap="round" stroke-linejoin="bevel" stroke-opacity="1" stroke-width="7" transform="matrix(1,0,0,1,1205.43,1503.81)">
    <path d="M-1059.59,-1125 L-1079.79,-1160" fill-rule="evenodd" vector-effect="none"/>
   </g>
   <g fill="none" font-family="Noto Sans" font-size="42.3333" font-style="normal" font-weight="400" stroke="#000000" stroke-linecap="round" stroke-linejoin="bevel" stroke-opacity="1" stroke-width="7" transform="matrix(1,0,0,1,1205.43,1503.81)">
    <path d="M879.585,-1125 L899.793,-1090" fill-rule="evenodd" vector-effect="none"/>
   </g>
   <g fill="none" font-family="Noto Sans" font-size="42.3333" font-style="normal" font-weight="400" stroke="#000000" stroke-linecap="round" stroke-linejoin="bevel" stroke-opacity="1" stroke-width="7" transform="matrix(1,0,0,1,1205.43,1503.81)">
    <path d="M899.793,-1160 L879.585,-1125" fill-rule="evenodd" vector-effect="none"/>
   </g>
   <g fill="none" font-family="Noto Sans" font-size="42.3333" font-style="normal" font-weight="400" stroke="#000000" stroke-linecap="round" stroke-linejoin="bevel" stroke-opacity="1" stroke-width="7" transform="matrix(1,0,0,1,1205.43,1503.81)">
    <path d="M899.793,-1090 L940.207,-1090" fill-rule="evenodd" vector-effect="none"/>
   </g>
   <g fill="none" font-family="Noto Sans" font-size="42.3333" font-style="normal" font-weight="400" stroke="#000000" stroke-linecap="round" stroke-linejoin="bevel" stroke-opacity="1" stroke-width="7" transform="matrix(1,0,0,1,1205.43,1503.81)">
    <path d="M940.207,-1160 L899.793,-1160" fill-rule="evenodd" vector-effect="none"/>
   </g>
   <g fill="none" font-family="Noto Sans" font-size="42.3333" font-style="normal" font-weight="400" stroke="#000000" stroke-linecap="round" stroke-linejoin="bevel" stroke-opacity="1" stroke-width="7" transform="matrix(1,0,0,1,1205.43,1503.81)">
    <path d="M940.207,-1090 L960.415,-1125" fill-rule="evenodd" vector-effect="none"/>
   </g>
   <g fill="none" font-family="Noto Sans" font-size="42.3333" font-style="normal" font-weight="400" stroke="#000000" stroke-linecap="round" stroke-linejoin="bevel" stroke-opacity="1" stroke-width="7" transform="matrix(1,0,0,1,1205.43,1503.81)">
    <path d="M960.415,-1125 L940.207,-1160" fill-rule="evenodd" vector-effect="none"/>
   </g>
   <g fill="none" font-family="Noto Sans" font-size="42.3333" font-style="normal" font-weight="400" stroke="#000000" stroke-linecap="round" stroke-linejoin="bevel" stroke-opacity="1" stroke-width="7" transform="matrix(1,0,0,1,1205.43,1503.81)">
    <path d="M-130.415,-1125 L-110.207,-1090" fill-rule="evenodd" vector-effect="none"/>
   </g>
   <g fill="none" font-family="Noto Sans" font-size="42.3333" font-style="normal" font-weight="400" stroke="#000000" stroke-linecap="round" stroke-linejoin="bevel" stroke-opacity="1" stroke-width="7" transform="matrix(1,0,0,1,1205.43,1503.81)">
    <path d="M-110.207,-1160 L-130.415,-1125" fill-rule="evenodd" vector-effect="none"/>
   </g>
   <g fill="none" font-family="Noto Sans" font-size="42.3333" font-style="normal" font-weight="400" stroke="#000000" stroke-linecap="round" stroke-linejoin="bevel" stroke-opacity="1" stroke-width="7" transform="matrix(1,0,0,1,1205.43,1503.81)">
    <path d="M-110.207,-1090 L-69.7927,-1090" fill-rule="evenodd" vector-effect="none"/>
   </g>
   <g fill="none" font-family="Noto Sans" font-size="42.3333" font-style="normal" font-weight="400" stroke="#000000" stroke-linecap="round" stroke-linejoin="bevel" stroke-opacity="1" stroke-width="7" transform="matrix(1,0,0,1,1205.43,1503.81)">
    <path d="M-69.7927,-1160 L-110.207,-1160" fill-rule="evenodd" vector-effect="none"/>
   </g>
   <g fill="none" font-family="Noto Sans" font-size="42.3333" font-style="normal" font-weight="400" stroke="#000000" stroke-linecap="round" stroke-linejoin="bevel" stroke-opacity="1" stroke-width="7" transform="matrix(1,0,0,1,1205.43,1503.81)">
    <path d="M-69.7927,-1090 L-49.5855,-1125" fill-rule="evenodd" vector-effect="none"/>
   </g>
   <g fill="none" font-family="Noto Sans" font-size="42.3333" font-style="normal" font-weight="400" stroke="#000000" stroke-linecap="round" stroke-linejoin="bevel" stroke-opacity="1" stroke-width="7" transform="matrix(1,0,0,1,1205.43,1503.81)">
    <path d="M-49.5855,-1125 L-69.7927,-1160" fill-rule="evenodd" vector-effect="none"/>
   </g>
   <g fill="none" font-family="Noto Sans" font-size="42.3333" font-style="normal" font-weight="400" stroke="#000000" stroke-linecap="round" stroke-linejoin="bevel" stroke-opacity="1" stroke-width="7" transform="matrix(1,0,0,1,1205.43,1503.81)">
    <path d="M-1083,-1395 C-1083,-1385.61 -1090.61,-1378 -1100,-1378 C-1109.39,-1378 -1117,-1385.61 -1117,-1395 C-1117,-1404.39 -1109.39,-1412 -1100,-1412 C-1090.61,-1412 -1083,-1404.39 -1083,-1395 " fill-rule="evenodd" vector-effect="none"/>
   </g>
   <g fill="none" font-family="Noto Sans" font-size="42.3333" font-style="normal" font-weight="400" stroke="#000000" stroke-linecap="round" stroke-linejoin="bevel" stroke-opacity="1" stroke-width="7" transform="matrix(1,0,0,1,1205.43,1503.81)">
    <path d="M-993,-1305 C-993,-1295.61 -1000.61,-1288 -1010,-1288 C-1019.39,-1288 -1027,-1295.61 -1027,-1305 C-1027,-1314.39 -1019.39,-1322 -1010,-1322 C-1000.61,-1322 -993,-1314.39 -993,-1305 " fill-rule="evenodd" vector-effect="none"/>
   </g>
   <g fill="none" font-family="Noto Sans" font-size="42.3333" font-style="normal" font-weight="400" stroke="#000000" stroke-linecap="round" stroke-linejoin="bevel" stroke-opacity="1" stroke-width="7" transform="matrix(1,0,0,1,1205.43,1503.81)">
    <path d="M-527.136,1375 C-527.136,1384.39 -534.747,1392 -544.136,1392 C-553.525,1392 -561.136,1384.39 -561.136,1375 C-561.136,1365.61 -553.525,1358 -544.136,1358 C-534.747,1358 -527.136,1365.61 -527.136,1375 " fill-rule="evenodd" vector-effect="none"/>
   </g>
   <g fill="none" font-family="Noto Sans" font-size="42.3333" font-style="normal" font-weight="400" stroke="#000000" stroke-linecap="round" stroke-linejoin="bevel" stroke-opacity="1" stroke-width="7" transform="matrix(1,0,0,1,1205.43,1503.81)">
    <path d="M-1083,875 C-1083,884.389 -1090.61,892 -1100,892 C-1109.39,892 -1117,884.389 -1117,875 C-1117,865.611 -1109.39,858 -1100,858 C-1090.61,858 -1083,865.611 -1083,875 " fill-rule="evenodd" vector-effect="none"/>
   </g>
   <g fill="none" font-family="Noto Sans" font-size="42.3333" font-style="normal" font-weight="400" stroke="#000000" stroke-linecap="round" stroke-linejoin="bevel" stroke-opacity="1" stroke-width="7" transform="matrix(1,0,0,1,1205.43,1503.81)">
    <path d="M-1083,1375 C-1083,1384.39 -1090.61,1392 -1100,1392 C-1109.39,1392 -1117,1384.39 -1117,1375 C-1117,1365.61 -1109.39,1358 -1100,1358 C-1090.61,1358 -1083,1365.61 -1083,1375 " fill-rule="evenodd" vector-effect="none"/>
   </g>
   <g fill="none" font-family="Noto Sans" font-size="42.3333" font-style="normal" font-weight="400" stroke="#000000" stroke-linecap="round" stroke-linejoin="bevel" stroke-opacity="1" stroke-width="7" transform="matrix(1,0,0,1,1205.43,1503.81)">
    <path d="M1180,-1225 L-930,-1225" fill-rule="evenodd" vector-effect="none"/>
   </g>
  </g>
 </g>
</svg>
