<?xml version='1.0' encoding='UTF-8' standalone='no'?>
<svg baseProfile="tiny" height="300mm" version="1.2" viewBox="0 0 4200 3000" width="420mm" xmlns="http://www.w3.org/2000/svg" xmlns:cc="http://creativecommons.org/ns#" xmlns:dc="http://purl.org/dc/elements/1.1/" xmlns:freecad="https://www.freecad.org/wiki/index.php?title=Svg_Namespace" xmlns:inkscape="http://www.inkscape.org/namespaces/inkscape" xmlns:rdf="http://www.w3.org/1999/02/22-rdf-syntax-ns#" xmlns:sodipodi="http://sodipodi.sourceforge.net/DTD/sodipodi-0.dtd" xmlns:svg="http://www.w3.org/2000/svg" xmlns:xlink="http://www.w3.org/1999/xlink">
 <title>FreeCAD SVG Export</title>
 <desc>Drawing page: Page009 exported from FreeCAD document: marble_pump_export</desc>
 <defs/>
 <g id="Page009" inkscape:groupmode="layer" inkscape:label="TechDraw">
  <g id="TD_CAM_300x3004.svg" style="stroke: none;" transform="scale(10.000000, 10.000000)">
   <sodipodi:namedview bordercolor="#666666" borderopacity="1" gridtolerance="10" guidetolerance="10" id="namedview221" inkscape:current-layer="svg2" inkscape:cx="553.15027" inkscape:cy="576.16869" inkscape:deskcolor="#505050" inkscape:document-units="mm" inkscape:pagecheckerboard="true" inkscape:pageopacity="0" inkscape:pageshadow="2" inkscape:showpageshadow="false" inkscape:window-height="1659" inkscape:window-maximized="1" inkscape:window-width="3072" inkscape:window-x="0" inkscape:window-y="0" inkscape:zoom="1.4119129" objecttolerance="10" pagecolor="#ffffff" showgrid="false">
    <inkscape:grid empspacing="10" id="grid811" originx="0" originy="0" spacingx="1" spacingy="1" type="xygrid" units="mm"/>
   </sodipodi:namedview>
   <!-- Working space 10 10 410 287 -->
   <!-- Title block 220 227 410 287 -->
   <metadata id="metadata849">
    <rdf:RDF>
     <cc:Work rdf:about="">
      <dc:format>image/svg+xml</dc:format>
      <dc:type rdf:resource="http://purl.org/dc/dcmitype/StillImage"/>
      <dc:date>25.04.2026</dc:date>
      <dc:creator>
       <cc:Agent>
        <dc:title>Stefan Krüger</dc:title>
       </cc:Agent>
      </dc:creator>
      <dc:rights>
       <cc:Agent>
        <dc:title>Stefan Krüger</dc:title>
       </cc:Agent>
      </dc:rights>
      <dc:publisher>
       <cc:Agent>
        <dc:title>Stefan Krüger</dc:title>
       </cc:Agent>
      </dc:publisher>
      <dc:language>EN / DE</dc:language>
      <cc:license rdf:resource="http://creativecommons.org/publicdomain/zero/1.0/"/>
     </cc:Work>
     <cc:License rdf:about="http://creativecommons.org/publicdomain/zero/1.0/">
      <cc:permits rdf:resource="http://creativecommons.org/ns#Reproduction"/>
      <cc:permits rdf:resource="http://creativecommons.org/ns#Distribution"/>
      <cc:permits rdf:resource="http://creativecommons.org/ns#DerivativeWorks"/>
     </cc:License>
    </rdf:RDF>
   </metadata>
   <defs id="defs847"/>
   <!-- DrawingContent -->
  </g>
  <g fill="none" fill-rule="evenodd" id="DrawingContent" stroke="black" stroke-linecap="square" stroke-linejoin="bevel" stroke-width="1">
   <g fill="#f1f3f5" fill-opacity="1" font-family="Noto Sans" font-size="42.3333" font-style="normal" font-weight="400" stroke="none" transform="matrix(1,0,0,1,4008.11,1496.48)">
    <path d="M1100,-1225 L1100,-1025 L-80,-1025 C-253.829,-1025 -419.675,-952.026 -537.112,-823.866 C-654.549,-695.706 -712.791,-524.131 -697.641,-350.963 L-564.136,1175 L-264.136,1375 L-264.136,1475 L-1100,1475 L-1100,-1475 L-850,-1475 L-850,-1225 L1100,-1225" fill-rule="evenodd" vector-effect="non-scaling-stroke"/>
   </g>
   <g fill="#f1f3f5" fill-opacity="1" font-family="Noto Sans" font-size="42.3333" font-style="normal" font-weight="400" stroke="none" transform="matrix(1,0,0,1,4008.11,1496.48)">
    <path d="M-913,-1305 C-913,-1295.61 -920.611,-1288 -930,-1288 C-939.389,-1288 -947,-1295.61 -947,-1305 C-947,-1314.39 -939.389,-1322 -930,-1322 C-920.611,-1322 -913,-1314.39 -913,-1305 " fill-rule="evenodd" vector-effect="non-scaling-stroke"/>
   </g>
   <g fill="#f1f3f5" fill-opacity="1" font-family="Noto Sans" font-size="42.3333" font-style="normal" font-weight="400" stroke="none" transform="matrix(1,0,0,1,4008.11,1496.48)">
    <path d="M-1003,875 C-1003,884.389 -1010.61,892 -1020,892 C-1029.39,892 -1037,884.389 -1037,875 C-1037,865.611 -1029.39,858 -1020,858 C-1010.61,858 -1003,865.611 -1003,875 " fill-rule="evenodd" vector-effect="non-scaling-stroke"/>
   </g>
   <g fill="#f1f3f5" fill-opacity="1" font-family="Noto Sans" font-size="42.3333" font-style="normal" font-weight="400" stroke="none" transform="matrix(1,0,0,1,4008.11,1496.48)">
    <path d="M-1003,1375 C-1003,1384.39 -1010.61,1392 -1020,1392 C-1029.39,1392 -1037,1384.39 -1037,1375 C-1037,1365.61 -1029.39,1358 -1020,1358 C-1010.61,1358 -1003,1365.61 -1003,1375 " fill-rule="evenodd" vector-effect="non-scaling-stroke"/>
   </g>
   <g fill="#f1f3f5" fill-opacity="1" font-family="Noto Sans" font-size="42.3333" font-style="normal" font-weight="400" stroke="none" transform="matrix(1,0,0,1,4008.11,1496.48)">
    <path d="M-1003,-1395 C-1003,-1385.61 -1010.61,-1378 -1020,-1378 C-1029.39,-1378 -1037,-1385.61 -1037,-1395 C-1037,-1404.39 -1029.39,-1412 -1020,-1412 C-1010.61,-1412 -1003,-1404.39 -1003,-1395 " fill-rule="evenodd" vector-effect="non-scaling-stroke"/>
   </g>
   <g fill="#f1f3f5" fill-opacity="1" font-family="Noto Sans" font-size="42.3333" font-style="normal" font-weight="400" stroke="none" transform="matrix(1,0,0,1,4008.11,1496.48)">
    <path d="M-447.136,1375 C-447.136,1384.39 -454.747,1392 -464.136,1392 C-473.525,1392 -481.136,1384.39 -481.136,1375 C-481.136,1365.61 -473.525,1358 -464.136,1358 C-454.747,1358 -447.136,1365.61 -447.136,1375 " fill-rule="evenodd" vector-effect="non-scaling-stroke"/>
   </g>
   <g fill="#f1f3f5" fill-opacity="1" font-family="Noto Sans" font-size="42.3333" font-style="normal" font-weight="400" stroke="none" transform="matrix(1,0,0,1,4008.11,1496.48)">
    <path d="M7,-1125 C7,-1115.61 -0.611159,-1108 -10,-1108 C-19.3888,-1108 -27,-1115.61 -27,-1125 C-27,-1134.39 -19.3888,-1142 -10,-1142 C-0.611159,-1142 7,-1134.39 7,-1125 " fill-rule="evenodd" vector-effect="non-scaling-stroke"/>
   </g>
   <g fill="#f1f3f5" fill-opacity="1" font-family="Noto Sans" font-size="42.3333" font-style="normal" font-weight="400" stroke="none" transform="matrix(1,0,0,1,4008.11,1496.48)">
    <path d="M-1003,675 C-1003,684.389 -1010.61,692 -1020,692 C-1029.39,692 -1037,684.389 -1037,675 C-1037,665.611 -1029.39,658 -1020,658 C-1010.61,658 -1003,665.611 -1003,675 " fill-rule="evenodd" vector-effect="non-scaling-stroke"/>
   </g>
   <g fill="#f1f3f5" fill-opacity="1" font-family="Noto Sans" font-size="42.3333" font-style="normal" font-weight="400" stroke="none" transform="matrix(1,0,0,1,4008.11,1496.48)">
    <path d="M1017,-1125 C1017,-1115.61 1009.39,-1108 1000,-1108 C990.611,-1108 983,-1115.61 983,-1125 C983,-1134.39 990.611,-1142 1000,-1142 C1009.39,-1142 1017,-1134.39 1017,-1125 " fill-rule="evenodd" vector-effect="non-scaling-stroke"/>
   </g>
   <g fill="#f1f3f5" fill-opacity="1" font-family="Noto Sans" font-size="42.3333" font-style="normal" font-weight="400" stroke="none" transform="matrix(1,0,0,1,4008.11,1496.48)">
    <path d="M-1003,-1125 C-1003,-1115.61 -1010.61,-1108 -1020,-1108 C-1029.39,-1108 -1037,-1115.61 -1037,-1125 C-1037,-1134.39 -1029.39,-1142 -1020,-1142 C-1010.61,-1142 -1003,-1134.39 -1003,-1125 " fill-rule="evenodd" vector-effect="non-scaling-stroke"/>
   </g>
   <g fill="none" font-family="Noto Sans" font-size="42.3333" font-style="normal" font-weight="400" stroke="#000000" stroke-linecap="round" stroke-linejoin="bevel" stroke-opacity="1" stroke-width="7" transform="matrix(1,0,0,1,4008.11,1496.48)">
    <path d="M1100,-1225 L1100,-1025" fill-rule="evenodd" vector-effect="none"/>
   </g>
   <g fill="none" font-family="Noto Sans" font-size="42.3333" font-style="normal" font-weight="400" stroke="#000000" stroke-linecap="round" stroke-linejoin="bevel" stroke-opacity="1" stroke-width="7" transform="matrix(1,0,0,1,4008.11,1496.48)">
    <path d="M1100,-1225 L-850,-1225" fill-rule="evenodd" vector-effect="none"/>
   </g>
   <g fill="none" font-family="Noto Sans" font-size="42.3333" font-style="normal" font-weight="400" stroke="#000000" stroke-linecap="round" stroke-linejoin="bevel" stroke-opacity="1" stroke-width="7" transform="matrix(1,0,0,1,4008.11,1496.48)">
    <path d="M-80,-1025 L1100,-1025" fill-rule="evenodd" vector-effect="none"/>
   </g>
   <g fill="none" font-family="Noto Sans" font-size="42.3333" font-style="normal" font-weight="400" stroke="#000000" stroke-linecap="round" stroke-linejoin="bevel" stroke-opacity="1" stroke-width="7" transform="matrix(1,0,0,1,4008.11,1496.48)">
    <path d="M-850,-1225 L-850,-1475" fill-rule="evenodd" vector-effect="none"/>
   </g>
   <g fill="none" font-family="Noto Sans" font-size="42.3333" font-style="normal" font-weight="400" stroke="#000000" stroke-linecap="round" stroke-linejoin="bevel" stroke-opacity="1" stroke-width="7" transform="matrix(1,0,0,1,4008.11,1496.48)">
    <path d="M-80,-1025 C-253.829,-1025 -419.675,-952.026 -537.112,-823.866 C-654.549,-695.706 -712.791,-524.131 -697.641,-350.963 " fill-rule="evenodd" vector-effect="none"/>
   </g>
   <g fill="none" font-family="Noto Sans" font-size="42.3333" font-style="normal" font-weight="400" stroke="#000000" stroke-linecap="round" stroke-linejoin="bevel" stroke-opacity="1" stroke-width="7" transform="matrix(1,0,0,1,4008.11,1496.48)">
    <path d="M-850,-1475 L-1100,-1475" fill-rule="evenodd" vector-effect="none"/>
   </g>
   <g fill="none" font-family="Noto Sans" font-size="42.3333" font-style="normal" font-weight="400" stroke="#000000" stroke-linecap="round" stroke-linejoin="bevel" stroke-opacity="1" stroke-width="7" transform="matrix(1,0,0,1,4008.11,1496.48)">
    <path d="M-1100,-1475 L-1100,1475" fill-rule="evenodd" vector-effect="none"/>
   </g>
   <g fill="none" font-family="Noto Sans" font-size="42.3333" font-style="normal" font-weight="400" stroke="#000000" stroke-linecap="round" stroke-linejoin="bevel" stroke-opacity="1" stroke-width="7" transform="matrix(1,0,0,1,4008.11,1496.48)">
    <path d="M-697.641,-350.963 L-564.136,1175" fill-rule="evenodd" vector-effect="none"/>
   </g>
   <g fill="none" font-family="Noto Sans" font-size="42.3333" font-style="normal" font-weight="400" stroke="#000000" stroke-linecap="round" stroke-linejoin="bevel" stroke-opacity="1" stroke-width="7" transform="matrix(1,0,0,1,4008.11,1496.48)">
    <path d="M-264.136,1375 L-564.136,1175" fill-rule="evenodd" vector-effect="none"/>
   </g>
   <g fill="none" font-family="Noto Sans" font-size="42.3333" font-style="normal" font-weight="400" stroke="#000000" stroke-linecap="round" stroke-linejoin="bevel" stroke-opacity="1" stroke-width="7" transform="matrix(1,0,0,1,4008.11,1496.48)">
    <path d="M-264.136,1475 L-264.136,1375" fill-rule="evenodd" vector-effect="none"/>
   </g>
   <g fill="none" font-family="Noto Sans" font-size="42.3333" font-style="normal" font-weight="400" stroke="#000000" stroke-linecap="round" stroke-linejoin="bevel" stroke-opacity="1" stroke-width="7" transform="matrix(1,0,0,1,4008.11,1496.48)">
    <path d="M-1100,1475 L-264.136,1475" fill-rule="evenodd" vector-effect="none"/>
   </g>
   <g fill="none" font-family="Noto Sans" font-size="42.3333" font-style="normal" font-weight="400" stroke="#000000" stroke-linecap="round" stroke-linejoin="bevel" stroke-opacity="1" stroke-width="7" transform="matrix(1,0,0,1,4008.11,1496.48)">
    <path d="M-1003,-1395 C-1003,-1385.61 -1010.61,-1378 -1020,-1378 C-1029.39,-1378 -1037,-1385.61 -1037,-1395 C-1037,-1404.39 -1029.39,-1412 -1020,-1412 C-1010.61,-1412 -1003,-1404.39 -1003,-1395 " fill-rule="evenodd" vector-effect="none"/>
   </g>
   <g fill="none" font-family="Noto Sans" font-size="42.3333" font-style="normal" font-weight="400" stroke="#000000" stroke-linecap="round" stroke-linejoin="bevel" stroke-opacity="1" stroke-width="7" transform="matrix(1,0,0,1,4008.11,1496.48)">
    <path d="M-913,-1305 C-913,-1295.61 -920.611,-1288 -930,-1288 C-939.389,-1288 -947,-1295.61 -947,-1305 C-947,-1314.39 -939.389,-1322 -930,-1322 C-920.611,-1322 -913,-1314.39 -913,-1305 " fill-rule="evenodd" vector-effect="none"/>
   </g>
   <g fill="none" font-family="Noto Sans" font-size="42.3333" font-style="normal" font-weight="400" stroke="#000000" stroke-linecap="round" stroke-linejoin="bevel" stroke-opacity="1" stroke-width="7" transform="matrix(1,0,0,1,4008.11,1496.48)">
    <path d="M-1003,-1125 C-1003,-1115.61 -1010.61,-1108 -1020,-1108 C-1029.39,-1108 -1037,-1115.61 -1037,-1125 C-1037,-1134.39 -1029.39,-1142 -1020,-1142 C-1010.61,-1142 -1003,-1134.39 -1003,-1125 " fill-rule="evenodd" vector-effect="none"/>
   </g>
   <g fill="none" font-family="Noto Sans" font-size="42.3333" font-style="normal" font-weight="400" stroke="#000000" stroke-linecap="round" stroke-linejoin="bevel" stroke-opacity="1" stroke-width="7" transform="matrix(1,0,0,1,4008.11,1496.48)">
    <path d="M7,-1125 C7,-1115.61 -0.611159,-1108 -10,-1108 C-19.3888,-1108 -27,-1115.61 -27,-1125 C-27,-1134.39 -19.3888,-1142 -10,-1142 C-0.611159,-1142 7,-1134.39 7,-1125 " fill-rule="evenodd" vector-effect="none"/>
   </g>
   <g fill="none" font-family="Noto Sans" font-size="42.3333" font-style="normal" font-weight="400" stroke="#000000" stroke-linecap="round" stroke-linejoin="bevel" stroke-opacity="1" stroke-width="7" transform="matrix(1,0,0,1,4008.11,1496.48)">
    <path d="M1017,-1125 C1017,-1115.61 1009.39,-1108 1000,-1108 C990.611,-1108 983,-1115.61 983,-1125 C983,-1134.39 990.611,-1142 1000,-1142 C1009.39,-1142 1017,-1134.39 1017,-1125 " fill-rule="evenodd" vector-effect="none"/>
   </g>
   <g fill="none" font-family="Noto Sans" font-size="42.3333" font-style="normal" font-weight="400" stroke="#000000" stroke-linecap="round" stroke-linejoin="bevel" stroke-opacity="1" stroke-width="7" transform="matrix(1,0,0,1,4008.11,1496.48)">
    <path d="M-1003,675 C-1003,684.389 -1010.61,692 -1020,692 C-1029.39,692 -1037,684.389 -1037,675 C-1037,665.611 -1029.39,658 -1020,658 C-1010.61,658 -1003,665.611 -1003,675 " fill-rule="evenodd" vector-effect="none"/>
   </g>
   <g fill="none" font-family="Noto Sans" font-size="42.3333" font-style="normal" font-weight="400" stroke="#000000" stroke-linecap="round" stroke-linejoin="bevel" stroke-opacity="1" stroke-width="7" transform="matrix(1,0,0,1,4008.11,1496.48)">
    <path d="M-1003,875 C-1003,884.389 -1010.61,892 -1020,892 C-1029.39,892 -1037,884.389 -1037,875 C-1037,865.611 -1029.39,858 -1020,858 C-1010.61,858 -1003,865.611 -1003,875 " fill-rule="evenodd" vector-effect="none"/>
   </g>
   <g fill="none" font-family="Noto Sans" font-size="42.3333" font-style="normal" font-weight="400" stroke="#000000" stroke-linecap="round" stroke-linejoin="bevel" stroke-opacity="1" stroke-width="7" transform="matrix(1,0,0,1,4008.11,1496.48)">
    <path d="M-1003,1375 C-1003,1384.39 -1010.61,1392 -1020,1392 C-1029.39,1392 -1037,1384.39 -1037,1375 C-1037,1365.61 -1029.39,1358 -1020,1358 C-1010.61,1358 -1003,1365.61 -1003,1375 " fill-rule="evenodd" vector-effect="none"/>
   </g>
   <g fill="none" font-family="Noto Sans" font-size="42.3333" font-style="normal" font-weight="400" stroke="#000000" stroke-linecap="round" stroke-linejoin="bevel" stroke-opacity="1" stroke-width="7" transform="matrix(1,0,0,1,4008.11,1496.48)">
    <path d="M-447.136,1375 C-447.136,1384.39 -454.747,1392 -464.136,1392 C-473.525,1392 -481.136,1384.39 -481.136,1375 C-481.136,1365.61 -473.525,1358 -464.136,1358 C-454.747,1358 -447.136,1365.61 -447.136,1375 " fill-rule="evenodd" vector-effect="none"/>
   </g>
   <g fill="#f1f3f5" fill-opacity="1" font-family="Noto Sans" font-size="42.3333" font-style="normal" font-weight="400" stroke="none" transform="matrix(1,0,0,1,4646.04,1496.48)">
    <path d="M-1100,1225 L-1100,1025 L80,1025 C253.829,1025 419.675,952.026 537.112,823.866 C654.549,695.706 712.791,524.131 697.641,350.963 L564.136,-1175 L264.136,-1375 L264.136,-1475 L1100,-1475 L1100,1475 L850,1475 L850,1225 L-1100,1225" fill-rule="evenodd" vector-effect="non-scaling-stroke"/>
   </g>
   <g fill="#f1f3f5" fill-opacity="1" font-family="Noto Sans" font-size="42.3333" font-style="normal" font-weight="400" stroke="none" transform="matrix(1,0,0,1,4646.04,1496.48)">
    <path d="M-983,1125 C-983,1134.39 -990.611,1142 -1000,1142 C-1009.39,1142 -1017,1134.39 -1017,1125 C-1017,1115.61 -1009.39,1108 -1000,1108 C-990.611,1108 -983,1115.61 -983,1125 " fill-rule="evenodd" vector-effect="non-scaling-stroke"/>
   </g>
   <g fill="#f1f3f5" fill-opacity="1" font-family="Noto Sans" font-size="42.3333" font-style="normal" font-weight="400" stroke="none" transform="matrix(1,0,0,1,4646.04,1496.48)">
    <path d="M481.136,-1375 C481.136,-1365.61 473.525,-1358 464.136,-1358 C454.747,-1358 447.136,-1365.61 447.136,-1375 C447.136,-1384.39 454.747,-1392 464.136,-1392 C473.525,-1392 481.136,-1384.39 481.136,-1375 " fill-rule="evenodd" vector-effect="non-scaling-stroke"/>
   </g>
   <g fill="#f1f3f5" fill-opacity="1" font-family="Noto Sans" font-size="42.3333" font-style="normal" font-weight="400" stroke="none" transform="matrix(1,0,0,1,4646.04,1496.48)">
    <path d="M1037,1395 C1037,1404.39 1029.39,1412 1020,1412 C1010.61,1412 1003,1404.39 1003,1395 C1003,1385.61 1010.61,1378 1020,1378 C1029.39,1378 1037,1385.61 1037,1395 " fill-rule="evenodd" vector-effect="non-scaling-stroke"/>
   </g>
   <g fill="#f1f3f5" fill-opacity="1" font-family="Noto Sans" font-size="42.3333" font-style="normal" font-weight="400" stroke="none" transform="matrix(1,0,0,1,4646.04,1496.48)">
    <path d="M1037,-675 C1037,-665.611 1029.39,-658 1020,-658 C1010.61,-658 1003,-665.611 1003,-675 C1003,-684.389 1010.61,-692 1020,-692 C1029.39,-692 1037,-684.389 1037,-675 " fill-rule="evenodd" vector-effect="non-scaling-stroke"/>
   </g>
   <g fill="#f1f3f5" fill-opacity="1" font-family="Noto Sans" font-size="42.3333" font-style="normal" font-weight="400" stroke="none" transform="matrix(1,0,0,1,4646.04,1496.48)">
    <path d="M27,1125 C27,1134.39 19.3888,1142 10,1142 C0.611159,1142 -7,1134.39 -7,1125 C-7,1115.61 0.611159,1108 10,1108 C19.3888,1108 27,1115.61 27,1125 " fill-rule="evenodd" vector-effect="non-scaling-stroke"/>
   </g>
   <g fill="#f1f3f5" fill-opacity="1" font-family="Noto Sans" font-size="42.3333" font-style="normal" font-weight="400" stroke="none" transform="matrix(1,0,0,1,4646.04,1496.48)">
    <path d="M1037,1125 C1037,1134.39 1029.39,1142 1020,1142 C1010.61,1142 1003,1134.39 1003,1125 C1003,1115.61 1010.61,1108 1020,1108 C1029.39,1108 1037,1115.61 1037,1125 " fill-rule="evenodd" vector-effect="non-scaling-stroke"/>
   </g>
   <g fill="#f1f3f5" fill-opacity="1" font-family="Noto Sans" font-size="42.3333" font-style="normal" font-weight="400" stroke="none" transform="matrix(1,0,0,1,4646.04,1496.48)">
    <path d="M1037,-875 C1037,-865.611 1029.39,-858 1020,-858 C1010.61,-858 1003,-865.611 1003,-875 C1003,-884.389 1010.61,-892 1020,-892 C1029.39,-892 1037,-884.389 1037,-875 " fill-rule="evenodd" vector-effect="non-scaling-stroke"/>
   </g>
   <g fill="#f1f3f5" fill-opacity="1" font-family="Noto Sans" font-size="42.3333" font-style="normal" font-weight="400" stroke="none" transform="matrix(1,0,0,1,4646.04,1496.48)">
    <path d="M1037,-1375 C1037,-1365.61 1029.39,-1358 1020,-1358 C1010.61,-1358 1003,-1365.61 1003,-1375 C1003,-1384.39 1010.61,-1392 1020,-1392 C1029.39,-1392 1037,-1384.39 1037,-1375 " fill-rule="evenodd" vector-effect="non-scaling-stroke"/>
   </g>
   <g fill="#f1f3f5" fill-opacity="1" font-family="Noto Sans" font-size="42.3333" font-style="normal" font-weight="400" stroke="none" transform="matrix(1,0,0,1,4646.04,1496.48)">
    <path d="M947,1305 C947,1314.39 939.389,1322 930,1322 C920.611,1322 913,1314.39 913,1305 C913,1295.61 920.611,1288 930,1288 C939.389,1288 947,1295.61 947,1305 " fill-rule="evenodd" vector-effect="non-scaling-stroke"/>
   </g>
   <g fill="none" font-family="Noto Sans" font-size="42.3333" font-style="normal" font-weight="400" stroke="#000000" stroke-linecap="round" stroke-linejoin="bevel" stroke-opacity="1" stroke-width="7" transform="matrix(1,0,0,1,4646.04,1496.48)">
    <path d="M-1100,1225 L-1100,1025" fill-rule="evenodd" vector-effect="none"/>
   </g>
   <g fill="none" font-family="Noto Sans" font-size="42.3333" font-style="normal" font-weight="400" stroke="#000000" stroke-linecap="round" stroke-linejoin="bevel" stroke-opacity="1" stroke-width="7" transform="matrix(1,0,0,1,4646.04,1496.48)">
    <path d="M-1100,1225 L850,1225" fill-rule="evenodd" vector-effect="none"/>
   </g>
   <g fill="none" font-family="Noto Sans" font-size="42.3333" font-style="normal" font-weight="400" stroke="#000000" stroke-linecap="round" stroke-linejoin="bevel" stroke-opacity="1" stroke-width="7" transform="matrix(1,0,0,1,4646.04,1496.48)">
    <path d="M80,1025 L-1100,1025" fill-rule="evenodd" vector-effect="none"/>
   </g>
   <g fill="none" font-family="Noto Sans" font-size="42.3333" font-style="normal" font-weight="400" stroke="#000000" stroke-linecap="round" stroke-linejoin="bevel" stroke-opacity="1" stroke-width="7" transform="matrix(1,0,0,1,4646.04,1496.48)">
    <path d="M850,1225 L850,1475" fill-rule="evenodd" vector-effect="none"/>
   </g>
   <g fill="none" font-family="Noto Sans" font-size="42.3333" font-style="normal" font-weight="400" stroke="#000000" stroke-linecap="round" stroke-linejoin="bevel" stroke-opacity="1" stroke-width="7" transform="matrix(1,0,0,1,4646.04,1496.48)">
    <path d="M80,1025 C253.829,1025 419.675,952.026 537.112,823.866 C654.549,695.706 712.791,524.131 697.641,350.963 " fill-rule="evenodd" vector-effect="none"/>
   </g>
   <g fill="none" font-family="Noto Sans" font-size="42.3333" font-style="normal" font-weight="400" stroke="#000000" stroke-linecap="round" stroke-linejoin="bevel" stroke-opacity="1" stroke-width="7" transform="matrix(1,0,0,1,4646.04,1496.48)">
    <path d="M850,1475 L1100,1475" fill-rule="evenodd" vector-effect="none"/>
   </g>
   <g fill="none" font-family="Noto Sans" font-size="42.3333" font-style="normal" font-weight="400" stroke="#000000" stroke-linecap="round" stroke-linejoin="bevel" stroke-opacity="1" stroke-width="7" transform="matrix(1,0,0,1,4646.04,1496.48)">
    <path d="M1100,1475 L1100,-1475" fill-rule="evenodd" vector-effect="none"/>
   </g>
   <g fill="none" font-family="Noto Sans" font-size="42.3333" font-style="normal" font-weight="400" stroke="#000000" stroke-linecap="round" stroke-linejoin="bevel" stroke-opacity="1" stroke-width="7" transform="matrix(1,0,0,1,4646.04,1496.48)">
    <path d="M697.641,350.963 L564.136,-1175" fill-rule="evenodd" vector-effect="none"/>
   </g>
   <g fill="none" font-family="Noto Sans" font-size="42.3333" font-style="normal" font-weight="400" stroke="#000000" stroke-linecap="round" stroke-linejoin="bevel" stroke-opacity="1" stroke-width="7" transform="matrix(1,0,0,1,4646.04,1496.48)">
    <path d="M264.136,-1375 L564.136,-1175" fill-rule="evenodd" vector-effect="none"/>
   </g>
   <g fill="none" font-family="Noto Sans" font-size="42.3333" font-style="normal" font-weight="400" stroke="#000000" stroke-linecap="round" stroke-linejoin="bevel" stroke-opacity="1" stroke-width="7" transform="matrix(1,0,0,1,4646.04,1496.48)">
    <path d="M264.136,-1475 L264.136,-1375" fill-rule="evenodd" vector-effect="none"/>
   </g>
   <g fill="none" font-family="Noto Sans" font-size="42.3333" font-style="normal" font-weight="400" stroke="#000000" stroke-linecap="round" stroke-linejoin="bevel" stroke-opacity="1" stroke-width="7" transform="matrix(1,0,0,1,4646.04,1496.48)">
    <path d="M1100,-1475 L264.136,-1475" fill-rule="evenodd" vector-effect="none"/>
   </g>
   <g fill="none" font-family="Noto Sans" font-size="42.3333" font-style="normal" font-weight="400" stroke="#000000" stroke-linecap="round" stroke-linejoin="bevel" stroke-opacity="1" stroke-width="7" transform="matrix(1,0,0,1,4646.04,1496.48)">
    <path d="M1037,1395 C1037,1404.39 1029.39,1412 1020,1412 C1010.61,1412 1003,1404.39 1003,1395 C1003,1385.61 1010.61,1378 1020,1378 C1029.39,1378 1037,1385.61 1037,1395 " fill-rule="evenodd" vector-effect="none"/>
   </g>
   <g fill="none" font-family="Noto Sans" font-size="42.3333" font-style="normal" font-weight="400" stroke="#000000" stroke-linecap="round" stroke-linejoin="bevel" stroke-opacity="1" stroke-width="7" transform="matrix(1,0,0,1,4646.04,1496.48)">
    <path d="M947,1305 C947,1314.39 939.389,1322 930,1322 C920.611,1322 913,1314.39 913,1305 C913,1295.61 920.611,1288 930,1288 C939.389,1288 947,1295.61 947,1305 " fill-rule="evenodd" vector-effect="none"/>
   </g>
   <g fill="none" font-family="Noto Sans" font-size="42.3333" font-style="normal" font-weight="400" stroke="#000000" stroke-linecap="round" stroke-linejoin="bevel" stroke-opacity="1" stroke-width="7" transform="matrix(1,0,0,1,4646.04,1496.48)">
    <path d="M1037,1125 C1037,1134.39 1029.39,1142 1020,1142 C1010.61,1142 1003,1134.39 1003,1125 C1003,1115.61 1010.61,1108 1020,1108 C1029.39,1108 1037,1115.61 1037,1125 " fill-rule="evenodd" vector-effect="none"/>
   </g>
   <g fill="none" font-family="Noto Sans" font-size="42.3333" font-style="normal" font-weight="400" stroke="#000000" stroke-linecap="round" stroke-linejoin="bevel" stroke-opacity="1" stroke-width="7" transform="matrix(1,0,0,1,4646.04,1496.48)">
    <path d="M27,1125 C27,1134.39 19.3888,1142 10,1142 C0.611159,1142 -7,1134.39 -7,1125 C-7,1115.61 0.611159,1108 10,1108 C19.3888,1108 27,1115.61 27,1125 " fill-rule="evenodd" vector-effect="none"/>
   </g>
   <g fill="none" font-family="Noto Sans" font-size="42.3333" font-style="normal" font-weight="400" stroke="#000000" stroke-linecap="round" stroke-linejoin="bevel" stroke-opacity="1" stroke-width="7" transform="matrix(1,0,0,1,4646.04,1496.48)">
    <path d="M-983,1125 C-983,1134.39 -990.611,1142 -1000,1142 C-1009.39,1142 -1017,1134.39 -1017,1125 C-1017,1115.61 -1009.39,1108 -1000,1108 C-990.611,1108 -983,1115.61 -983,1125 " fill-rule="evenodd" vector-effect="none"/>
   </g>
   <g fill="none" font-family="Noto Sans" font-size="42.3333" font-style="normal" font-weight="400" stroke="#000000" stroke-linecap="round" stroke-linejoin="bevel" stroke-opacity="1" stroke-width="7" transform="matrix(1,0,0,1,4646.04,1496.48)">
    <path d="M1037,-675 C1037,-665.611 1029.39,-658 1020,-658 C1010.61,-658 1003,-665.611 1003,-675 C1003,-684.389 1010.61,-692 1020,-692 C1029.39,-692 1037,-684.389 1037,-675 " fill-rule="evenodd" vector-effect="none"/>
   </g>
   <g fill="none" font-family="Noto Sans" font-size="42.3333" font-style="normal" font-weight="400" stroke="#000000" stroke-linecap="round" stroke-linejoin="bevel" stroke-opacity="1" stroke-width="7" transform="matrix(1,0,0,1,4646.04,1496.48)">
    <path d="M1037,-875 C1037,-865.611 1029.39,-858 1020,-858 C1010.61,-858 1003,-865.611 1003,-875 C1003,-884.389 1010.61,-892 1020,-892 C1029.39,-892 1037,-884.389 1037,-875 " fill-rule="evenodd" vector-effect="none"/>
   </g>
   <g fill="none" font-family="Noto Sans" font-size="42.3333" font-style="normal" font-weight="400" stroke="#000000" stroke-linecap="round" stroke-linejoin="bevel" stroke-opacity="1" stroke-width="7" transform="matrix(1,0,0,1,4646.04,1496.48)">
    <path d="M1037,-1375 C1037,-1365.61 1029.39,-1358 1020,-1358 C1010.61,-1358 1003,-1365.61 1003,-1375 C1003,-1384.39 1010.61,-1392 1020,-1392 C1029.39,-1392 1037,-1384.39 1037,-1375 " fill-rule="evenodd" vector-effect="none"/>
   </g>
   <g fill="none" font-family="Noto Sans" font-size="42.3333" font-style="normal" font-weight="400" stroke="#000000" stroke-linecap="round" stroke-linejoin="bevel" stroke-opacity="1" stroke-width="7" transform="matrix(1,0,0,1,4646.04,1496.48)">
    <path d="M481.136,-1375 C481.136,-1365.61 473.525,-1358 464.136,-1358 C454.747,-1358 447.136,-1365.61 447.136,-1375 C447.136,-1384.39 454.747,-1392 464.136,-1392 C473.525,-1392 481.136,-1384.39 481.136,-1375 " fill-rule="evenodd" vector-effect="none"/>
   </g>
  </g>
 </g>
</svg>
