<?xml version='1.0' encoding='UTF-8' standalone='no'?>
<svg baseProfile="tiny" height="500mm" version="1.2" viewBox="0 0 5000 5000" width="500mm" xmlns="http://www.w3.org/2000/svg" xmlns:cc="http://creativecommons.org/ns#" xmlns:dc="http://purl.org/dc/elements/1.1/" xmlns:freecad="https://www.freecad.org/wiki/index.php?title=Svg_Namespace" xmlns:inkscape="http://www.inkscape.org/namespaces/inkscape" xmlns:rdf="http://www.w3.org/1999/02/22-rdf-syntax-ns#" xmlns:sodipodi="http://sodipodi.sourceforge.net/DTD/sodipodi-0.dtd" xmlns:svg="http://www.w3.org/2000/svg" xmlns:xlink="http://www.w3.org/1999/xlink">
 <title>FreeCAD SVG Export</title>
 <desc>Drawing page: Page005 exported from FreeCAD document: marble_pump_export</desc>
 <defs/>
 <g id="Page005" inkscape:groupmode="layer" inkscape:label="TechDraw">
  <g id="TD_CAM_300x300.svg" style="stroke: none;" transform="scale(10.000000, 10.000000)">
   <sodipodi:namedview bordercolor="#666666" borderopacity="1" gridtolerance="10" guidetolerance="10" id="namedview221" inkscape:current-layer="svg2" inkscape:cx="-372.65222" inkscape:cy="561.25984" inkscape:document-units="mm" inkscape:pagecheckerboard="true" inkscape:pageopacity="0" inkscape:pageshadow="2" inkscape:showpageshadow="false" inkscape:window-height="2067" inkscape:window-maximized="1" inkscape:window-width="3840" inkscape:window-x="0" inkscape:window-y="0" inkscape:zoom="0.20662698" objecttolerance="10" pagecolor="#ffffff" showgrid="false"/>
   <!-- Working space 10 10 410 287 -->
   <!-- Title block 220 227 410 287 -->
   <metadata id="metadata849">
    <rdf:RDF>
     <cc:Work rdf:about="">
      <dc:format>image/svg+xml</dc:format>
      <dc:type rdf:resource="http://purl.org/dc/dcmitype/StillImage"/>
      <dc:title/>
      <dc:date>01.03.2020</dc:date>
      <dc:creator>
       <cc:Agent>
        <dc:title>Stefan Krüger</dc:title>
       </cc:Agent>
      </dc:creator>
      <dc:rights>
       <cc:Agent>
        <dc:title>Stefan Krüger</dc:title>
       </cc:Agent>
      </dc:rights>
      <dc:publisher>
       <cc:Agent>
        <dc:title>Stefan Krüger</dc:title>
       </cc:Agent>
      </dc:publisher>
      <dc:language>EN / DE</dc:language>
      <cc:license rdf:resource="http://creativecommons.org/publicdomain/zero/1.0/"/>
     </cc:Work>
     <cc:License rdf:about="http://creativecommons.org/publicdomain/zero/1.0/">
      <cc:permits rdf:resource="http://creativecommons.org/ns#Reproduction"/>
      <cc:permits rdf:resource="http://creativecommons.org/ns#Distribution"/>
      <cc:permits rdf:resource="http://creativecommons.org/ns#DerivativeWorks"/>
     </cc:License>
    </rdf:RDF>
   </metadata>
   <defs id="defs847"/>
   <!-- DrawingContent -->
  </g>
  <g fill="none" fill-rule="evenodd" id="DrawingContent" stroke="black" stroke-linecap="square" stroke-linejoin="bevel" stroke-width="1">
   <g fill="#f1f3f5" fill-opacity="1" font-family="Noto Sans" font-size="42.3333" font-style="normal" font-weight="400" stroke="none" transform="matrix(1,0,0,1,2096.11,2972.01)">
    <path d="M-1200,-1100 L-1000,-1100 L-1000,80 C-1000,253.829 -927.026,419.675 -798.866,537.112 C-670.706,654.549 -499.131,712.791 -325.963,697.641 L1200,564.136 L1400,264.136 L1500,264.136 L1500,1100 L-1500,1100 L-1500,800 L-1200,800 L-1200,-1100" fill-rule="evenodd" vector-effect="non-scaling-stroke"/>
   </g>
   <g fill="#f1f3f5" fill-opacity="1" font-family="Noto Sans" font-size="42.3333" font-style="normal" font-weight="400" stroke="none" transform="matrix(1,0,0,1,2096.11,2972.01)">
    <path d="M-1083,1020 C-1083,1029.39 -1090.61,1037 -1100,1037 C-1109.39,1037 -1117,1029.39 -1117,1020 C-1117,1010.61 -1109.39,1003 -1100,1003 C-1090.61,1003 -1083,1010.61 -1083,1020 " fill-rule="evenodd" vector-effect="non-scaling-stroke"/>
   </g>
   <g fill="#f1f3f5" fill-opacity="1" font-family="Noto Sans" font-size="42.3333" font-style="normal" font-weight="400" stroke="none" transform="matrix(1,0,0,1,2096.11,2972.01)">
    <path d="M-1263,880 C-1263,889.389 -1270.61,897 -1280,897 C-1289.39,897 -1297,889.389 -1297,880 C-1297,870.611 -1289.39,863 -1280,863 C-1270.61,863 -1263,870.611 -1263,880 " fill-rule="evenodd" vector-effect="non-scaling-stroke"/>
   </g>
   <g fill="#f1f3f5" fill-opacity="1" font-family="Noto Sans" font-size="42.3333" font-style="normal" font-weight="400" stroke="none" transform="matrix(1,0,0,1,2096.11,2972.01)">
    <path d="M1417,1020 C1417,1029.39 1409.39,1037 1400,1037 C1390.61,1037 1383,1029.39 1383,1020 C1383,1010.61 1390.61,1003 1400,1003 C1409.39,1003 1417,1010.61 1417,1020 " fill-rule="evenodd" vector-effect="non-scaling-stroke"/>
   </g>
   <g fill="#f1f3f5" fill-opacity="1" font-family="Noto Sans" font-size="42.3333" font-style="normal" font-weight="400" stroke="none" transform="matrix(1,0,0,1,2096.11,2972.01)">
    <path d="M717,1020 C717,1029.39 709.389,1037 700,1037 C690.611,1037 683,1029.39 683,1020 C683,1010.61 690.611,1003 700,1003 C709.389,1003 717,1010.61 717,1020 " fill-rule="evenodd" vector-effect="non-scaling-stroke"/>
   </g>
   <g fill="#f1f3f5" fill-opacity="1" font-family="Noto Sans" font-size="42.3333" font-style="normal" font-weight="400" stroke="none" transform="matrix(1,0,0,1,2096.11,2972.01)">
    <path d="M-1083,-1000 C-1083,-990.611 -1090.61,-983 -1100,-983 C-1109.39,-983 -1117,-990.611 -1117,-1000 C-1117,-1009.39 -1109.39,-1017 -1100,-1017 C-1090.61,-1017 -1083,-1009.39 -1083,-1000 " fill-rule="evenodd" vector-effect="non-scaling-stroke"/>
   </g>
   <g fill="#f1f3f5" fill-opacity="1" font-family="Noto Sans" font-size="42.3333" font-style="normal" font-weight="400" stroke="none" transform="matrix(1,0,0,1,2096.11,2972.01)">
    <path d="M1417,464.136 C1417,473.525 1409.39,481.136 1400,481.136 C1390.61,481.136 1383,473.525 1383,464.136 C1383,454.747 1390.61,447.136 1400,447.136 C1409.39,447.136 1417,454.747 1417,464.136 " fill-rule="evenodd" vector-effect="non-scaling-stroke"/>
   </g>
   <g fill="#f1f3f5" fill-opacity="1" font-family="Noto Sans" font-size="42.3333" font-style="normal" font-weight="400" stroke="none" transform="matrix(1,0,0,1,2096.11,2972.01)">
    <path d="M-1083,10 C-1083,19.3888 -1090.61,27 -1100,27 C-1109.39,27 -1117,19.3888 -1117,10 C-1117,0.611159 -1109.39,-7 -1100,-7 C-1090.61,-7 -1083,0.611159 -1083,10 " fill-rule="evenodd" vector-effect="non-scaling-stroke"/>
   </g>
   <g fill="#f1f3f5" fill-opacity="1" font-family="Noto Sans" font-size="42.3333" font-style="normal" font-weight="400" stroke="none" transform="matrix(1,0,0,1,2096.11,2972.01)">
    <path d="M517,1020 C517,1029.39 509.389,1037 500,1037 C490.611,1037 483,1029.39 483,1020 C483,1010.61 490.611,1003 500,1003 C509.389,1003 517,1010.61 517,1020 " fill-rule="evenodd" vector-effect="non-scaling-stroke"/>
   </g>
   <g fill="#f1f3f5" fill-opacity="1" font-family="Noto Sans" font-size="42.3333" font-style="normal" font-weight="400" stroke="none" transform="matrix(1,0,0,1,2096.11,2972.01)">
    <path d="M-1403,1020 C-1403,1029.39 -1410.61,1037 -1420,1037 C-1429.39,1037 -1437,1029.39 -1437,1020 C-1437,1010.61 -1429.39,1003 -1420,1003 C-1410.61,1003 -1403,1010.61 -1403,1020 " fill-rule="evenodd" vector-effect="non-scaling-stroke"/>
   </g>
   <g fill="none" font-family="Noto Sans" font-size="42.3333" font-style="normal" font-weight="400" stroke="#000000" stroke-linecap="round" stroke-linejoin="bevel" stroke-opacity="1" stroke-width="7" transform="matrix(1,0,0,1,2096.11,2972.01)">
    <path d="M-1200,-1100 L-1000,-1100" fill-rule="evenodd" vector-effect="none"/>
   </g>
   <g fill="none" font-family="Noto Sans" font-size="42.3333" font-style="normal" font-weight="400" stroke="#000000" stroke-linecap="round" stroke-linejoin="bevel" stroke-opacity="1" stroke-width="7" transform="matrix(1,0,0,1,2096.11,2972.01)">
    <path d="M-1200,-1100 L-1200,800" fill-rule="evenodd" vector-effect="none"/>
   </g>
   <g fill="none" font-family="Noto Sans" font-size="42.3333" font-style="normal" font-weight="400" stroke="#000000" stroke-linecap="round" stroke-linejoin="bevel" stroke-opacity="1" stroke-width="7" transform="matrix(1,0,0,1,2096.11,2972.01)">
    <path d="M-1000,80 L-1000,-1100" fill-rule="evenodd" vector-effect="none"/>
   </g>
   <g fill="none" font-family="Noto Sans" font-size="42.3333" font-style="normal" font-weight="400" stroke="#000000" stroke-linecap="round" stroke-linejoin="bevel" stroke-opacity="1" stroke-width="7" transform="matrix(1,0,0,1,2096.11,2972.01)">
    <path d="M-1200,800 L-1500,800" fill-rule="evenodd" vector-effect="none"/>
   </g>
   <g fill="none" font-family="Noto Sans" font-size="42.3333" font-style="normal" font-weight="400" stroke="#000000" stroke-linecap="round" stroke-linejoin="bevel" stroke-opacity="1" stroke-width="7" transform="matrix(1,0,0,1,2096.11,2972.01)">
    <path d="M-1000,80 C-1000,253.829 -927.026,419.675 -798.866,537.112 C-670.706,654.549 -499.131,712.791 -325.963,697.641 " fill-rule="evenodd" vector-effect="none"/>
   </g>
   <g fill="none" font-family="Noto Sans" font-size="42.3333" font-style="normal" font-weight="400" stroke="#000000" stroke-linecap="round" stroke-linejoin="bevel" stroke-opacity="1" stroke-width="7" transform="matrix(1,0,0,1,2096.11,2972.01)">
    <path d="M-1500,800 L-1500,1100" fill-rule="evenodd" vector-effect="none"/>
   </g>
   <g fill="none" font-family="Noto Sans" font-size="42.3333" font-style="normal" font-weight="400" stroke="#000000" stroke-linecap="round" stroke-linejoin="bevel" stroke-opacity="1" stroke-width="7" transform="matrix(1,0,0,1,2096.11,2972.01)">
    <path d="M-1500,1100 L1500,1100" fill-rule="evenodd" vector-effect="none"/>
   </g>
   <g fill="none" font-family="Noto Sans" font-size="42.3333" font-style="normal" font-weight="400" stroke="#000000" stroke-linecap="round" stroke-linejoin="bevel" stroke-opacity="1" stroke-width="7" transform="matrix(1,0,0,1,2096.11,2972.01)">
    <path d="M-325.963,697.641 L1200,564.136" fill-rule="evenodd" vector-effect="none"/>
   </g>
   <g fill="none" font-family="Noto Sans" font-size="42.3333" font-style="normal" font-weight="400" stroke="#000000" stroke-linecap="round" stroke-linejoin="bevel" stroke-opacity="1" stroke-width="7" transform="matrix(1,0,0,1,2096.11,2972.01)">
    <path d="M1400,264.136 L1200,564.136" fill-rule="evenodd" vector-effect="none"/>
   </g>
   <g fill="none" font-family="Noto Sans" font-size="42.3333" font-style="normal" font-weight="400" stroke="#000000" stroke-linecap="round" stroke-linejoin="bevel" stroke-opacity="1" stroke-width="7" transform="matrix(1,0,0,1,2096.11,2972.01)">
    <path d="M1500,264.136 L1400,264.136" fill-rule="evenodd" vector-effect="none"/>
   </g>
   <g fill="none" font-family="Noto Sans" font-size="42.3333" font-style="normal" font-weight="400" stroke="#000000" stroke-linecap="round" stroke-linejoin="bevel" stroke-opacity="1" stroke-width="7" transform="matrix(1,0,0,1,2096.11,2972.01)">
    <path d="M1500,1100 L1500,264.136" fill-rule="evenodd" vector-effect="none"/>
   </g>
   <g fill="none" font-family="Noto Sans" font-size="42.3333" font-style="normal" font-weight="400" stroke="#000000" stroke-linecap="round" stroke-linejoin="bevel" stroke-opacity="1" stroke-width="7" transform="matrix(1,0,0,1,2096.11,2972.01)">
    <path d="M-1403,1020 C-1403,1029.39 -1410.61,1037 -1420,1037 C-1429.39,1037 -1437,1029.39 -1437,1020 C-1437,1010.61 -1429.39,1003 -1420,1003 C-1410.61,1003 -1403,1010.61 -1403,1020 " fill-rule="evenodd" vector-effect="none"/>
   </g>
   <g fill="none" font-family="Noto Sans" font-size="42.3333" font-style="normal" font-weight="400" stroke="#000000" stroke-linecap="round" stroke-linejoin="bevel" stroke-opacity="1" stroke-width="7" transform="matrix(1,0,0,1,2096.11,2972.01)">
    <path d="M-1263,880 C-1263,889.389 -1270.61,897 -1280,897 C-1289.39,897 -1297,889.389 -1297,880 C-1297,870.611 -1289.39,863 -1280,863 C-1270.61,863 -1263,870.611 -1263,880 " fill-rule="evenodd" vector-effect="none"/>
   </g>
   <g fill="none" font-family="Noto Sans" font-size="42.3333" font-style="normal" font-weight="400" stroke="#000000" stroke-linecap="round" stroke-linejoin="bevel" stroke-opacity="1" stroke-width="7" transform="matrix(1,0,0,1,2096.11,2972.01)">
    <path d="M-1083,1020 C-1083,1029.39 -1090.61,1037 -1100,1037 C-1109.39,1037 -1117,1029.39 -1117,1020 C-1117,1010.61 -1109.39,1003 -1100,1003 C-1090.61,1003 -1083,1010.61 -1083,1020 " fill-rule="evenodd" vector-effect="none"/>
   </g>
   <g fill="none" font-family="Noto Sans" font-size="42.3333" font-style="normal" font-weight="400" stroke="#000000" stroke-linecap="round" stroke-linejoin="bevel" stroke-opacity="1" stroke-width="7" transform="matrix(1,0,0,1,2096.11,2972.01)">
    <path d="M-1083,10 C-1083,19.3888 -1090.61,27 -1100,27 C-1109.39,27 -1117,19.3888 -1117,10 C-1117,0.611159 -1109.39,-7 -1100,-7 C-1090.61,-7 -1083,0.611159 -1083,10 " fill-rule="evenodd" vector-effect="none"/>
   </g>
   <g fill="none" font-family="Noto Sans" font-size="42.3333" font-style="normal" font-weight="400" stroke="#000000" stroke-linecap="round" stroke-linejoin="bevel" stroke-opacity="1" stroke-width="7" transform="matrix(1,0,0,1,2096.11,2972.01)">
    <path d="M-1083,-1000 C-1083,-990.611 -1090.61,-983 -1100,-983 C-1109.39,-983 -1117,-990.611 -1117,-1000 C-1117,-1009.39 -1109.39,-1017 -1100,-1017 C-1090.61,-1017 -1083,-1009.39 -1083,-1000 " fill-rule="evenodd" vector-effect="none"/>
   </g>
   <g fill="none" font-family="Noto Sans" font-size="42.3333" font-style="normal" font-weight="400" stroke="#000000" stroke-linecap="round" stroke-linejoin="bevel" stroke-opacity="1" stroke-width="7" transform="matrix(1,0,0,1,2096.11,2972.01)">
    <path d="M517,1020 C517,1029.39 509.389,1037 500,1037 C490.611,1037 483,1029.39 483,1020 C483,1010.61 490.611,1003 500,1003 C509.389,1003 517,1010.61 517,1020 " fill-rule="evenodd" vector-effect="none"/>
   </g>
   <g fill="none" font-family="Noto Sans" font-size="42.3333" font-style="normal" font-weight="400" stroke="#000000" stroke-linecap="round" stroke-linejoin="bevel" stroke-opacity="1" stroke-width="7" transform="matrix(1,0,0,1,2096.11,2972.01)">
    <path d="M717,1020 C717,1029.39 709.389,1037 700,1037 C690.611,1037 683,1029.39 683,1020 C683,1010.61 690.611,1003 700,1003 C709.389,1003 717,1010.61 717,1020 " fill-rule="evenodd" vector-effect="none"/>
   </g>
   <g fill="none" font-family="Noto Sans" font-size="42.3333" font-style="normal" font-weight="400" stroke="#000000" stroke-linecap="round" stroke-linejoin="bevel" stroke-opacity="1" stroke-width="7" transform="matrix(1,0,0,1,2096.11,2972.01)">
    <path d="M1417,1020 C1417,1029.39 1409.39,1037 1400,1037 C1390.61,1037 1383,1029.39 1383,1020 C1383,1010.61 1390.61,1003 1400,1003 C1409.39,1003 1417,1010.61 1417,1020 " fill-rule="evenodd" vector-effect="none"/>
   </g>
   <g fill="none" font-family="Noto Sans" font-size="42.3333" font-style="normal" font-weight="400" stroke="#000000" stroke-linecap="round" stroke-linejoin="bevel" stroke-opacity="1" stroke-width="7" transform="matrix(1,0,0,1,2096.11,2972.01)">
    <path d="M1417,464.136 C1417,473.525 1409.39,481.136 1400,481.136 C1390.61,481.136 1383,473.525 1383,464.136 C1383,454.747 1390.61,447.136 1400,447.136 C1409.39,447.136 1417,454.747 1417,464.136 " fill-rule="evenodd" vector-effect="none"/>
   </g>
   <g fill="#f1f3f5" fill-opacity="1" font-family="Noto Sans" font-size="42.3333" font-style="normal" font-weight="400" stroke="none" transform="matrix(1,0,0,1,2653.46,2111.22)">
    <path d="M-1200,-1100 L-1000,-1100 L-1000,80 C-1000,253.829 -927.026,419.675 -798.866,537.112 C-670.706,654.549 -499.131,712.791 -325.963,697.641 L1200,564.136 L1400,264.136 L1500,264.136 L1500,1100 L-1500,1100 L-1500,800 L-1200,800 L-1200,-1100" fill-rule="evenodd" vector-effect="non-scaling-stroke"/>
   </g>
   <g fill="#f1f3f5" fill-opacity="1" font-family="Noto Sans" font-size="42.3333" font-style="normal" font-weight="400" stroke="none" transform="matrix(1,0,0,1,2653.46,2111.22)">
    <path d="M-1083,1020 C-1083,1029.39 -1090.61,1037 -1100,1037 C-1109.39,1037 -1117,1029.39 -1117,1020 C-1117,1010.61 -1109.39,1003 -1100,1003 C-1090.61,1003 -1083,1010.61 -1083,1020 " fill-rule="evenodd" vector-effect="non-scaling-stroke"/>
   </g>
   <g fill="#f1f3f5" fill-opacity="1" font-family="Noto Sans" font-size="42.3333" font-style="normal" font-weight="400" stroke="none" transform="matrix(1,0,0,1,2653.46,2111.22)">
    <path d="M-1263,880 C-1263,889.389 -1270.61,897 -1280,897 C-1289.39,897 -1297,889.389 -1297,880 C-1297,870.611 -1289.39,863 -1280,863 C-1270.61,863 -1263,870.611 -1263,880 " fill-rule="evenodd" vector-effect="non-scaling-stroke"/>
   </g>
   <g fill="#f1f3f5" fill-opacity="1" font-family="Noto Sans" font-size="42.3333" font-style="normal" font-weight="400" stroke="none" transform="matrix(1,0,0,1,2653.46,2111.22)">
    <path d="M1417,1020 C1417,1029.39 1409.39,1037 1400,1037 C1390.61,1037 1383,1029.39 1383,1020 C1383,1010.61 1390.61,1003 1400,1003 C1409.39,1003 1417,1010.61 1417,1020 " fill-rule="evenodd" vector-effect="non-scaling-stroke"/>
   </g>
   <g fill="#f1f3f5" fill-opacity="1" font-family="Noto Sans" font-size="42.3333" font-style="normal" font-weight="400" stroke="none" transform="matrix(1,0,0,1,2653.46,2111.22)">
    <path d="M717,1020 C717,1029.39 709.389,1037 700,1037 C690.611,1037 683,1029.39 683,1020 C683,1010.61 690.611,1003 700,1003 C709.389,1003 717,1010.61 717,1020 " fill-rule="evenodd" vector-effect="non-scaling-stroke"/>
   </g>
   <g fill="#f1f3f5" fill-opacity="1" font-family="Noto Sans" font-size="42.3333" font-style="normal" font-weight="400" stroke="none" transform="matrix(1,0,0,1,2653.46,2111.22)">
    <path d="M-1083,-1000 C-1083,-990.611 -1090.61,-983 -1100,-983 C-1109.39,-983 -1117,-990.611 -1117,-1000 C-1117,-1009.39 -1109.39,-1017 -1100,-1017 C-1090.61,-1017 -1083,-1009.39 -1083,-1000 " fill-rule="evenodd" vector-effect="non-scaling-stroke"/>
   </g>
   <g fill="#f1f3f5" fill-opacity="1" font-family="Noto Sans" font-size="42.3333" font-style="normal" font-weight="400" stroke="none" transform="matrix(1,0,0,1,2653.46,2111.22)">
    <path d="M1417,464.136 C1417,473.525 1409.39,481.136 1400,481.136 C1390.61,481.136 1383,473.525 1383,464.136 C1383,454.747 1390.61,447.136 1400,447.136 C1409.39,447.136 1417,454.747 1417,464.136 " fill-rule="evenodd" vector-effect="non-scaling-stroke"/>
   </g>
   <g fill="#f1f3f5" fill-opacity="1" font-family="Noto Sans" font-size="42.3333" font-style="normal" font-weight="400" stroke="none" transform="matrix(1,0,0,1,2653.46,2111.22)">
    <path d="M-1083,10 C-1083,19.3888 -1090.61,27 -1100,27 C-1109.39,27 -1117,19.3888 -1117,10 C-1117,0.611159 -1109.39,-7 -1100,-7 C-1090.61,-7 -1083,0.611159 -1083,10 " fill-rule="evenodd" vector-effect="non-scaling-stroke"/>
   </g>
   <g fill="#f1f3f5" fill-opacity="1" font-family="Noto Sans" font-size="42.3333" font-style="normal" font-weight="400" stroke="none" transform="matrix(1,0,0,1,2653.46,2111.22)">
    <path d="M517,1020 C517,1029.39 509.389,1037 500,1037 C490.611,1037 483,1029.39 483,1020 C483,1010.61 490.611,1003 500,1003 C509.389,1003 517,1010.61 517,1020 " fill-rule="evenodd" vector-effect="non-scaling-stroke"/>
   </g>
   <g fill="#f1f3f5" fill-opacity="1" font-family="Noto Sans" font-size="42.3333" font-style="normal" font-weight="400" stroke="none" transform="matrix(1,0,0,1,2653.46,2111.22)">
    <path d="M-1403,1020 C-1403,1029.39 -1410.61,1037 -1420,1037 C-1429.39,1037 -1437,1029.39 -1437,1020 C-1437,1010.61 -1429.39,1003 -1420,1003 C-1410.61,1003 -1403,1010.61 -1403,1020 " fill-rule="evenodd" vector-effect="non-scaling-stroke"/>
   </g>
   <g fill="none" font-family="Noto Sans" font-size="42.3333" font-style="normal" font-weight="400" stroke="#000000" stroke-linecap="round" stroke-linejoin="bevel" stroke-opacity="1" stroke-width="7" transform="matrix(1,0,0,1,2653.46,2111.22)">
    <path d="M-1200,-1100 L-1000,-1100" fill-rule="evenodd" vector-effect="none"/>
   </g>
   <g fill="none" font-family="Noto Sans" font-size="42.3333" font-style="normal" font-weight="400" stroke="#000000" stroke-linecap="round" stroke-linejoin="bevel" stroke-opacity="1" stroke-width="7" transform="matrix(1,0,0,1,2653.46,2111.22)">
    <path d="M-1200,-1100 L-1200,800" fill-rule="evenodd" vector-effect="none"/>
   </g>
   <g fill="none" font-family="Noto Sans" font-size="42.3333" font-style="normal" font-weight="400" stroke="#000000" stroke-linecap="round" stroke-linejoin="bevel" stroke-opacity="1" stroke-width="7" transform="matrix(1,0,0,1,2653.46,2111.22)">
    <path d="M-1000,80 L-1000,-1100" fill-rule="evenodd" vector-effect="none"/>
   </g>
   <g fill="none" font-family="Noto Sans" font-size="42.3333" font-style="normal" font-weight="400" stroke="#000000" stroke-linecap="round" stroke-linejoin="bevel" stroke-opacity="1" stroke-width="7" transform="matrix(1,0,0,1,2653.46,2111.22)">
    <path d="M-1200,800 L-1500,800" fill-rule="evenodd" vector-effect="none"/>
   </g>
   <g fill="none" font-family="Noto Sans" font-size="42.3333" font-style="normal" font-weight="400" stroke="#000000" stroke-linecap="round" stroke-linejoin="bevel" stroke-opacity="1" stroke-width="7" transform="matrix(1,0,0,1,2653.46,2111.22)">
    <path d="M-1000,80 C-1000,253.829 -927.026,419.675 -798.866,537.112 C-670.706,654.549 -499.131,712.791 -325.963,697.641 " fill-rule="evenodd" vector-effect="none"/>
   </g>
   <g fill="none" font-family="Noto Sans" font-size="42.3333" font-style="normal" font-weight="400" stroke="#000000" stroke-linecap="round" stroke-linejoin="bevel" stroke-opacity="1" stroke-width="7" transform="matrix(1,0,0,1,2653.46,2111.22)">
    <path d="M-1500,800 L-1500,1100" fill-rule="evenodd" vector-effect="none"/>
   </g>
   <g fill="none" font-family="Noto Sans" font-size="42.3333" font-style="normal" font-weight="400" stroke="#000000" stroke-linecap="round" stroke-linejoin="bevel" stroke-opacity="1" stroke-width="7" transform="matrix(1,0,0,1,2653.46,2111.22)">
    <path d="M-1500,1100 L1500,1100" fill-rule="evenodd" vector-effect="none"/>
   </g>
   <g fill="none" font-family="Noto Sans" font-size="42.3333" font-style="normal" font-weight="400" stroke="#000000" stroke-linecap="round" stroke-linejoin="bevel" stroke-opacity="1" stroke-width="7" transform="matrix(1,0,0,1,2653.46,2111.22)">
    <path d="M-325.963,697.641 L1200,564.136" fill-rule="evenodd" vector-effect="none"/>
   </g>
   <g fill="none" font-family="Noto Sans" font-size="42.3333" font-style="normal" font-weight="400" stroke="#000000" stroke-linecap="round" stroke-linejoin="bevel" stroke-opacity="1" stroke-width="7" transform="matrix(1,0,0,1,2653.46,2111.22)">
    <path d="M1400,264.136 L1200,564.136" fill-rule="evenodd" vector-effect="none"/>
   </g>
   <g fill="none" font-family="Noto Sans" font-size="42.3333" font-style="normal" font-weight="400" stroke="#000000" stroke-linecap="round" stroke-linejoin="bevel" stroke-opacity="1" stroke-width="7" transform="matrix(1,0,0,1,2653.46,2111.22)">
    <path d="M1500,264.136 L1400,264.136" fill-rule="evenodd" vector-effect="none"/>
   </g>
   <g fill="none" font-family="Noto Sans" font-size="42.3333" font-style="normal" font-weight="400" stroke="#000000" stroke-linecap="round" stroke-linejoin="bevel" stroke-opacity="1" stroke-width="7" transform="matrix(1,0,0,1,2653.46,2111.22)">
    <path d="M1500,1100 L1500,264.136" fill-rule="evenodd" vector-effect="none"/>
   </g>
   <g fill="none" font-family="Noto Sans" font-size="42.3333" font-style="normal" font-weight="400" stroke="#000000" stroke-linecap="round" stroke-linejoin="bevel" stroke-opacity="1" stroke-width="7" transform="matrix(1,0,0,1,2653.46,2111.22)">
    <path d="M-1403,1020 C-1403,1029.39 -1410.61,1037 -1420,1037 C-1429.39,1037 -1437,1029.39 -1437,1020 C-1437,1010.61 -1429.39,1003 -1420,1003 C-1410.61,1003 -1403,1010.61 -1403,1020 " fill-rule="evenodd" vector-effect="none"/>
   </g>
   <g fill="none" font-family="Noto Sans" font-size="42.3333" font-style="normal" font-weight="400" stroke="#000000" stroke-linecap="round" stroke-linejoin="bevel" stroke-opacity="1" stroke-width="7" transform="matrix(1,0,0,1,2653.46,2111.22)">
    <path d="M-1263,880 C-1263,889.389 -1270.61,897 -1280,897 C-1289.39,897 -1297,889.389 -1297,880 C-1297,870.611 -1289.39,863 -1280,863 C-1270.61,863 -1263,870.611 -1263,880 " fill-rule="evenodd" vector-effect="none"/>
   </g>
   <g fill="none" font-family="Noto Sans" font-size="42.3333" font-style="normal" font-weight="400" stroke="#000000" stroke-linecap="round" stroke-linejoin="bevel" stroke-opacity="1" stroke-width="7" transform="matrix(1,0,0,1,2653.46,2111.22)">
    <path d="M-1083,1020 C-1083,1029.39 -1090.61,1037 -1100,1037 C-1109.39,1037 -1117,1029.39 -1117,1020 C-1117,1010.61 -1109.39,1003 -1100,1003 C-1090.61,1003 -1083,1010.61 -1083,1020 " fill-rule="evenodd" vector-effect="none"/>
   </g>
   <g fill="none" font-family="Noto Sans" font-size="42.3333" font-style="normal" font-weight="400" stroke="#000000" stroke-linecap="round" stroke-linejoin="bevel" stroke-opacity="1" stroke-width="7" transform="matrix(1,0,0,1,2653.46,2111.22)">
    <path d="M-1083,10 C-1083,19.3888 -1090.61,27 -1100,27 C-1109.39,27 -1117,19.3888 -1117,10 C-1117,0.611159 -1109.39,-7 -1100,-7 C-1090.61,-7 -1083,0.611159 -1083,10 " fill-rule="evenodd" vector-effect="none"/>
   </g>
   <g fill="none" font-family="Noto Sans" font-size="42.3333" font-style="normal" font-weight="400" stroke="#000000" stroke-linecap="round" stroke-linejoin="bevel" stroke-opacity="1" stroke-width="7" transform="matrix(1,0,0,1,2653.46,2111.22)">
    <path d="M-1083,-1000 C-1083,-990.611 -1090.61,-983 -1100,-983 C-1109.39,-983 -1117,-990.611 -1117,-1000 C-1117,-1009.39 -1109.39,-1017 -1100,-1017 C-1090.61,-1017 -1083,-1009.39 -1083,-1000 " fill-rule="evenodd" vector-effect="none"/>
   </g>
   <g fill="none" font-family="Noto Sans" font-size="42.3333" font-style="normal" font-weight="400" stroke="#000000" stroke-linecap="round" stroke-linejoin="bevel" stroke-opacity="1" stroke-width="7" transform="matrix(1,0,0,1,2653.46,2111.22)">
    <path d="M517,1020 C517,1029.39 509.389,1037 500,1037 C490.611,1037 483,1029.39 483,1020 C483,1010.61 490.611,1003 500,1003 C509.389,1003 517,1010.61 517,1020 " fill-rule="evenodd" vector-effect="none"/>
   </g>
   <g fill="none" font-family="Noto Sans" font-size="42.3333" font-style="normal" font-weight="400" stroke="#000000" stroke-linecap="round" stroke-linejoin="bevel" stroke-opacity="1" stroke-width="7" transform="matrix(1,0,0,1,2653.46,2111.22)">
    <path d="M717,1020 C717,1029.39 709.389,1037 700,1037 C690.611,1037 683,1029.39 683,1020 C683,1010.61 690.611,1003 700,1003 C709.389,1003 717,1010.61 717,1020 " fill-rule="evenodd" vector-effect="none"/>
   </g>
   <g fill="none" font-family="Noto Sans" font-size="42.3333" font-style="normal" font-weight="400" stroke="#000000" stroke-linecap="round" stroke-linejoin="bevel" stroke-opacity="1" stroke-width="7" transform="matrix(1,0,0,1,2653.46,2111.22)">
    <path d="M1417,1020 C1417,1029.39 1409.39,1037 1400,1037 C1390.61,1037 1383,1029.39 1383,1020 C1383,1010.61 1390.61,1003 1400,1003 C1409.39,1003 1417,1010.61 1417,1020 " fill-rule="evenodd" vector-effect="none"/>
   </g>
   <g fill="none" font-family="Noto Sans" font-size="42.3333" font-style="normal" font-weight="400" stroke="#000000" stroke-linecap="round" stroke-linejoin="bevel" stroke-opacity="1" stroke-width="7" transform="matrix(1,0,0,1,2653.46,2111.22)">
    <path d="M1417,464.136 C1417,473.525 1409.39,481.136 1400,481.136 C1390.61,481.136 1383,473.525 1383,464.136 C1383,454.747 1390.61,447.136 1400,447.136 C1409.39,447.136 1417,454.747 1417,464.136 " fill-rule="evenodd" vector-effect="none"/>
   </g>
   <g fill="#f1f3f5" fill-opacity="1" font-family="Noto Sans" font-size="42.3333" font-style="normal" font-weight="400" stroke="none" transform="matrix(1,0,0,1,1544.36,3772.41)">
    <path d="M-1200,-1180 L-1200,880 L-1500,880 L-1500,1180 L1500,1180 L1500,344.136 L1400,344.136 L1200,644.136 L-325.963,777.641 C-499.131,792.791 -670.706,734.549 -798.866,617.112 C-927.026,499.675 -1000,333.829 -1000,160 L-1000,-1020 L-1120,-1020 L-1120,-1060 L-1060,-1060 L-1060,-1180 L-1200,-1180" fill-rule="evenodd" vector-effect="non-scaling-stroke"/>
   </g>
   <g fill="#f1f3f5" fill-opacity="1" font-family="Noto Sans" font-size="42.3333" font-style="normal" font-weight="400" stroke="none" transform="matrix(1,0,0,1,1544.36,3772.41)">
    <path d="M-1100,1140.41 L-1065,1120.21 L-1065,1079.79 L-1100,1059.59 L-1135,1079.79 L-1135,1120.21 L-1100,1140.41" fill-rule="evenodd" vector-effect="non-scaling-stroke"/>
   </g>
   <g fill="#f1f3f5" fill-opacity="1" font-family="Noto Sans" font-size="42.3333" font-style="normal" font-weight="400" stroke="none" transform="matrix(1,0,0,1,1544.36,3772.41)">
    <path d="M-1100,130.415 L-1065,110.207 L-1065,69.7927 L-1100,49.5855 L-1135,69.7927 L-1135,110.207 L-1100,130.415" fill-rule="evenodd" vector-effect="non-scaling-stroke"/>
   </g>
   <g fill="#f1f3f5" fill-opacity="1" font-family="Noto Sans" font-size="42.3333" font-style="normal" font-weight="400" stroke="none" transform="matrix(1,0,0,1,1544.36,3772.41)">
    <path d="M-1100,-879.585 L-1065,-899.793 L-1065,-940.207 L-1100,-960.415 L-1135,-940.207 L-1135,-899.793 L-1100,-879.585" fill-rule="evenodd" vector-effect="non-scaling-stroke"/>
   </g>
   <g fill="#f1f3f5" fill-opacity="1" font-family="Noto Sans" font-size="42.3333" font-style="normal" font-weight="400" stroke="none" transform="matrix(1,0,0,1,1544.36,3772.41)">
    <path d="M500,1140.41 L535,1120.21 L535,1079.79 L500,1059.59 L465,1079.79 L465,1120.21 L500,1140.41" fill-rule="evenodd" vector-effect="non-scaling-stroke"/>
   </g>
   <g fill="#f1f3f5" fill-opacity="1" font-family="Noto Sans" font-size="42.3333" font-style="normal" font-weight="400" stroke="none" transform="matrix(1,0,0,1,1544.36,3772.41)">
    <path d="M-1403,1100 C-1403,1109.39 -1410.61,1117 -1420,1117 C-1429.39,1117 -1437,1109.39 -1437,1100 C-1437,1090.61 -1429.39,1083 -1420,1083 C-1410.61,1083 -1403,1090.61 -1403,1100 " fill-rule="evenodd" vector-effect="non-scaling-stroke"/>
   </g>
   <g fill="#f1f3f5" fill-opacity="1" font-family="Noto Sans" font-size="42.3333" font-style="normal" font-weight="400" stroke="none" transform="matrix(1,0,0,1,1544.36,3772.41)">
    <path d="M1417,1100 C1417,1109.39 1409.39,1117 1400,1117 C1390.61,1117 1383,1109.39 1383,1100 C1383,1090.61 1390.61,1083 1400,1083 C1409.39,1083 1417,1090.61 1417,1100 " fill-rule="evenodd" vector-effect="non-scaling-stroke"/>
   </g>
   <g fill="#f1f3f5" fill-opacity="1" font-family="Noto Sans" font-size="42.3333" font-style="normal" font-weight="400" stroke="none" transform="matrix(1,0,0,1,1544.36,3772.41)">
    <path d="M717,1100 C717,1109.39 709.389,1117 700,1117 C690.611,1117 683,1109.39 683,1100 C683,1090.61 690.611,1083 700,1083 C709.389,1083 717,1090.61 717,1100 " fill-rule="evenodd" vector-effect="non-scaling-stroke"/>
   </g>
   <g fill="#f1f3f5" fill-opacity="1" font-family="Noto Sans" font-size="42.3333" font-style="normal" font-weight="400" stroke="none" transform="matrix(1,0,0,1,1544.36,3772.41)">
    <path d="M1417,544.136 C1417,553.525 1409.39,561.136 1400,561.136 C1390.61,561.136 1383,553.525 1383,544.136 C1383,534.747 1390.61,527.136 1400,527.136 C1409.39,527.136 1417,534.747 1417,544.136 " fill-rule="evenodd" vector-effect="non-scaling-stroke"/>
   </g>
   <g fill="#f1f3f5" fill-opacity="1" font-family="Noto Sans" font-size="42.3333" font-style="normal" font-weight="400" stroke="none" transform="matrix(1,0,0,1,1544.36,3772.41)">
    <path d="M-1263,960 C-1263,969.389 -1270.61,977 -1280,977 C-1289.39,977 -1297,969.389 -1297,960 C-1297,950.611 -1289.39,943 -1280,943 C-1270.61,943 -1263,950.611 -1263,960 " fill-rule="evenodd" vector-effect="non-scaling-stroke"/>
   </g>
   <g fill="none" font-family="Noto Sans" font-size="42.3333" font-style="normal" font-weight="400" stroke="#000000" stroke-linecap="round" stroke-linejoin="bevel" stroke-opacity="1" stroke-width="7" transform="matrix(1,0,0,1,1544.36,3772.41)">
    <path d="M-1200,880 L-1500,880" fill-rule="evenodd" vector-effect="none"/>
   </g>
   <g fill="none" font-family="Noto Sans" font-size="42.3333" font-style="normal" font-weight="400" stroke="#000000" stroke-linecap="round" stroke-linejoin="bevel" stroke-opacity="1" stroke-width="7" transform="matrix(1,0,0,1,1544.36,3772.41)">
    <path d="M-1500,880 L-1500,1180" fill-rule="evenodd" vector-effect="none"/>
   </g>
   <g fill="none" font-family="Noto Sans" font-size="42.3333" font-style="normal" font-weight="400" stroke="#000000" stroke-linecap="round" stroke-linejoin="bevel" stroke-opacity="1" stroke-width="7" transform="matrix(1,0,0,1,1544.36,3772.41)">
    <path d="M-1500,1180 L1500,1180" fill-rule="evenodd" vector-effect="none"/>
   </g>
   <g fill="none" font-family="Noto Sans" font-size="42.3333" font-style="normal" font-weight="400" stroke="#000000" stroke-linecap="round" stroke-linejoin="bevel" stroke-opacity="1" stroke-width="7" transform="matrix(1,0,0,1,1544.36,3772.41)">
    <path d="M1500,1180 L1500,344.136" fill-rule="evenodd" vector-effect="none"/>
   </g>
   <g fill="none" font-family="Noto Sans" font-size="42.3333" font-style="normal" font-weight="400" stroke="#000000" stroke-linecap="round" stroke-linejoin="bevel" stroke-opacity="1" stroke-width="7" transform="matrix(1,0,0,1,1544.36,3772.41)">
    <path d="M1500,344.136 L1400,344.136" fill-rule="evenodd" vector-effect="none"/>
   </g>
   <g fill="none" font-family="Noto Sans" font-size="42.3333" font-style="normal" font-weight="400" stroke="#000000" stroke-linecap="round" stroke-linejoin="bevel" stroke-opacity="1" stroke-width="7" transform="matrix(1,0,0,1,1544.36,3772.41)">
    <path d="M1400,344.136 L1200,644.136" fill-rule="evenodd" vector-effect="none"/>
   </g>
   <g fill="none" font-family="Noto Sans" font-size="42.3333" font-style="normal" font-weight="400" stroke="#000000" stroke-linecap="round" stroke-linejoin="bevel" stroke-opacity="1" stroke-width="7" transform="matrix(1,0,0,1,1544.36,3772.41)">
    <path d="M-325.963,777.641 L1200,644.136" fill-rule="evenodd" vector-effect="none"/>
   </g>
   <g fill="none" font-family="Noto Sans" font-size="42.3333" font-style="normal" font-weight="400" stroke="#000000" stroke-linecap="round" stroke-linejoin="bevel" stroke-opacity="1" stroke-width="7" transform="matrix(1,0,0,1,1544.36,3772.41)">
    <path d="M-1000,160 C-1000,333.829 -927.026,499.675 -798.866,617.112 C-670.706,734.549 -499.131,792.791 -325.963,777.641 " fill-rule="evenodd" vector-effect="none"/>
   </g>
   <g fill="none" font-family="Noto Sans" font-size="42.3333" font-style="normal" font-weight="400" stroke="#000000" stroke-linecap="round" stroke-linejoin="bevel" stroke-opacity="1" stroke-width="7" transform="matrix(1,0,0,1,1544.36,3772.41)">
    <path d="M-1000,160 L-1000,-1020" fill-rule="evenodd" vector-effect="none"/>
   </g>
   <g fill="none" font-family="Noto Sans" font-size="42.3333" font-style="normal" font-weight="400" stroke="#000000" stroke-linecap="round" stroke-linejoin="bevel" stroke-opacity="1" stroke-width="7" transform="matrix(1,0,0,1,1544.36,3772.41)">
    <path d="M-1120,-1020 L-1000,-1020" fill-rule="evenodd" vector-effect="none"/>
   </g>
   <g fill="none" font-family="Noto Sans" font-size="42.3333" font-style="normal" font-weight="400" stroke="#000000" stroke-linecap="round" stroke-linejoin="bevel" stroke-opacity="1" stroke-width="7" transform="matrix(1,0,0,1,1544.36,3772.41)">
    <path d="M-1120,-1060 L-1120,-1020" fill-rule="evenodd" vector-effect="none"/>
   </g>
   <g fill="none" font-family="Noto Sans" font-size="42.3333" font-style="normal" font-weight="400" stroke="#000000" stroke-linecap="round" stroke-linejoin="bevel" stroke-opacity="1" stroke-width="7" transform="matrix(1,0,0,1,1544.36,3772.41)">
    <path d="M-1060,-1060 L-1120,-1060" fill-rule="evenodd" vector-effect="none"/>
   </g>
   <g fill="none" font-family="Noto Sans" font-size="42.3333" font-style="normal" font-weight="400" stroke="#000000" stroke-linecap="round" stroke-linejoin="bevel" stroke-opacity="1" stroke-width="7" transform="matrix(1,0,0,1,1544.36,3772.41)">
    <path d="M-1060,-1180 L-1060,-1060" fill-rule="evenodd" vector-effect="none"/>
   </g>
   <g fill="none" font-family="Noto Sans" font-size="42.3333" font-style="normal" font-weight="400" stroke="#000000" stroke-linecap="round" stroke-linejoin="bevel" stroke-opacity="1" stroke-width="7" transform="matrix(1,0,0,1,1544.36,3772.41)">
    <path d="M-1200,-1180 L-1060,-1180" fill-rule="evenodd" vector-effect="none"/>
   </g>
   <g fill="none" font-family="Noto Sans" font-size="42.3333" font-style="normal" font-weight="400" stroke="#000000" stroke-linecap="round" stroke-linejoin="bevel" stroke-opacity="1" stroke-width="7" transform="matrix(1,0,0,1,1544.36,3772.41)">
    <path d="M-1100,1140.41 L-1065,1120.21" fill-rule="evenodd" vector-effect="none"/>
   </g>
   <g fill="none" font-family="Noto Sans" font-size="42.3333" font-style="normal" font-weight="400" stroke="#000000" stroke-linecap="round" stroke-linejoin="bevel" stroke-opacity="1" stroke-width="7" transform="matrix(1,0,0,1,1544.36,3772.41)">
    <path d="M-1135,1120.21 L-1100,1140.41" fill-rule="evenodd" vector-effect="none"/>
   </g>
   <g fill="none" font-family="Noto Sans" font-size="42.3333" font-style="normal" font-weight="400" stroke="#000000" stroke-linecap="round" stroke-linejoin="bevel" stroke-opacity="1" stroke-width="7" transform="matrix(1,0,0,1,1544.36,3772.41)">
    <path d="M-1065,1120.21 L-1065,1079.79" fill-rule="evenodd" vector-effect="none"/>
   </g>
   <g fill="none" font-family="Noto Sans" font-size="42.3333" font-style="normal" font-weight="400" stroke="#000000" stroke-linecap="round" stroke-linejoin="bevel" stroke-opacity="1" stroke-width="7" transform="matrix(1,0,0,1,1544.36,3772.41)">
    <path d="M-1135,1079.79 L-1135,1120.21" fill-rule="evenodd" vector-effect="none"/>
   </g>
   <g fill="none" font-family="Noto Sans" font-size="42.3333" font-style="normal" font-weight="400" stroke="#000000" stroke-linecap="round" stroke-linejoin="bevel" stroke-opacity="1" stroke-width="7" transform="matrix(1,0,0,1,1544.36,3772.41)">
    <path d="M-1065,1079.79 L-1100,1059.59" fill-rule="evenodd" vector-effect="none"/>
   </g>
   <g fill="none" font-family="Noto Sans" font-size="42.3333" font-style="normal" font-weight="400" stroke="#000000" stroke-linecap="round" stroke-linejoin="bevel" stroke-opacity="1" stroke-width="7" transform="matrix(1,0,0,1,1544.36,3772.41)">
    <path d="M-1100,1059.59 L-1135,1079.79" fill-rule="evenodd" vector-effect="none"/>
   </g>
   <g fill="none" font-family="Noto Sans" font-size="42.3333" font-style="normal" font-weight="400" stroke="#000000" stroke-linecap="round" stroke-linejoin="bevel" stroke-opacity="1" stroke-width="7" transform="matrix(1,0,0,1,1544.36,3772.41)">
    <path d="M500,1140.41 L535,1120.21" fill-rule="evenodd" vector-effect="none"/>
   </g>
   <g fill="none" font-family="Noto Sans" font-size="42.3333" font-style="normal" font-weight="400" stroke="#000000" stroke-linecap="round" stroke-linejoin="bevel" stroke-opacity="1" stroke-width="7" transform="matrix(1,0,0,1,1544.36,3772.41)">
    <path d="M465,1120.21 L500,1140.41" fill-rule="evenodd" vector-effect="none"/>
   </g>
   <g fill="none" font-family="Noto Sans" font-size="42.3333" font-style="normal" font-weight="400" stroke="#000000" stroke-linecap="round" stroke-linejoin="bevel" stroke-opacity="1" stroke-width="7" transform="matrix(1,0,0,1,1544.36,3772.41)">
    <path d="M535,1120.21 L535,1079.79" fill-rule="evenodd" vector-effect="none"/>
   </g>
   <g fill="none" font-family="Noto Sans" font-size="42.3333" font-style="normal" font-weight="400" stroke="#000000" stroke-linecap="round" stroke-linejoin="bevel" stroke-opacity="1" stroke-width="7" transform="matrix(1,0,0,1,1544.36,3772.41)">
    <path d="M465,1079.79 L465,1120.21" fill-rule="evenodd" vector-effect="none"/>
   </g>
   <g fill="none" font-family="Noto Sans" font-size="42.3333" font-style="normal" font-weight="400" stroke="#000000" stroke-linecap="round" stroke-linejoin="bevel" stroke-opacity="1" stroke-width="7" transform="matrix(1,0,0,1,1544.36,3772.41)">
    <path d="M535,1079.79 L500,1059.59" fill-rule="evenodd" vector-effect="none"/>
   </g>
   <g fill="none" font-family="Noto Sans" font-size="42.3333" font-style="normal" font-weight="400" stroke="#000000" stroke-linecap="round" stroke-linejoin="bevel" stroke-opacity="1" stroke-width="7" transform="matrix(1,0,0,1,1544.36,3772.41)">
    <path d="M500,1059.59 L465,1079.79" fill-rule="evenodd" vector-effect="none"/>
   </g>
   <g fill="none" font-family="Noto Sans" font-size="42.3333" font-style="normal" font-weight="400" stroke="#000000" stroke-linecap="round" stroke-linejoin="bevel" stroke-opacity="1" stroke-width="7" transform="matrix(1,0,0,1,1544.36,3772.41)">
    <path d="M-1100,-879.585 L-1065,-899.793" fill-rule="evenodd" vector-effect="none"/>
   </g>
   <g fill="none" font-family="Noto Sans" font-size="42.3333" font-style="normal" font-weight="400" stroke="#000000" stroke-linecap="round" stroke-linejoin="bevel" stroke-opacity="1" stroke-width="7" transform="matrix(1,0,0,1,1544.36,3772.41)">
    <path d="M-1135,-899.793 L-1100,-879.585" fill-rule="evenodd" vector-effect="none"/>
   </g>
   <g fill="none" font-family="Noto Sans" font-size="42.3333" font-style="normal" font-weight="400" stroke="#000000" stroke-linecap="round" stroke-linejoin="bevel" stroke-opacity="1" stroke-width="7" transform="matrix(1,0,0,1,1544.36,3772.41)">
    <path d="M-1065,-899.793 L-1065,-940.207" fill-rule="evenodd" vector-effect="none"/>
   </g>
   <g fill="none" font-family="Noto Sans" font-size="42.3333" font-style="normal" font-weight="400" stroke="#000000" stroke-linecap="round" stroke-linejoin="bevel" stroke-opacity="1" stroke-width="7" transform="matrix(1,0,0,1,1544.36,3772.41)">
    <path d="M-1135,-940.207 L-1135,-899.793" fill-rule="evenodd" vector-effect="none"/>
   </g>
   <g fill="none" font-family="Noto Sans" font-size="42.3333" font-style="normal" font-weight="400" stroke="#000000" stroke-linecap="round" stroke-linejoin="bevel" stroke-opacity="1" stroke-width="7" transform="matrix(1,0,0,1,1544.36,3772.41)">
    <path d="M-1065,-940.207 L-1100,-960.415" fill-rule="evenodd" vector-effect="none"/>
   </g>
   <g fill="none" font-family="Noto Sans" font-size="42.3333" font-style="normal" font-weight="400" stroke="#000000" stroke-linecap="round" stroke-linejoin="bevel" stroke-opacity="1" stroke-width="7" transform="matrix(1,0,0,1,1544.36,3772.41)">
    <path d="M-1100,-960.415 L-1135,-940.207" fill-rule="evenodd" vector-effect="none"/>
   </g>
   <g fill="none" font-family="Noto Sans" font-size="42.3333" font-style="normal" font-weight="400" stroke="#000000" stroke-linecap="round" stroke-linejoin="bevel" stroke-opacity="1" stroke-width="7" transform="matrix(1,0,0,1,1544.36,3772.41)">
    <path d="M-1100,130.415 L-1065,110.207" fill-rule="evenodd" vector-effect="none"/>
   </g>
   <g fill="none" font-family="Noto Sans" font-size="42.3333" font-style="normal" font-weight="400" stroke="#000000" stroke-linecap="round" stroke-linejoin="bevel" stroke-opacity="1" stroke-width="7" transform="matrix(1,0,0,1,1544.36,3772.41)">
    <path d="M-1135,110.207 L-1100,130.415" fill-rule="evenodd" vector-effect="none"/>
   </g>
   <g fill="none" font-family="Noto Sans" font-size="42.3333" font-style="normal" font-weight="400" stroke="#000000" stroke-linecap="round" stroke-linejoin="bevel" stroke-opacity="1" stroke-width="7" transform="matrix(1,0,0,1,1544.36,3772.41)">
    <path d="M-1065,110.207 L-1065,69.7927" fill-rule="evenodd" vector-effect="none"/>
   </g>
   <g fill="none" font-family="Noto Sans" font-size="42.3333" font-style="normal" font-weight="400" stroke="#000000" stroke-linecap="round" stroke-linejoin="bevel" stroke-opacity="1" stroke-width="7" transform="matrix(1,0,0,1,1544.36,3772.41)">
    <path d="M-1135,69.7927 L-1135,110.207" fill-rule="evenodd" vector-effect="none"/>
   </g>
   <g fill="none" font-family="Noto Sans" font-size="42.3333" font-style="normal" font-weight="400" stroke="#000000" stroke-linecap="round" stroke-linejoin="bevel" stroke-opacity="1" stroke-width="7" transform="matrix(1,0,0,1,1544.36,3772.41)">
    <path d="M-1065,69.7927 L-1100,49.5855" fill-rule="evenodd" vector-effect="none"/>
   </g>
   <g fill="none" font-family="Noto Sans" font-size="42.3333" font-style="normal" font-weight="400" stroke="#000000" stroke-linecap="round" stroke-linejoin="bevel" stroke-opacity="1" stroke-width="7" transform="matrix(1,0,0,1,1544.36,3772.41)">
    <path d="M-1100,49.5855 L-1135,69.7927" fill-rule="evenodd" vector-effect="none"/>
   </g>
   <g fill="none" font-family="Noto Sans" font-size="42.3333" font-style="normal" font-weight="400" stroke="#000000" stroke-linecap="round" stroke-linejoin="bevel" stroke-opacity="1" stroke-width="7" transform="matrix(1,0,0,1,1544.36,3772.41)">
    <path d="M-1403,1100 C-1403,1109.39 -1410.61,1117 -1420,1117 C-1429.39,1117 -1437,1109.39 -1437,1100 C-1437,1090.61 -1429.39,1083 -1420,1083 C-1410.61,1083 -1403,1090.61 -1403,1100 " fill-rule="evenodd" vector-effect="none"/>
   </g>
   <g fill="none" font-family="Noto Sans" font-size="42.3333" font-style="normal" font-weight="400" stroke="#000000" stroke-linecap="round" stroke-linejoin="bevel" stroke-opacity="1" stroke-width="7" transform="matrix(1,0,0,1,1544.36,3772.41)">
    <path d="M-1263,960 C-1263,969.389 -1270.61,977 -1280,977 C-1289.39,977 -1297,969.389 -1297,960 C-1297,950.611 -1289.39,943 -1280,943 C-1270.61,943 -1263,950.611 -1263,960 " fill-rule="evenodd" vector-effect="none"/>
   </g>
   <g fill="none" font-family="Noto Sans" font-size="42.3333" font-style="normal" font-weight="400" stroke="#000000" stroke-linecap="round" stroke-linejoin="bevel" stroke-opacity="1" stroke-width="7" transform="matrix(1,0,0,1,1544.36,3772.41)">
    <path d="M1417,544.136 C1417,553.525 1409.39,561.136 1400,561.136 C1390.61,561.136 1383,553.525 1383,544.136 C1383,534.747 1390.61,527.136 1400,527.136 C1409.39,527.136 1417,534.747 1417,544.136 " fill-rule="evenodd" vector-effect="none"/>
   </g>
   <g fill="none" font-family="Noto Sans" font-size="42.3333" font-style="normal" font-weight="400" stroke="#000000" stroke-linecap="round" stroke-linejoin="bevel" stroke-opacity="1" stroke-width="7" transform="matrix(1,0,0,1,1544.36,3772.41)">
    <path d="M717,1100 C717,1109.39 709.389,1117 700,1117 C690.611,1117 683,1109.39 683,1100 C683,1090.61 690.611,1083 700,1083 C709.389,1083 717,1090.61 717,1100 " fill-rule="evenodd" vector-effect="none"/>
   </g>
   <g fill="none" font-family="Noto Sans" font-size="42.3333" font-style="normal" font-weight="400" stroke="#000000" stroke-linecap="round" stroke-linejoin="bevel" stroke-opacity="1" stroke-width="7" transform="matrix(1,0,0,1,1544.36,3772.41)">
    <path d="M1417,1100 C1417,1109.39 1409.39,1117 1400,1117 C1390.61,1117 1383,1109.39 1383,1100 C1383,1090.61 1390.61,1083 1400,1083 C1409.39,1083 1417,1090.61 1417,1100 " fill-rule="evenodd" vector-effect="none"/>
   </g>
   <g fill="none" font-family="Noto Sans" font-size="42.3333" font-style="normal" font-weight="400" stroke="#000000" stroke-linecap="round" stroke-linejoin="bevel" stroke-opacity="1" stroke-width="7" transform="matrix(1,0,0,1,1544.36,3772.41)">
    <path d="M-1200,-1180 L-1200,880" fill-rule="evenodd" vector-effect="none"/>
   </g>
  </g>
 </g>
</svg>
