<svg xmlns="http://www.w3.org/2000/svg" xmlns:cc="http://creativecommons.org/ns#" xmlns:dc="http://purl.org/dc/elements/1.1/" xmlns:freecad="https://www.freecad.org/wiki/index.php?title=Svg_Namespace" xmlns:inkscape="http://www.inkscape.org/namespaces/inkscape" xmlns:rdf="http://www.w3.org/1999/02/22-rdf-syntax-ns#" xmlns:sodipodi="http://sodipodi.sourceforge.net/DTD/sodipodi-0.dtd" xmlns:svg="http://www.w3.org/2000/svg" xmlns:xlink="http://www.w3.org/1999/xlink" baseProfile="tiny" height="300mm" version="1.2" viewBox="0 0 4200 3000" width="420mm">
 <title>FreeCAD SVG Export</title>
 <desc>Drawing page: Page001 exported from FreeCAD document: marble_pump_pipe_export</desc>
 <defs/>
 <g id="Page001" inkscape:groupmode="layer" inkscape:label="TechDraw">
  <g id="TD_CAM_300x3001.svg" style="stroke: none;" transform="scale(10.000000, 10.000000)">
   <sodipodi:namedview bordercolor="#666666" borderopacity="1" gridtolerance="10" guidetolerance="10" id="namedview221" inkscape:current-layer="svg2" inkscape:cx="553.15027" inkscape:cy="576.16869" inkscape:deskcolor="#505050" inkscape:document-units="mm" inkscape:pagecheckerboard="true" inkscape:pageopacity="0" inkscape:pageshadow="2" inkscape:showpageshadow="false" inkscape:window-height="1659" inkscape:window-maximized="1" inkscape:window-width="3072" inkscape:window-x="0" inkscape:window-y="0" inkscape:zoom="1.4119129" objecttolerance="10" pagecolor="#ffffff" showgrid="false" units="mm">
    <inkscape:grid empspacing="10" id="grid811" originx="0" originy="0" spacingx="1" spacingy="1" type="xygrid" units="mm"/>
   </sodipodi:namedview>
   <!-- Working space 10 10 410 287 -->
   <!-- Title block 220 227 410 287 -->
   <metadata id="metadata849">
    <rdf:RDF>
     <cc:Work rdf:about="">
      <dc:format>image/svg+xml</dc:format>
      <dc:type rdf:resource="http://purl.org/dc/dcmitype/StillImage"/>
      <dc:date>25.04.2026</dc:date>
      <dc:creator>
       <cc:Agent>
        <dc:title>Stefan Krüger</dc:title>
       </cc:Agent>
      </dc:creator>
      <dc:rights>
       <cc:Agent>
        <dc:title>Stefan Krüger</dc:title>
       </cc:Agent>
      </dc:rights>
      <dc:publisher>
       <cc:Agent>
        <dc:title>Stefan Krüger</dc:title>
       </cc:Agent>
      </dc:publisher>
      <dc:language>EN / DE</dc:language>
      <cc:license rdf:resource="http://creativecommons.org/publicdomain/zero/1.0/"/>
     </cc:Work>
     <cc:License rdf:about="http://creativecommons.org/publicdomain/zero/1.0/">
      <cc:permits rdf:resource="http://creativecommons.org/ns#Reproduction"/>
      <cc:permits rdf:resource="http://creativecommons.org/ns#Distribution"/>
      <cc:permits rdf:resource="http://creativecommons.org/ns#DerivativeWorks"/>
     </cc:License>
    </rdf:RDF>
   </metadata>
   <defs id="defs847"/>
   <!-- DrawingContent -->
  </g>
  <g fill="none" fill-rule="evenodd" id="DrawingContent" stroke="black" stroke-linecap="square" stroke-linejoin="bevel" stroke-width="1">
   <g fill="none" fill-opacity="1" font-family="Noto Sans" font-size="42.3333" font-style="normal" font-weight="400" stroke="#000000" transform="matrix(1,0,0,1,3510.74,415.638)">
    <path d="M360,-149.117 L149.117,-360 L-149.117,-360 L-360,-149.117 L-360,149.117 L-149.117,360 L149.117,360 L360,149.117 L360,-149.117" fill-rule="evenodd" vector-effect="non-scaling-stroke"/>
   </g>
   <g fill="none" fill-opacity="1" font-family="Noto Sans" font-size="42.3333" font-style="normal" font-weight="400" stroke="#000000" transform="matrix(1,0,0,1,3510.74,415.638)">
    <path d="M160,-66.2742 L127.279,-98.9949 L197.99,-169.706 L169.706,-197.99 L98.9949,-127.279 L66.2742,-160 L20,-160 L20,-260 L-20,-260 L-20,-160 L-66.2742,-160 L-98.9949,-127.279 L-169.706,-197.99 L-197.99,-169.706 L-127.279,-98.9949 L-160,-66.2742 L-160,-20 L-260,-20 L-260,20 L-160,20 L-160,66.2742 L-127.279,98.9949 L-197.99,169.706 L-169.706,197.99 L-98.9949,127.279 L-66.2742,160 L-20,160 L-20,260 L20,260 L20,160 L66.2742,160 L98.9949,127.279 L169.706,197.99 L197.99,169.706 L127.279,98.9949 L160,66.2742 L160,20 L260,20 L260,-20 L160,-20 L160,-66.2742" fill-rule="evenodd" vector-effect="non-scaling-stroke"/>
   </g>
   <g fill="none" fill-opacity="1" font-family="Noto Sans" font-size="42.3333" font-style="normal" font-weight="400" stroke="#000000" transform="matrix(1,0,0,1,1570.56,111.76)">
    <path d="M1440,100 L1560,100 L1560,-100 L-1560,-100 L-1560,100 L-1440,100 L-1440,-1.08802e-13 L-1400,-8.88178e-14 L-1400,100 L1400,100 L1400,2.10942e-13 L1440,2.13163e-13 L1440,100" fill-rule="evenodd" vector-effect="non-scaling-stroke"/>
   </g>
   <g fill="none" fill-opacity="1" font-family="Noto Sans" font-size="42.3333" font-style="normal" font-weight="400" stroke="#000000" transform="matrix(1,0,0,1,1570.56,326.499)">
    <path d="M1440,100 L1560,100 L1560,-100 L-1560,-100 L-1560,100 L-1440,100 L-1440,-1.08802e-13 L-1400,-8.88178e-14 L-1400,100 L1400,100 L1400,2.10942e-13 L1440,2.13163e-13 L1440,100" fill-rule="evenodd" vector-effect="non-scaling-stroke"/>
   </g>
   <g fill="none" fill-opacity="1" font-family="Noto Sans" font-size="42.3333" font-style="normal" font-weight="400" stroke="#000000" transform="matrix(1,0,0,1,1570.56,539.943)">
    <path d="M1440,100 L1560,100 L1560,-100 L-1560,-100 L-1560,100 L-1440,100 L-1440,-1.08802e-13 L-1400,-8.88178e-14 L-1400,100 L1400,100 L1400,2.10942e-13 L1440,2.13163e-13 L1440,100" fill-rule="evenodd" vector-effect="non-scaling-stroke"/>
   </g>
   <g fill="none" fill-opacity="1" font-family="Noto Sans" font-size="42.3333" font-style="normal" font-weight="400" stroke="#000000" transform="matrix(1,0,0,1,1570.56,751.226)">
    <path d="M1440,100 L1560,100 L1560,-100 L-1560,-100 L-1560,100 L-1440,100 L-1440,-1.08802e-13 L-1400,-8.88178e-14 L-1400,100 L1400,100 L1400,2.10942e-13 L1440,2.13163e-13 L1440,100" fill-rule="evenodd" vector-effect="non-scaling-stroke"/>
   </g>
   </g>
 </g>
</svg>