<svg xmlns="http://www.w3.org/2000/svg" xmlns:cc="http://creativecommons.org/ns#" xmlns:dc="http://purl.org/dc/elements/1.1/" xmlns:freecad="https://www.freecad.org/wiki/index.php?title=Svg_Namespace" xmlns:inkscape="http://www.inkscape.org/namespaces/inkscape" xmlns:rdf="http://www.w3.org/1999/02/22-rdf-syntax-ns#" xmlns:sodipodi="http://sodipodi.sourceforge.net/DTD/sodipodi-0.dtd" xmlns:svg="http://www.w3.org/2000/svg" xmlns:xlink="http://www.w3.org/1999/xlink" baseProfile="tiny" height="300mm" version="1.2" viewBox="0 0 4000 3000" width="400mm">
 <title>FreeCAD SVG Export</title>
 <desc>Drawing page: Page007 exported from FreeCAD document: marble_pump_export</desc>
 <defs/>
 <g id="Page007" inkscape:groupmode="layer" inkscape:label="TechDraw">
  <g id="TD_CAM_300x3002.svg" style="stroke: none;" transform="scale(10.000000, 10.000000)">
   <sodipodi:namedview bordercolor="#666666" borderopacity="1" gridtolerance="10" guidetolerance="10" id="namedview221" inkscape:current-layer="svg2" inkscape:cx="553.15027" inkscape:cy="576.16869" inkscape:deskcolor="#505050" inkscape:document-units="mm" inkscape:pagecheckerboard="true" inkscape:pageopacity="0" inkscape:pageshadow="2" inkscape:showpageshadow="false" inkscape:window-height="1659" inkscape:window-maximized="1" inkscape:window-width="3072" inkscape:window-x="0" inkscape:window-y="0" inkscape:zoom="1.4119129" objecttolerance="10" pagecolor="#ffffff" showgrid="false" units="mm">
    <inkscape:grid empspacing="10" id="grid811" originx="0" originy="0" spacingx="1" spacingy="1" type="xygrid" units="mm"/>
   </sodipodi:namedview>
   <!-- Working space 10 10 410 287 -->
   <!-- Title block 220 227 410 287 -->
   <metadata id="metadata849">
    <rdf:RDF>
     <cc:Work rdf:about="">
      <dc:format>image/svg+xml</dc:format>
      <dc:type rdf:resource="http://purl.org/dc/dcmitype/StillImage"/>
      <dc:date>25.04.2026</dc:date>
      <dc:creator>
       <cc:Agent>
        <dc:title>Stefan Krüger</dc:title>
       </cc:Agent>
      </dc:creator>
      <dc:rights>
       <cc:Agent>
        <dc:title>Stefan Krüger</dc:title>
       </cc:Agent>
      </dc:rights>
      <dc:publisher>
       <cc:Agent>
        <dc:title>Stefan Krüger</dc:title>
       </cc:Agent>
      </dc:publisher>
      <dc:language>EN / DE</dc:language>
      <cc:license rdf:resource="http://creativecommons.org/publicdomain/zero/1.0/"/>
     </cc:Work>
     <cc:License rdf:about="http://creativecommons.org/publicdomain/zero/1.0/">
      <cc:permits rdf:resource="http://creativecommons.org/ns#Reproduction"/>
      <cc:permits rdf:resource="http://creativecommons.org/ns#Distribution"/>
      <cc:permits rdf:resource="http://creativecommons.org/ns#DerivativeWorks"/>
     </cc:License>
    </rdf:RDF>
   </metadata>
   <defs id="defs847"/>
   <!-- DrawingContent -->
  </g>
  <g fill="none" fill-rule="evenodd" id="DrawingContent" stroke="black" stroke-linecap="square" stroke-linejoin="bevel" stroke-width="1">
   <g fill="none" fill-opacity="1" font-family="Noto Sans" font-size="42.3333" font-style="normal" font-weight="400" stroke="#000000" transform="matrix(1,0,0,1,1008.77,1106.01)">
    <path d="M-1000,1100 L1000,1100 L1000,-1100 L-1000,-1100 L-1000,1100" fill-rule="evenodd" vector-effect="non-scaling-stroke"/>
   </g>
   <g fill="none" fill-opacity="1" font-family="Noto Sans" font-size="42.3333" font-style="normal" font-weight="400" stroke="#000000" transform="matrix(1,0,0,1,1008.77,1106.01)">
    <path d="M822.5,-812.5 C822.5,-751.749 773.251,-702.5 712.5,-702.5 C651.749,-702.5 602.5,-751.749 602.5,-812.5 C602.5,-873.251 651.749,-922.5 712.5,-922.5 C773.251,-922.5 822.5,-873.251 822.5,-812.5 " fill-rule="evenodd" vector-effect="non-scaling-stroke"/>
   </g>
   <g fill="none" fill-opacity="1" font-family="Noto Sans" font-size="42.3333" font-style="normal" font-weight="400" stroke="#000000" transform="matrix(1,0,0,1,1008.77,1106.01)">
    <path d="M800.602,80 C800.602,128.658 761.158,168.102 712.5,168.102 C663.842,168.102 624.398,128.658 624.398,80 C624.398,31.3423 663.842,-8.1025 712.5,-8.1025 C761.158,-8.1025 800.602,31.3423 800.602,80 " fill-rule="evenodd" vector-effect="non-scaling-stroke"/>
   </g>
   <g fill="none" fill-opacity="1" font-family="Noto Sans" font-size="42.3333" font-style="normal" font-weight="400" stroke="#000000" transform="matrix(1,0,0,1,1008.77,1106.01)">
    <path d="M884.5,-657.5 C884.5,-648.111 876.889,-640.5 867.5,-640.5 C858.111,-640.5 850.5,-648.111 850.5,-657.5 C850.5,-666.889 858.111,-674.5 867.5,-674.5 C876.889,-674.5 884.5,-666.889 884.5,-657.5 " fill-rule="evenodd" vector-effect="non-scaling-stroke"/>
   </g>
   <g fill="none" fill-opacity="1" font-family="Noto Sans" font-size="42.3333" font-style="normal" font-weight="400" stroke="#000000" transform="matrix(1,0,0,1,1008.77,1106.01)">
    <path d="M-883,1020 C-883,1029.39 -890.611,1037 -900,1037 C-909.389,1037 -917,1029.39 -917,1020 C-917,1010.61 -909.389,1003 -900,1003 C-890.611,1003 -883,1010.61 -883,1020 " fill-rule="evenodd" vector-effect="non-scaling-stroke"/>
   </g>
   <g fill="none" fill-opacity="1" font-family="Noto Sans" font-size="42.3333" font-style="normal" font-weight="400" stroke="#000000" transform="matrix(1,0,0,1,1008.77,1106.01)">
    <path d="M917,1020 C917,1029.39 909.389,1037 900,1037 C890.611,1037 883,1029.39 883,1020 C883,1010.61 890.611,1003 900,1003 C909.389,1003 917,1010.61 917,1020 " fill-rule="evenodd" vector-effect="non-scaling-stroke"/>
   </g>
   <g fill="none" fill-opacity="1" font-family="Noto Sans" font-size="42.3333" font-style="normal" font-weight="400" stroke="#000000" transform="matrix(1,0,0,1,1008.77,1106.01)">
    <path d="M917,100 C917,109.389 909.389,117 900,117 C890.611,117 883,109.389 883,100 C883,90.6112 890.611,83 900,83 C909.389,83 917,90.6112 917,100 " fill-rule="evenodd" vector-effect="non-scaling-stroke"/>
   </g>
   <g fill="none" fill-opacity="1" font-family="Noto Sans" font-size="42.3333" font-style="normal" font-weight="400" stroke="#000000" transform="matrix(1,0,0,1,1008.77,1106.01)">
    <path d="M-883,-1000 C-883,-990.611 -890.611,-983 -900,-983 C-909.389,-983 -917,-990.611 -917,-1000 C-917,-1009.39 -909.389,-1017 -900,-1017 C-890.611,-1017 -883,-1009.39 -883,-1000 " fill-rule="evenodd" vector-effect="non-scaling-stroke"/>
   </g>
   <g fill="none" fill-opacity="1" font-family="Noto Sans" font-size="42.3333" font-style="normal" font-weight="400" stroke="#000000" transform="matrix(1,0,0,1,1008.77,1106.01)">
    <path d="M917,200 C917,209.389 909.389,217 900,217 C890.611,217 883,209.389 883,200 C883,190.611 890.611,183 900,183 C909.389,183 917,190.611 917,200 " fill-rule="evenodd" vector-effect="non-scaling-stroke"/>
   </g>
   <g fill="none" fill-opacity="1" font-family="Noto Sans" font-size="42.3333" font-style="normal" font-weight="400" stroke="#000000" transform="matrix(1,0,0,1,1008.77,1106.01)">
    <path d="M-73,-600 C-73,-590.611 -80.6112,-583 -90,-583 C-99.3888,-583 -107,-590.611 -107,-600 C-107,-609.389 -99.3888,-617 -90,-617 C-80.6112,-617 -73,-609.389 -73,-600 " fill-rule="evenodd" vector-effect="non-scaling-stroke"/>
   </g>
   <g fill="none" fill-opacity="1" font-family="Noto Sans" font-size="42.3333" font-style="normal" font-weight="400" stroke="#000000" transform="matrix(1,0,0,1,1008.77,1106.01)">
    <path d="M-883,10 C-883,19.3888 -890.611,27 -900,27 C-909.389,27 -917,19.3888 -917,10 C-917,0.611159 -909.389,-7 -900,-7 C-890.611,-7 -883,0.611159 -883,10 " fill-rule="evenodd" vector-effect="non-scaling-stroke"/>
   </g>
   <g fill="none" fill-opacity="1" font-family="Noto Sans" font-size="42.3333" font-style="normal" font-weight="400" stroke="#000000" transform="matrix(1,0,0,1,1008.77,1106.01)">
    <path d="M-363,-700 C-363,-690.611 -370.611,-683 -380,-683 C-389.389,-683 -397,-690.611 -397,-700 C-397,-709.389 -389.389,-717 -380,-717 C-370.611,-717 -363,-709.389 -363,-700 " fill-rule="evenodd" vector-effect="non-scaling-stroke"/>
   </g>
   <g fill="none" fill-opacity="1" font-family="Noto Sans" font-size="42.3333" font-style="normal" font-weight="400" stroke="#000000" transform="matrix(1,0,0,1,1008.77,1106.01)">
    <path d="M917,-1000 C917,-990.611 909.389,-983 900,-983 C890.611,-983 883,-990.611 883,-1000 C883,-1009.39 890.611,-1017 900,-1017 C909.389,-1017 917,-1009.39 917,-1000 " fill-rule="evenodd" vector-effect="non-scaling-stroke"/>
   </g>
   <g fill="none" fill-opacity="1" font-family="Noto Sans" font-size="42.3333" font-style="normal" font-weight="400" stroke="#000000" transform="matrix(1,0,0,1,1008.77,1106.01)">
    <path d="M637,-300 C637,-290.611 629.389,-283 620,-283 C610.611,-283 603,-290.611 603,-300 C603,-309.389 610.611,-317 620,-317 C629.389,-317 637,-309.389 637,-300 " fill-rule="evenodd" vector-effect="non-scaling-stroke"/>
   </g>
   <g fill="none" fill-opacity="1" font-family="Noto Sans" font-size="42.3333" font-style="normal" font-weight="400" stroke="#000000" transform="matrix(1,0,0,1,1008.77,1106.01)">
    <path d="M-363,-900 C-363,-890.611 -370.611,-883 -380,-883 C-389.389,-883 -397,-890.611 -397,-900 C-397,-909.389 -389.389,-917 -380,-917 C-370.611,-917 -363,-909.389 -363,-900 " fill-rule="evenodd" vector-effect="non-scaling-stroke"/>
   </g>
   <g fill="none" fill-opacity="1" font-family="Noto Sans" font-size="42.3333" font-style="normal" font-weight="400" stroke="#000000" transform="matrix(1,0,0,1,1008.77,1106.01)">
    <path d="M-363,-1000 C-363,-990.611 -370.611,-983 -380,-983 C-389.389,-983 -397,-990.611 -397,-1000 C-397,-1009.39 -389.389,-1017 -380,-1017 C-370.611,-1017 -363,-1009.39 -363,-1000 " fill-rule="evenodd" vector-effect="non-scaling-stroke"/>
   </g>
   <g fill="none" fill-opacity="1" font-family="Noto Sans" font-size="42.3333" font-style="normal" font-weight="400" stroke="#000000" transform="matrix(1,0,0,1,1008.77,1106.01)">
    <path d="M574.5,-967.5 C574.5,-958.111 566.889,-950.5 557.5,-950.5 C548.111,-950.5 540.5,-958.111 540.5,-967.5 C540.5,-976.889 548.111,-984.5 557.5,-984.5 C566.889,-984.5 574.5,-976.889 574.5,-967.5 " fill-rule="evenodd" vector-effect="non-scaling-stroke"/>
   </g>
   <g fill="none" fill-opacity="1" font-family="Noto Sans" font-size="42.3333" font-style="normal" font-weight="400" stroke="#000000" transform="matrix(1,0,0,1,1008.77,1106.01)">
    <path d="M917,-900 C917,-890.611 909.389,-883 900,-883 C890.611,-883 883,-890.611 883,-900 C883,-909.389 890.611,-917 900,-917 C909.389,-917 917,-909.389 917,-900 " fill-rule="evenodd" vector-effect="non-scaling-stroke"/>
   </g>
   <g fill="none" fill-opacity="1" font-family="Noto Sans" font-size="42.3333" font-style="normal" font-weight="400" stroke="#000000" transform="matrix(1,0,0,1,1008.77,1106.01)">
    <path d="M-363,-600 C-363,-590.611 -370.611,-583 -380,-583 C-389.389,-583 -397,-590.611 -397,-600 C-397,-609.389 -389.389,-617 -380,-617 C-370.611,-617 -363,-609.389 -363,-600 " fill-rule="evenodd" vector-effect="non-scaling-stroke"/>
   </g>
   <g fill="none" fill-opacity="1" font-family="Noto Sans" font-size="42.3333" font-style="normal" font-weight="400" stroke="#000000" transform="matrix(1,0,0,1,1008.77,1106.01)">
    <path d="M574.5,-657.5 C574.5,-648.111 566.889,-640.5 557.5,-640.5 C548.111,-640.5 540.5,-648.111 540.5,-657.5 C540.5,-666.889 548.111,-674.5 557.5,-674.5 C566.889,-674.5 574.5,-666.889 574.5,-657.5 " fill-rule="evenodd" vector-effect="non-scaling-stroke"/>
   </g>
   <g fill="none" fill-opacity="1" font-family="Noto Sans" font-size="42.3333" font-style="normal" font-weight="400" stroke="#000000" transform="matrix(1,0,0,1,1008.77,1106.01)">
    <path d="M884.5,-967.5 C884.5,-958.111 876.889,-950.5 867.5,-950.5 C858.111,-950.5 850.5,-958.111 850.5,-967.5 C850.5,-976.889 858.111,-984.5 867.5,-984.5 C876.889,-984.5 884.5,-976.889 884.5,-967.5 " fill-rule="evenodd" vector-effect="non-scaling-stroke"/>
   </g>
   </g>
 </g>
</svg>