<svg xmlns="http://www.w3.org/2000/svg" xmlns:cc="http://creativecommons.org/ns#" xmlns:dc="http://purl.org/dc/elements/1.1/" xmlns:freecad="https://www.freecad.org/wiki/index.php?title=Svg_Namespace" xmlns:inkscape="http://www.inkscape.org/namespaces/inkscape" xmlns:rdf="http://www.w3.org/1999/02/22-rdf-syntax-ns#" xmlns:sodipodi="http://sodipodi.sourceforge.net/DTD/sodipodi-0.dtd" xmlns:svg="http://www.w3.org/2000/svg" xmlns:xlink="http://www.w3.org/1999/xlink" baseProfile="tiny" height="300mm" version="1.2" viewBox="0 0 4200 3000" width="420mm">
 <title>FreeCAD SVG Export</title>
 <desc>Drawing page: Page006 exported from FreeCAD document: marble_pump_export</desc>
 <defs/>
 <g id="Page006" inkscape:groupmode="layer" inkscape:label="TechDraw">
  <g id="TD_CAM_300x3001.svg" style="stroke: none;" transform="scale(10.000000, 10.000000)">
   <sodipodi:namedview bordercolor="#666666" borderopacity="1" gridtolerance="10" guidetolerance="10" id="namedview221" inkscape:current-layer="svg2" inkscape:cx="553.15027" inkscape:cy="576.16869" inkscape:deskcolor="#505050" inkscape:document-units="mm" inkscape:pagecheckerboard="true" inkscape:pageopacity="0" inkscape:pageshadow="2" inkscape:showpageshadow="false" inkscape:window-height="1659" inkscape:window-maximized="1" inkscape:window-width="3072" inkscape:window-x="0" inkscape:window-y="0" inkscape:zoom="1.4119129" objecttolerance="10" pagecolor="#ffffff" showgrid="false" units="mm">
    <inkscape:grid empspacing="10" id="grid811" originx="0" originy="0" spacingx="1" spacingy="1" type="xygrid" units="mm"/>
   </sodipodi:namedview>
   <!-- Working space 10 10 410 287 -->
   <!-- Title block 220 227 410 287 -->
   <metadata id="metadata849">
    <rdf:RDF>
     <cc:Work rdf:about="">
      <dc:format>image/svg+xml</dc:format>
      <dc:type rdf:resource="http://purl.org/dc/dcmitype/StillImage"/>
      <dc:date>25.04.2026</dc:date>
      <dc:creator>
       <cc:Agent>
        <dc:title>Stefan Krüger</dc:title>
       </cc:Agent>
      </dc:creator>
      <dc:rights>
       <cc:Agent>
        <dc:title>Stefan Krüger</dc:title>
       </cc:Agent>
      </dc:rights>
      <dc:publisher>
       <cc:Agent>
        <dc:title>Stefan Krüger</dc:title>
       </cc:Agent>
      </dc:publisher>
      <dc:language>EN / DE</dc:language>
      <cc:license rdf:resource="http://creativecommons.org/publicdomain/zero/1.0/"/>
     </cc:Work>
     <cc:License rdf:about="http://creativecommons.org/publicdomain/zero/1.0/">
      <cc:permits rdf:resource="http://creativecommons.org/ns#Reproduction"/>
      <cc:permits rdf:resource="http://creativecommons.org/ns#Distribution"/>
      <cc:permits rdf:resource="http://creativecommons.org/ns#DerivativeWorks"/>
     </cc:License>
    </rdf:RDF>
   </metadata>
   <defs id="defs847"/>
   <!-- DrawingContent -->
  </g>
  <g fill="none" fill-rule="evenodd" id="DrawingContent" stroke="black" stroke-linecap="square" stroke-linejoin="bevel" stroke-width="1">
   <g fill="none" fill-opacity="1" font-family="Noto Sans" font-size="42.3333" font-style="normal" font-weight="400" stroke="#000000" transform="matrix(1,0,0,1,1456.75,799.527)">
    <path d="M761.087,7.0117 L761.087,-7.0117 C748.276,-12.4925 735.02,-16.8705 721.465,-20.098 L720.979,-33.2485 C734.259,-37.4683 747.155,-42.8133 759.526,-49.2253 L758.491,-63.2104 C745.31,-67.7301 731.767,-71.1172 718.01,-73.3347 L716.554,-86.4134 C729.486,-91.6025 741.952,-97.8853 753.816,-105.193 L751.751,-119.064 C738.272,-122.598 724.516,-124.975 710.633,-126.171 L708.215,-139.106 C720.729,-145.236 732.697,-152.423 743.989,-160.587 L740.904,-174.267 C727.201,-176.796 713.307,-178.151 699.374,-178.318 L696.007,-191.04 C708.034,-198.077 719.439,-206.128 730.097,-215.104 L726.011,-228.518 C712.158,-230.028 698.202,-230.354 684.294,-229.491 L679.997,-241.929 C691.472,-249.836 702.251,-258.707 712.217,-268.445 L707.151,-281.522 C693.225,-282.004 679.283,-281.298 665.477,-279.411 L660.273,-291.498 C671.132,-300.23 681.226,-309.873 690.446,-320.321 L684.429,-332.988 C670.505,-332.44 656.653,-330.707 643.024,-327.805 L636.942,-339.474 C647.126,-348.985 656.481,-359.346 664.904,-370.447 L657.967,-382.635 C644.122,-381.061 630.436,-378.309 617.058,-374.408 L610.131,-385.597 C619.585,-395.833 628.149,-406.858 635.729,-418.55 L627.911,-430.192 C614.22,-427.6 600.775,-423.844 587.722,-418.967 L579.987,-429.613 C588.66,-440.52 596.386,-452.147 603.082,-464.367 L594.426,-475.4 C580.963,-471.803 567.832,-467.065 555.175,-461.237 L546.675,-471.283 C554.518,-482.8 561.365,-494.966 567.14,-507.647 L557.693,-518.011 C544.532,-513.43 531.787,-507.735 519.595,-500.988 L510.376,-510.379 C517.347,-522.444 523.277,-535.082 528.1,-548.155 L517.913,-557.793 C505.127,-552.253 492.837,-545.632 481.176,-538.003 L471.289,-546.687 C477.351,-559.235 482.33,-572.276 486.175,-585.67 L475.304,-594.528 C462.962,-588.059 451.194,-580.549 440.129,-572.08 L429.628,-580.01 C434.746,-592.971 438.749,-606.344 441.594,-619.985 L430.098,-628.017 C418.268,-620.654 407.087,-612.295 396.677,-603.032 L385.619,-610.165 C389.766,-623.468 392.77,-637.101 394.6,-650.914 L382.542,-658.075 C371.288,-649.859 360.755,-640.697 351.058,-630.69 L339.503,-636.987 C342.656,-650.56 344.646,-664.377 345.45,-678.289 L332.897,-684.54 C322.28,-675.514 312.453,-665.6 303.521,-654.904 L291.533,-660.33 C293.675,-674.099 294.638,-688.026 294.413,-701.958 L281.433,-707.265 C271.511,-697.48 262.443,-686.867 254.326,-675.541 L241.969,-680.067 C243.088,-693.957 243.021,-707.916 241.767,-721.794 L228.43,-726.128 C219.259,-715.637 210.999,-704.383 203.74,-692.488 L191.083,-696.09 C191.174,-710.024 190.076,-723.94 187.8,-737.688 L174.18,-741.025 C165.808,-729.885 158.402,-718.052 152.042,-705.654 L139.153,-708.31 C138.214,-722.213 136.091,-736.011 132.807,-749.553 L118.977,-751.874 C111.451,-740.147 104.939,-727.799 99.5118,-714.965 L86.4623,-716.663 C84.4993,-730.458 81.3631,-744.061 77.0877,-757.324 L63.1241,-758.617 C56.4846,-746.366 50.9022,-733.571 46.4378,-720.371 L33.2985,-721.101 C30.322,-734.713 26.1897,-748.048 20.9466,-760.958 L6.92558,-761.217 C1.20896,-748.509 -3.41321,-735.337 -6.89066,-721.843 L-20.0479,-721.6 C-24.0216,-734.956 -29.1274,-747.949 -35.3097,-760.437 L-49.3115,-759.66 C-54.074,-746.564 -57.7107,-733.086 -60.1822,-719.373 L-73.2855,-718.159 C-78.2347,-731.185 -84.2861,-743.765 -91.3738,-755.762 L-105.28,-753.953 C-109.062,-740.542 -111.694,-726.832 -113.146,-712.973 L-126.124,-710.795 C-132.021,-723.42 -138.985,-735.518 -146.94,-746.96 L-160.674,-744.129 C-163.456,-730.474 -165.068,-716.608 -165.492,-702.68 L-178.274,-699.549 C-185.087,-711.704 -192.926,-723.255 -201.703,-734.078 L-215.192,-730.24 C-216.957,-716.418 -217.54,-702.47 -216.935,-688.549 L-229.45,-684.482 C-237.144,-696.101 -245.814,-707.042 -255.366,-717.186 L-268.534,-712.363 C-269.274,-698.448 -268.826,-684.495 -267.194,-670.657 L-279.375,-665.677 C-287.905,-676.696 -297.359,-686.966 -307.636,-696.378 L-320.411,-690.595 C-320.121,-676.664 -318.644,-662.782 -315.994,-649.102 L-327.774,-643.236 C-337.095,-653.595 -347.282,-663.139 -358.225,-671.766 L-370.539,-665.056 C-369.221,-651.184 -366.722,-637.449 -363.07,-624.002 L-374.384,-617.282 C-384.444,-626.924 -395.309,-635.69 -406.859,-643.486 L-418.643,-635.884 C-416.305,-622.147 -412.798,-608.635 -408.163,-595.494 L-418.95,-587.957 C-429.695,-596.83 -441.177,-604.77 -453.271,-611.69 L-464.462,-603.239 C-461.115,-589.713 -456.621,-576.496 -451.027,-563.734 L-461.228,-555.421 C-472.599,-563.475 -484.636,-570.546 -497.209,-576.554 L-507.745,-567.3 C-503.408,-554.057 -497.95,-541.209 -491.429,-528.894 L-500.989,-519.851 C-512.923,-527.044 -525.449,-533.206 -538.431,-538.269 L-548.255,-528.262 C-542.952,-515.376 -536.56,-502.966 -529.148,-491.166 L-538.013,-481.441 C-550.446,-487.733 -563.393,-492.953 -576.714,-497.045 L-585.772,-486.339 C-579.532,-473.88 -572.24,-461.976 -563.977,-450.756 L-572.1,-440.403 C-584.964,-445.759 -598.261,-450.009 -611.847,-453.105 L-620.09,-441.76 C-612.947,-429.796 -604.796,-418.462 -595.726,-407.883 L-603.063,-396.959 C-616.287,-401.351 -629.862,-404.607 -643.64,-406.691 L-651.022,-394.768 C-643.015,-383.364 -634.049,-372.663 -624.223,-362.783 L-630.733,-351.346 C-644.245,-354.75 -658.023,-356.994 -671.917,-358.056 L-678.399,-345.62 C-669.572,-334.838 -659.84,-324.829 -649.311,-315.702 L-654.958,-303.815 C-668.685,-306.212 -682.592,-307.432 -696.526,-307.465 L-702.072,-294.584 C-692.472,-284.484 -682.028,-275.221 -670.854,-266.896 L-675.608,-254.625 C-689.474,-256.001 -703.433,-256.191 -717.331,-255.194 L-721.911,-241.94 C-711.591,-232.576 -700.492,-224.109 -688.733,-216.632 L-692.568,-204.044 C-706.498,-204.392 -720.432,-203.551 -734.22,-201.53 L-737.807,-187.974 C-726.825,-179.398 -715.13,-171.774 -702.852,-165.186 L-705.746,-152.349 C-719.664,-151.667 -733.498,-149.799 -747.099,-146.766 L-749.675,-132.981 C-738.089,-125.239 -725.864,-118.5 -713.132,-112.837 L-715.07,-99.821 C-728.9,-98.1133 -742.559,-95.229 -755.898,-91.1994 L-757.449,-77.2621 C-745.323,-70.3974 -732.633,-64.5795 -719.518,-59.8719 L-720.49,-46.7483 C-734.156,-44.0239 -747.564,-40.1387 -760.569,-35.135 L-761.087,-21.1212 C-748.487,-15.1708 -735.402,-10.306 -721.975,-6.57975 L-721.975,6.57975 C-735.402,10.306 -748.487,15.1708 -761.087,21.1212 L-760.569,35.135 C-747.564,40.1387 -734.156,44.0239 -720.49,46.7483 L-719.518,59.8719 C-732.633,64.5795 -745.323,70.3974 -757.449,77.2621 L-755.898,91.1994 C-742.559,95.229 -728.9,98.1133 -715.07,99.821 L-713.132,112.837 C-725.864,118.5 -738.089,125.239 -749.675,132.981 L-747.099,146.766 C-733.498,149.799 -719.664,151.667 -705.746,152.349 L-702.852,165.186 C-715.13,171.774 -726.825,179.398 -737.807,187.974 L-734.22,201.53 C-720.432,203.551 -706.498,204.392 -692.568,204.044 L-688.733,216.632 C-700.492,224.109 -711.591,232.576 -721.911,241.94 L-717.331,255.194 C-703.433,256.191 -689.474,256.001 -675.608,254.625 L-670.854,266.896 C-682.028,275.221 -692.472,284.484 -702.072,294.584 L-696.526,307.465 C-682.592,307.432 -668.685,306.212 -654.958,303.815 L-649.311,315.702 C-659.84,324.829 -669.572,334.838 -678.399,345.62 L-671.917,358.056 C-658.023,356.994 -644.245,354.75 -630.733,351.346 L-624.223,362.783 C-634.049,372.663 -643.015,383.364 -651.022,394.768 L-643.64,406.691 C-629.862,404.607 -616.287,401.351 -603.063,396.959 L-595.726,407.883 C-604.796,418.462 -612.947,429.796 -620.09,441.76 L-611.847,453.105 C-598.261,450.009 -584.964,445.759 -572.1,440.403 L-563.977,450.756 C-572.24,461.976 -579.532,473.88 -585.772,486.339 L-576.714,497.045 C-563.393,492.953 -550.446,487.733 -538.013,481.441 L-529.148,491.166 C-536.56,502.966 -542.952,515.376 -548.255,528.262 L-538.431,538.269 C-525.449,533.206 -512.923,527.044 -500.989,519.851 L-491.429,528.894 C-497.95,541.209 -503.408,554.057 -507.745,567.3 L-497.209,576.554 C-484.636,570.546 -472.599,563.475 -461.228,555.421 L-451.027,563.734 C-456.621,576.496 -461.115,589.713 -464.462,603.239 L-453.271,611.69 C-441.177,604.77 -429.695,596.83 -418.95,587.957 L-408.163,595.494 C-412.798,608.635 -416.305,622.147 -418.643,635.884 L-406.859,643.486 C-395.309,635.69 -384.444,626.924 -374.384,617.282 L-363.07,624.002 C-366.722,637.449 -369.221,651.184 -370.539,665.056 L-358.225,671.766 C-347.282,663.139 -337.095,653.595 -327.774,643.236 L-315.994,649.102 C-318.644,662.782 -320.121,676.664 -320.411,690.595 L-307.636,696.378 C-297.359,686.966 -287.905,676.696 -279.375,665.677 L-267.194,670.657 C-268.826,684.495 -269.274,698.448 -268.534,712.363 L-255.366,717.186 C-245.814,707.042 -237.144,696.101 -229.45,684.482 L-216.935,688.549 C-217.54,702.47 -216.957,716.418 -215.192,730.24 L-201.703,734.078 C-192.926,723.255 -185.087,711.704 -178.274,699.549 L-165.492,702.68 C-165.068,716.608 -163.456,730.474 -160.674,744.129 L-146.94,746.96 C-138.985,735.518 -132.021,723.42 -126.124,710.795 L-113.146,712.973 C-111.694,726.832 -109.062,740.542 -105.28,753.953 L-91.3738,755.762 C-84.2861,743.765 -78.2347,731.185 -73.2855,718.159 L-60.1822,719.373 C-57.7107,733.086 -54.074,746.564 -49.3115,759.66 L-35.3097,760.437 C-29.1274,747.949 -24.0216,734.956 -20.0479,721.6 L-6.89066,721.843 C-3.41321,735.337 1.20896,748.509 6.92558,761.217 L20.9466,760.958 C26.1897,748.048 30.322,734.713 33.2985,721.101 L46.4378,720.371 C50.9022,733.571 56.4846,746.366 63.1241,758.617 L77.0877,757.324 C81.3631,744.061 84.4993,730.458 86.4623,716.663 L99.5118,714.965 C104.939,727.799 111.451,740.147 118.977,751.874 L132.807,749.553 C136.091,736.011 138.214,722.213 139.153,708.31 L152.042,705.654 C158.402,718.052 165.808,729.885 174.18,741.025 L187.8,737.688 C190.076,723.94 191.174,710.024 191.083,696.09 L203.74,692.488 C210.999,704.383 219.259,715.637 228.43,726.128 L241.767,721.794 C243.021,707.916 243.088,693.957 241.969,680.067 L254.326,675.541 C262.443,686.867 271.511,697.48 281.433,707.265 L294.413,701.958 C294.638,688.026 293.675,674.099 291.533,660.33 L303.521,654.904 C312.453,665.6 322.28,675.514 332.897,684.54 L345.45,678.289 C344.646,664.377 342.656,650.56 339.503,636.987 L351.058,630.69 C360.755,640.697 371.288,649.859 382.542,658.075 L394.6,650.914 C392.77,637.101 389.766,623.468 385.619,610.165 L396.677,603.032 C407.087,612.295 418.268,620.654 430.098,628.017 L441.594,619.985 C438.749,606.344 434.746,592.971 429.628,580.01 L440.129,572.08 C451.194,580.549 462.962,588.059 475.304,594.528 L486.175,585.67 C482.33,572.276 477.351,559.235 471.289,546.687 L481.176,538.003 C492.837,545.632 505.127,552.253 517.913,557.793 L528.1,548.155 C523.277,535.082 517.347,522.444 510.376,510.379 L519.595,500.988 C531.787,507.735 544.532,513.43 557.693,518.011 L567.14,507.647 C561.365,494.966 554.518,482.8 546.675,471.283 L555.175,461.237 C567.832,467.065 580.963,471.803 594.426,475.4 L603.082,464.367 C596.386,452.147 588.66,440.52 579.987,429.613 L587.722,418.967 C600.775,423.844 614.22,427.6 627.911,430.192 L635.729,418.55 C628.149,406.858 619.585,395.833 610.131,385.597 L617.058,374.408 C630.436,378.309 644.122,381.061 657.967,382.635 L664.904,370.447 C656.481,359.346 647.126,348.985 636.942,339.474 L643.024,327.805 C656.653,330.707 670.505,332.44 684.429,332.988 L690.446,320.321 C681.226,309.873 671.132,300.23 660.273,291.498 L665.477,279.411 C679.283,281.298 693.225,282.004 707.151,281.522 L712.217,268.445 C702.251,258.707 691.472,249.836 679.997,241.929 L684.294,229.491 C698.202,230.354 712.158,230.028 726.011,228.518 L730.097,215.104 C719.439,206.128 708.034,198.077 696.007,191.04 L699.374,178.318 C713.307,178.151 727.201,176.796 740.904,174.267 L743.989,160.587 C732.697,152.423 720.729,145.236 708.215,139.106 L710.633,126.171 C724.516,124.975 738.272,122.598 751.751,119.064 L753.816,105.193 C741.952,97.8853 729.486,91.6025 716.554,86.4134 L718.01,73.3347 C731.767,71.1172 745.31,67.7301 758.491,63.2104 L759.526,49.2253 C747.155,42.8133 734.259,37.4683 720.979,33.2485 L721.465,20.098 C735.02,16.8705 748.276,12.4925 761.087,7.0117 " fill-rule="evenodd" vector-effect="non-scaling-stroke"/>
   </g>
   <g fill="none" fill-opacity="1" font-family="Noto Sans" font-size="42.3333" font-style="normal" font-weight="400" stroke="#000000" transform="matrix(1,0,0,1,1456.75,799.527)">
    <path d="M164.077,-43.9992 L639.302,-55.9431 C622.766,-244.955 523.455,-416.966 368.034,-525.793 L120.078,-120.208 C141.179,-99.1072 156.354,-72.8237 164.077,-43.9992 " fill-rule="evenodd" vector-effect="non-scaling-stroke"/>
   </g>
   <g fill="none" fill-opacity="1" font-family="Noto Sans" font-size="42.3333" font-style="normal" font-weight="400" stroke="#000000" transform="matrix(1,0,0,1,1456.75,799.527)">
    <path d="M-164.338,43.9992 L-639.563,55.9431 C-623.026,244.955 -523.715,416.966 -368.295,525.793 L-120.339,120.208 C-141.439,99.1072 -156.614,72.8237 -164.338,43.9992 " fill-rule="evenodd" vector-effect="non-scaling-stroke"/>
   </g>
   <g fill="none" fill-opacity="1" font-family="Noto Sans" font-size="42.3333" font-style="normal" font-weight="400" stroke="#000000" transform="matrix(1,0,0,1,1456.75,799.527)">
    <path d="M-120.339,-120.208 L-368.295,-525.793 C-523.715,-416.966 -623.026,-244.955 -639.563,-55.9431 L-164.338,-43.9992 C-156.614,-72.8237 -141.439,-99.1072 -120.339,-120.208 " fill-rule="evenodd" vector-effect="non-scaling-stroke"/>
   </g>
   <g fill="none" fill-opacity="1" font-family="Noto Sans" font-size="42.3333" font-style="normal" font-weight="400" stroke="#000000" transform="matrix(1,0,0,1,1456.75,799.527)">
    <path d="M-44.1296,164.207 L-271.398,581.736 C-99.4414,661.921 99.1806,661.921 271.138,581.736 L43.8689,164.207 C15.0444,171.931 -15.3052,171.931 -44.1296,164.207 " fill-rule="evenodd" vector-effect="non-scaling-stroke"/>
   </g>
   <g fill="none" fill-opacity="1" font-family="Noto Sans" font-size="42.3333" font-style="normal" font-weight="400" stroke="#000000" transform="matrix(1,0,0,1,1456.75,799.527)">
    <path d="M43.8689,-164.207 L271.138,-581.736 C99.1806,-661.921 -99.4414,-661.921 -271.398,-581.736 L-44.1296,-164.207 C-15.3052,-171.931 15.0444,-171.931 43.8689,-164.207 " fill-rule="evenodd" vector-effect="non-scaling-stroke"/>
   </g>
   <g fill="none" fill-opacity="1" font-family="Noto Sans" font-size="42.3333" font-style="normal" font-weight="400" stroke="#000000" transform="matrix(1,0,0,1,1456.75,799.527)">
    <path d="M120.078,120.208 L368.034,525.793 C523.455,416.966 622.766,244.955 639.302,55.9431 L164.077,43.9992 C156.354,72.8237 141.179,99.1072 120.078,120.208 " fill-rule="evenodd" vector-effect="non-scaling-stroke"/>
   </g>
   <g fill="none" fill-opacity="1" font-family="Noto Sans" font-size="42.3333" font-style="normal" font-weight="400" stroke="#000000" transform="matrix(1,0,0,1,1456.75,799.527)">
    <path d="M-45.1304,-60 L-45.1304,60 L44.8696,60 L44.8696,-60 L-45.1304,-60" fill-rule="evenodd" vector-effect="non-scaling-stroke"/>
   </g>
   <g fill="none" fill-opacity="1" font-family="Noto Sans" font-size="42.3333" font-style="normal" font-weight="400" stroke="#000000" transform="matrix(1,0,0,1,785.392,2213.13)">
    <path d="M761.087,7.0117 L761.087,-7.0117 C748.276,-12.4925 735.02,-16.8705 721.465,-20.098 L720.979,-33.2485 C734.259,-37.4683 747.155,-42.8133 759.526,-49.2253 L758.491,-63.2104 C745.31,-67.7301 731.767,-71.1172 718.01,-73.3347 L716.554,-86.4134 C729.486,-91.6025 741.952,-97.8853 753.816,-105.193 L751.751,-119.064 C738.272,-122.598 724.516,-124.975 710.633,-126.171 L708.215,-139.106 C720.729,-145.236 732.697,-152.423 743.989,-160.587 L740.904,-174.267 C727.201,-176.796 713.307,-178.151 699.374,-178.318 L696.007,-191.04 C708.034,-198.077 719.439,-206.128 730.097,-215.104 L726.011,-228.518 C712.158,-230.028 698.202,-230.354 684.294,-229.491 L679.997,-241.929 C691.472,-249.836 702.251,-258.707 712.217,-268.445 L707.151,-281.522 C693.225,-282.004 679.283,-281.298 665.477,-279.411 L660.273,-291.498 C671.132,-300.23 681.226,-309.873 690.446,-320.321 L684.429,-332.988 C670.505,-332.44 656.653,-330.707 643.024,-327.805 L636.942,-339.474 C647.126,-348.985 656.481,-359.346 664.904,-370.447 L657.967,-382.635 C644.122,-381.061 630.436,-378.309 617.058,-374.408 L610.131,-385.597 C619.585,-395.833 628.149,-406.858 635.729,-418.55 L627.911,-430.192 C614.22,-427.6 600.775,-423.844 587.722,-418.967 L579.987,-429.613 C588.66,-440.52 596.386,-452.147 603.082,-464.367 L594.426,-475.4 C580.963,-471.803 567.832,-467.065 555.175,-461.237 L546.675,-471.283 C554.518,-482.8 561.365,-494.966 567.14,-507.647 L557.693,-518.011 C544.532,-513.43 531.787,-507.735 519.595,-500.988 L510.376,-510.379 C517.347,-522.444 523.277,-535.082 528.1,-548.155 L517.913,-557.793 C505.127,-552.253 492.837,-545.632 481.176,-538.003 L471.289,-546.687 C477.351,-559.235 482.33,-572.276 486.175,-585.67 L475.304,-594.528 C462.962,-588.059 451.194,-580.549 440.129,-572.08 L429.628,-580.01 C434.746,-592.971 438.749,-606.344 441.594,-619.985 L430.098,-628.017 C418.268,-620.654 407.087,-612.295 396.677,-603.032 L385.619,-610.165 C389.766,-623.468 392.77,-637.101 394.6,-650.914 L382.542,-658.075 C371.288,-649.859 360.755,-640.697 351.058,-630.69 L339.503,-636.987 C342.656,-650.56 344.646,-664.377 345.45,-678.289 L332.897,-684.54 C322.28,-675.514 312.453,-665.6 303.521,-654.904 L291.533,-660.33 C293.675,-674.099 294.638,-688.026 294.413,-701.958 L281.433,-707.265 C271.511,-697.48 262.443,-686.867 254.326,-675.541 L241.969,-680.067 C243.088,-693.957 243.021,-707.916 241.767,-721.794 L228.43,-726.128 C219.259,-715.637 210.999,-704.383 203.74,-692.488 L191.083,-696.09 C191.174,-710.024 190.076,-723.94 187.8,-737.688 L174.18,-741.025 C165.808,-729.885 158.402,-718.052 152.042,-705.654 L139.153,-708.31 C138.214,-722.213 136.091,-736.011 132.807,-749.553 L118.977,-751.874 C111.451,-740.147 104.939,-727.799 99.5118,-714.965 L86.4623,-716.663 C84.4993,-730.458 81.3631,-744.061 77.0877,-757.324 L63.1241,-758.617 C56.4846,-746.366 50.9022,-733.571 46.4378,-720.371 L33.2985,-721.101 C30.322,-734.713 26.1897,-748.048 20.9466,-760.958 L6.92558,-761.217 C1.20896,-748.509 -3.41321,-735.337 -6.89066,-721.843 L-20.0479,-721.6 C-24.0216,-734.956 -29.1274,-747.949 -35.3097,-760.437 L-49.3115,-759.66 C-54.074,-746.564 -57.7107,-733.086 -60.1822,-719.373 L-73.2855,-718.159 C-78.2347,-731.185 -84.2861,-743.765 -91.3738,-755.762 L-105.28,-753.953 C-109.062,-740.542 -111.694,-726.832 -113.146,-712.973 L-126.124,-710.795 C-132.021,-723.42 -138.985,-735.518 -146.94,-746.96 L-160.674,-744.129 C-163.456,-730.474 -165.068,-716.608 -165.492,-702.68 L-178.274,-699.549 C-185.087,-711.704 -192.926,-723.255 -201.703,-734.078 L-215.192,-730.24 C-216.957,-716.418 -217.54,-702.47 -216.935,-688.549 L-229.45,-684.482 C-237.144,-696.101 -245.814,-707.042 -255.366,-717.186 L-268.534,-712.363 C-269.274,-698.448 -268.826,-684.495 -267.194,-670.657 L-279.375,-665.677 C-287.905,-676.696 -297.359,-686.966 -307.636,-696.378 L-320.411,-690.595 C-320.121,-676.664 -318.644,-662.782 -315.994,-649.102 L-327.774,-643.236 C-337.095,-653.595 -347.282,-663.139 -358.225,-671.766 L-370.539,-665.056 C-369.221,-651.184 -366.722,-637.449 -363.07,-624.002 L-374.384,-617.282 C-384.444,-626.924 -395.309,-635.69 -406.859,-643.486 L-418.643,-635.884 C-416.305,-622.147 -412.798,-608.635 -408.163,-595.494 L-418.95,-587.957 C-429.695,-596.83 -441.177,-604.77 -453.271,-611.69 L-464.462,-603.239 C-461.115,-589.713 -456.621,-576.496 -451.027,-563.734 L-461.228,-555.421 C-472.599,-563.475 -484.636,-570.546 -497.209,-576.554 L-507.745,-567.3 C-503.408,-554.057 -497.95,-541.209 -491.429,-528.894 L-500.989,-519.851 C-512.923,-527.044 -525.449,-533.206 -538.431,-538.269 L-548.255,-528.262 C-542.952,-515.376 -536.56,-502.966 -529.148,-491.166 L-538.013,-481.441 C-550.446,-487.733 -563.393,-492.953 -576.714,-497.045 L-585.772,-486.339 C-579.532,-473.88 -572.24,-461.976 -563.977,-450.756 L-572.1,-440.403 C-584.964,-445.759 -598.261,-450.009 -611.847,-453.105 L-620.09,-441.76 C-612.947,-429.796 -604.796,-418.462 -595.726,-407.883 L-603.063,-396.959 C-616.287,-401.351 -629.862,-404.607 -643.64,-406.691 L-651.022,-394.768 C-643.015,-383.364 -634.049,-372.663 -624.223,-362.783 L-630.733,-351.346 C-644.245,-354.75 -658.023,-356.994 -671.917,-358.056 L-678.399,-345.62 C-669.572,-334.838 -659.84,-324.829 -649.311,-315.702 L-654.958,-303.815 C-668.685,-306.212 -682.592,-307.432 -696.526,-307.465 L-702.072,-294.584 C-692.472,-284.484 -682.028,-275.221 -670.854,-266.896 L-675.608,-254.625 C-689.474,-256.001 -703.433,-256.191 -717.331,-255.194 L-721.911,-241.94 C-711.591,-232.576 -700.492,-224.109 -688.733,-216.632 L-692.568,-204.044 C-706.498,-204.392 -720.432,-203.551 -734.22,-201.53 L-737.807,-187.974 C-726.825,-179.398 -715.13,-171.774 -702.852,-165.186 L-705.746,-152.349 C-719.664,-151.667 -733.498,-149.799 -747.099,-146.766 L-749.675,-132.981 C-738.089,-125.239 -725.864,-118.5 -713.132,-112.837 L-715.07,-99.821 C-728.9,-98.1133 -742.559,-95.229 -755.898,-91.1994 L-757.449,-77.2621 C-745.323,-70.3974 -732.633,-64.5795 -719.518,-59.8719 L-720.49,-46.7483 C-734.156,-44.0239 -747.564,-40.1387 -760.569,-35.135 L-761.087,-21.1212 C-748.487,-15.1708 -735.402,-10.306 -721.975,-6.57975 L-721.975,6.57975 C-735.402,10.306 -748.487,15.1708 -761.087,21.1212 L-760.569,35.135 C-747.564,40.1387 -734.156,44.0239 -720.49,46.7483 L-719.518,59.8719 C-732.633,64.5795 -745.323,70.3974 -757.449,77.2621 L-755.898,91.1994 C-742.559,95.229 -728.9,98.1133 -715.07,99.821 L-713.132,112.837 C-725.864,118.5 -738.089,125.239 -749.675,132.981 L-747.099,146.766 C-733.498,149.799 -719.664,151.667 -705.746,152.349 L-702.852,165.186 C-715.13,171.774 -726.825,179.398 -737.807,187.974 L-734.22,201.53 C-720.432,203.551 -706.498,204.392 -692.568,204.044 L-688.733,216.632 C-700.492,224.109 -711.591,232.576 -721.911,241.94 L-717.331,255.194 C-703.433,256.191 -689.474,256.001 -675.608,254.625 L-670.854,266.896 C-682.028,275.221 -692.472,284.484 -702.072,294.584 L-696.526,307.465 C-682.592,307.432 -668.685,306.212 -654.958,303.815 L-649.311,315.702 C-659.84,324.829 -669.572,334.838 -678.399,345.62 L-671.917,358.056 C-658.023,356.994 -644.245,354.75 -630.733,351.346 L-624.223,362.783 C-634.049,372.663 -643.015,383.364 -651.022,394.768 L-643.64,406.691 C-629.862,404.607 -616.287,401.351 -603.063,396.959 L-595.726,407.883 C-604.796,418.462 -612.947,429.796 -620.09,441.76 L-611.847,453.105 C-598.261,450.009 -584.964,445.759 -572.1,440.403 L-563.977,450.756 C-572.24,461.976 -579.532,473.88 -585.772,486.339 L-576.714,497.045 C-563.393,492.953 -550.446,487.733 -538.013,481.441 L-529.148,491.166 C-536.56,502.966 -542.952,515.376 -548.255,528.262 L-538.431,538.269 C-525.449,533.206 -512.923,527.044 -500.989,519.851 L-491.429,528.894 C-497.95,541.209 -503.408,554.057 -507.745,567.3 L-497.209,576.554 C-484.636,570.546 -472.599,563.475 -461.228,555.421 L-451.027,563.734 C-456.621,576.496 -461.115,589.713 -464.462,603.239 L-453.271,611.69 C-441.177,604.77 -429.695,596.83 -418.95,587.957 L-408.163,595.494 C-412.798,608.635 -416.305,622.147 -418.643,635.884 L-406.859,643.486 C-395.309,635.69 -384.444,626.924 -374.384,617.282 L-363.07,624.002 C-366.722,637.449 -369.221,651.184 -370.539,665.056 L-358.225,671.766 C-347.282,663.139 -337.095,653.595 -327.774,643.236 L-315.994,649.102 C-318.644,662.782 -320.121,676.664 -320.411,690.595 L-307.636,696.378 C-297.359,686.966 -287.905,676.696 -279.375,665.677 L-267.194,670.657 C-268.826,684.495 -269.274,698.448 -268.534,712.363 L-255.366,717.186 C-245.814,707.042 -237.144,696.101 -229.45,684.482 L-216.935,688.549 C-217.54,702.47 -216.957,716.418 -215.192,730.24 L-201.703,734.078 C-192.926,723.255 -185.087,711.704 -178.274,699.549 L-165.492,702.68 C-165.068,716.608 -163.456,730.474 -160.674,744.129 L-146.94,746.96 C-138.985,735.518 -132.021,723.42 -126.124,710.795 L-113.146,712.973 C-111.694,726.832 -109.062,740.542 -105.28,753.953 L-91.3738,755.762 C-84.2861,743.765 -78.2347,731.185 -73.2855,718.159 L-60.1822,719.373 C-57.7107,733.086 -54.074,746.564 -49.3115,759.66 L-35.3097,760.437 C-29.1274,747.949 -24.0216,734.956 -20.0479,721.6 L-6.89066,721.843 C-3.41321,735.337 1.20896,748.509 6.92558,761.217 L20.9466,760.958 C26.1897,748.048 30.322,734.713 33.2985,721.101 L46.4378,720.371 C50.9022,733.571 56.4846,746.366 63.1241,758.617 L77.0877,757.324 C81.3631,744.061 84.4993,730.458 86.4623,716.663 L99.5118,714.965 C104.939,727.799 111.451,740.147 118.977,751.874 L132.807,749.553 C136.091,736.011 138.214,722.213 139.153,708.31 L152.042,705.654 C158.402,718.052 165.808,729.885 174.18,741.025 L187.8,737.688 C190.076,723.94 191.174,710.024 191.083,696.09 L203.74,692.488 C210.999,704.383 219.259,715.637 228.43,726.128 L241.767,721.794 C243.021,707.916 243.088,693.957 241.969,680.067 L254.326,675.541 C262.443,686.867 271.511,697.48 281.433,707.265 L294.413,701.958 C294.638,688.026 293.675,674.099 291.533,660.33 L303.521,654.904 C312.453,665.6 322.28,675.514 332.897,684.54 L345.45,678.289 C344.646,664.377 342.656,650.56 339.503,636.987 L351.058,630.69 C360.755,640.697 371.288,649.859 382.542,658.075 L394.6,650.914 C392.77,637.101 389.766,623.468 385.619,610.165 L396.677,603.032 C407.087,612.295 418.268,620.654 430.098,628.017 L441.594,619.985 C438.749,606.344 434.746,592.971 429.628,580.01 L440.129,572.08 C451.194,580.549 462.962,588.059 475.304,594.528 L486.175,585.67 C482.33,572.276 477.351,559.235 471.289,546.687 L481.176,538.003 C492.837,545.632 505.127,552.253 517.913,557.793 L528.1,548.155 C523.277,535.082 517.347,522.444 510.376,510.379 L519.595,500.988 C531.787,507.735 544.532,513.43 557.693,518.011 L567.14,507.647 C561.365,494.966 554.518,482.8 546.675,471.283 L555.175,461.237 C567.832,467.065 580.963,471.803 594.426,475.4 L603.082,464.367 C596.386,452.147 588.66,440.52 579.987,429.613 L587.722,418.967 C600.775,423.844 614.22,427.6 627.911,430.192 L635.729,418.55 C628.149,406.858 619.585,395.833 610.131,385.597 L617.058,374.408 C630.436,378.309 644.122,381.061 657.967,382.635 L664.904,370.447 C656.481,359.346 647.126,348.985 636.942,339.474 L643.024,327.805 C656.653,330.707 670.505,332.44 684.429,332.988 L690.446,320.321 C681.226,309.873 671.132,300.23 660.273,291.498 L665.477,279.411 C679.283,281.298 693.225,282.004 707.151,281.522 L712.217,268.445 C702.251,258.707 691.472,249.836 679.997,241.929 L684.294,229.491 C698.202,230.354 712.158,230.028 726.011,228.518 L730.097,215.104 C719.439,206.128 708.034,198.077 696.007,191.04 L699.374,178.318 C713.307,178.151 727.201,176.796 740.904,174.267 L743.989,160.587 C732.697,152.423 720.729,145.236 708.215,139.106 L710.633,126.171 C724.516,124.975 738.272,122.598 751.751,119.064 L753.816,105.193 C741.952,97.8853 729.486,91.6025 716.554,86.4134 L718.01,73.3347 C731.767,71.1172 745.31,67.7301 758.491,63.2104 L759.526,49.2253 C747.155,42.8133 734.259,37.4683 720.979,33.2485 L721.465,20.098 C735.02,16.8705 748.276,12.4925 761.087,7.0117 " fill-rule="evenodd" vector-effect="non-scaling-stroke"/>
   </g>
   <g fill="none" fill-opacity="1" font-family="Noto Sans" font-size="42.3333" font-style="normal" font-weight="400" stroke="#000000" transform="matrix(1,0,0,1,785.392,2213.13)">
    <path d="M164.077,-43.9992 L639.302,-55.9431 C622.766,-244.955 523.455,-416.966 368.034,-525.793 L120.078,-120.208 C141.179,-99.1072 156.354,-72.8237 164.077,-43.9992 " fill-rule="evenodd" vector-effect="non-scaling-stroke"/>
   </g>
   <g fill="none" fill-opacity="1" font-family="Noto Sans" font-size="42.3333" font-style="normal" font-weight="400" stroke="#000000" transform="matrix(1,0,0,1,785.392,2213.13)">
    <path d="M-164.338,43.9992 L-639.563,55.9431 C-623.026,244.955 -523.715,416.966 -368.295,525.793 L-120.339,120.208 C-141.439,99.1072 -156.614,72.8237 -164.338,43.9992 " fill-rule="evenodd" vector-effect="non-scaling-stroke"/>
   </g>
   <g fill="none" fill-opacity="1" font-family="Noto Sans" font-size="42.3333" font-style="normal" font-weight="400" stroke="#000000" transform="matrix(1,0,0,1,785.392,2213.13)">
    <path d="M-120.339,-120.208 L-368.295,-525.793 C-523.715,-416.966 -623.026,-244.955 -639.563,-55.9431 L-164.338,-43.9992 C-156.614,-72.8237 -141.439,-99.1072 -120.339,-120.208 " fill-rule="evenodd" vector-effect="non-scaling-stroke"/>
   </g>
   <g fill="none" fill-opacity="1" font-family="Noto Sans" font-size="42.3333" font-style="normal" font-weight="400" stroke="#000000" transform="matrix(1,0,0,1,785.392,2213.13)">
    <path d="M-44.1296,164.207 L-271.398,581.736 C-99.4414,661.921 99.1806,661.921 271.138,581.736 L43.8689,164.207 C15.0444,171.931 -15.3052,171.931 -44.1296,164.207 " fill-rule="evenodd" vector-effect="non-scaling-stroke"/>
   </g>
   <g fill="none" fill-opacity="1" font-family="Noto Sans" font-size="42.3333" font-style="normal" font-weight="400" stroke="#000000" transform="matrix(1,0,0,1,785.392,2213.13)">
    <path d="M43.8689,-164.207 L271.138,-581.736 C99.1806,-661.921 -99.4414,-661.921 -271.398,-581.736 L-44.1296,-164.207 C-15.3052,-171.931 15.0444,-171.931 43.8689,-164.207 " fill-rule="evenodd" vector-effect="non-scaling-stroke"/>
   </g>
   <g fill="none" fill-opacity="1" font-family="Noto Sans" font-size="42.3333" font-style="normal" font-weight="400" stroke="#000000" transform="matrix(1,0,0,1,785.392,2213.13)">
    <path d="M120.078,120.208 L368.034,525.793 C523.455,416.966 622.766,244.955 639.302,55.9431 L164.077,43.9992 C156.354,72.8237 141.179,99.1072 120.078,120.208 " fill-rule="evenodd" vector-effect="non-scaling-stroke"/>
   </g>
   <g fill="none" fill-opacity="1" font-family="Noto Sans" font-size="42.3333" font-style="normal" font-weight="400" stroke="#000000" transform="matrix(1,0,0,1,785.392,2213.13)">
    <path d="M-45.1304,-60 L-45.1304,60 L44.8696,60 L44.8696,-60 L-45.1304,-60" fill-rule="evenodd" vector-effect="non-scaling-stroke"/>
   </g>
   <g fill="none" fill-opacity="1" font-family="Noto Sans" font-size="42.3333" font-style="normal" font-weight="400" stroke="#000000" transform="matrix(1,0,0,1,188.967,550.149)">
    <path d="M164.318,27.0233 L165.858,15.3303 C158.467,9.04724 149.608,4.73313 140.104,2.78831 L127.204,2.48386 L126.145,-17.1324 L138.938,-18.8231 C148.178,-21.7791 156.521,-27.0213 163.193,-34.0631 L160.404,-45.5226 C151.243,-48.7114 141.424,-49.5341 131.859,-47.9144 L119.72,-43.5381 L111.647,-61.4474 L122.965,-67.6453 C130.513,-73.7393 136.399,-81.6413 140.076,-90.6178 L133.337,-100.296 C123.642,-99.9601 114.189,-97.1803 105.855,-92.2149 L96.1163,-83.7487 L82.1188,-97.5323 L90.434,-107.4 C95.2705,-115.809 97.9044,-125.304 98.0911,-135.003 L88.3102,-141.593 C79.3913,-137.777 71.5809,-131.771 65.6038,-124.13 L59.5809,-112.717 L41.5495,-120.514 L45.7384,-132.719 C47.2106,-142.308 46.2367,-152.113 42.9072,-161.224 L31.4061,-163.836 C24.4679,-157.056 19.3549,-148.633 16.5415,-139.35 L15.048,-126.532 L-4.58225,-127.288 L-5.08533,-140.183 C-7.17627,-149.655 -11.6263,-158.446 -18.0224,-165.74 L-29.6903,-164.02 C-33.7108,-155.192 -35.436,-145.491 -34.7058,-135.818 L-31.4681,-123.326 L-50.0459,-116.94 L-55.1731,-128.782 C-60.5447,-136.86 -67.8699,-143.45 -76.4688,-147.94 L-86.7277,-142.122 C-87.2876,-132.437 -85.3919,-122.768 -81.2166,-114.012 L-73.6851,-103.534 L-88.7015,-90.8677 L-97.7602,-100.058 C-105.687,-105.65 -114.898,-109.148 -124.539,-110.229 L-132.003,-101.098 C-129.027,-91.8652 -123.766,-83.5339 -116.71,-76.8773 L-105.901,-69.8271 L-115.328,-52.5919 L-127.095,-57.8891 C-136.507,-60.2397 -146.36,-60.1747 -155.739,-57.7001 L-159.401,-46.4891 C-153.291,-38.9549 -145.376,-33.0865 -136.391,-29.4285 L-123.766,-26.7587 L-126.33,-7.282 L-139.216,-7.97081 C-148.841,-6.76282 -158.005,-3.14292 -165.858,2.55295 L-165.222,14.3297 C-156.803,19.1477 -147.302,21.7606 -137.603,21.926 L-124.866,19.8547 L-120.221,38.9425 L-132.486,42.9551 C-141.025,47.5586 -148.262,54.2445 -153.527,62.3924 L-148.68,73.1444 C-139.089,74.5954 -129.286,73.6 -120.182,70.2504 L-109.053,63.7179 L-97.8266,79.8388 L-107.813,88.0109 C-114.113,95.3881 -118.446,104.237 -120.412,113.737 L-112.009,122.012 C-102.541,119.9 -93.7594,115.43 -86.4801,109.018 L-78.4627,98.9068 L-62.1708,109.884 L-68.5312,121.112 C-71.7401,130.266 -72.5845,140.083 -70.9859,149.651 L-60.1606,154.332 C-52.0948,148.942 -45.5211,141.603 -41.0497,132.994 L-37.2264,120.669 L-18.0694,125.019 L-19.9442,137.787 C-19.6295,147.482 -16.8706,156.941 -11.9235,165.286 L-0.138372,165.74 C5.4359,157.8 8.91425,148.582 9.97387,138.939 L9.0867,126.065 L28.5216,123.201 L31.3855,135.784 C35.1814,144.711 41.171,152.535 48.7984,158.529 L59.9517,154.695 C62.2816,145.278 62.1948,135.425 59.6996,126.051 L54.2218,114.367 L71.3098,104.676 L78.5256,115.374 C85.2901,122.327 93.7014,127.459 102.979,130.293 L111.994,122.689 C110.765,113.066 107.125,103.91 101.412,96.0701 L92.0831,87.1539 L104.516,71.9444 L115.11,79.3135 C123.929,83.3535 133.626,85.1001 143.301,84.3912 L148.96,74.0439 C144.338,65.5152 137.636,58.2923 129.477,53.0457 L117.557,48.1015 L123.657,29.4276 L136.196,32.4724 C145.88,33.0536 155.553,31.1793 164.318,27.0233 " fill-rule="evenodd" vector-effect="non-scaling-stroke"/>
   </g>
   <g fill="none" fill-opacity="1" font-family="Noto Sans" font-size="42.3333" font-style="normal" font-weight="400" stroke="#000000" transform="matrix(1,0,0,1,188.967,550.149)">
    <path d="M50.364,59.4905 L-49.636,59.4905 L-49.636,-60.5095 L50.364,-60.5095 L50.364,59.4905" fill-rule="evenodd" vector-effect="non-scaling-stroke"/>
   </g>
   <g fill="none" fill-opacity="1" font-family="Noto Sans" font-size="42.3333" font-style="normal" font-weight="400" stroke="#000000" transform="matrix(1,0,0,1,537.773,523.692)">
    <path d="M164.318,27.0233 L165.858,15.3303 C158.467,9.04724 149.608,4.73313 140.104,2.78831 L127.204,2.48386 L126.145,-17.1324 L138.938,-18.8231 C148.178,-21.7791 156.521,-27.0213 163.193,-34.0631 L160.404,-45.5226 C151.243,-48.7114 141.424,-49.5341 131.859,-47.9144 L119.72,-43.5381 L111.647,-61.4474 L122.965,-67.6453 C130.513,-73.7393 136.399,-81.6413 140.076,-90.6178 L133.337,-100.296 C123.642,-99.9601 114.189,-97.1803 105.855,-92.2149 L96.1163,-83.7487 L82.1188,-97.5323 L90.434,-107.4 C95.2705,-115.809 97.9044,-125.304 98.0911,-135.003 L88.3102,-141.593 C79.3913,-137.777 71.5809,-131.771 65.6038,-124.13 L59.5809,-112.717 L41.5495,-120.514 L45.7384,-132.719 C47.2106,-142.308 46.2367,-152.113 42.9072,-161.224 L31.4061,-163.836 C24.4679,-157.056 19.3549,-148.633 16.5415,-139.35 L15.048,-126.532 L-4.58225,-127.288 L-5.08533,-140.183 C-7.17627,-149.655 -11.6263,-158.446 -18.0224,-165.74 L-29.6903,-164.02 C-33.7108,-155.192 -35.436,-145.491 -34.7058,-135.818 L-31.4681,-123.326 L-50.0459,-116.94 L-55.1731,-128.782 C-60.5447,-136.86 -67.8699,-143.45 -76.4688,-147.94 L-86.7277,-142.122 C-87.2876,-132.437 -85.3919,-122.768 -81.2166,-114.012 L-73.6851,-103.534 L-88.7015,-90.8677 L-97.7602,-100.058 C-105.687,-105.65 -114.898,-109.148 -124.539,-110.229 L-132.003,-101.098 C-129.027,-91.8652 -123.766,-83.5339 -116.71,-76.8773 L-105.901,-69.8271 L-115.328,-52.5919 L-127.095,-57.8891 C-136.507,-60.2397 -146.36,-60.1747 -155.739,-57.7001 L-159.401,-46.4891 C-153.291,-38.9549 -145.376,-33.0865 -136.391,-29.4285 L-123.766,-26.7587 L-126.33,-7.282 L-139.216,-7.97081 C-148.841,-6.76282 -158.005,-3.14292 -165.858,2.55295 L-165.222,14.3297 C-156.803,19.1477 -147.302,21.7606 -137.603,21.926 L-124.866,19.8547 L-120.221,38.9425 L-132.486,42.9551 C-141.025,47.5586 -148.262,54.2445 -153.527,62.3924 L-148.68,73.1444 C-139.089,74.5954 -129.286,73.6 -120.182,70.2504 L-109.053,63.7179 L-97.8266,79.8388 L-107.813,88.0109 C-114.113,95.3881 -118.446,104.237 -120.412,113.737 L-112.009,122.012 C-102.541,119.9 -93.7594,115.43 -86.4801,109.018 L-78.4627,98.9068 L-62.1708,109.884 L-68.5312,121.112 C-71.7401,130.266 -72.5845,140.083 -70.9859,149.651 L-60.1606,154.332 C-52.0948,148.942 -45.5211,141.603 -41.0497,132.994 L-37.2264,120.669 L-18.0694,125.019 L-19.9442,137.787 C-19.6295,147.482 -16.8706,156.941 -11.9235,165.286 L-0.138372,165.74 C5.4359,157.8 8.91425,148.582 9.97387,138.939 L9.0867,126.065 L28.5216,123.201 L31.3855,135.784 C35.1814,144.711 41.171,152.535 48.7984,158.529 L59.9517,154.695 C62.2816,145.278 62.1948,135.425 59.6996,126.051 L54.2218,114.367 L71.3098,104.676 L78.5256,115.374 C85.2901,122.327 93.7014,127.459 102.979,130.293 L111.994,122.689 C110.765,113.066 107.125,103.91 101.412,96.0701 L92.0831,87.1539 L104.516,71.9444 L115.11,79.3135 C123.929,83.3535 133.626,85.1001 143.301,84.3912 L148.96,74.0439 C144.338,65.5152 137.636,58.2923 129.477,53.0457 L117.557,48.1015 L123.657,29.4276 L136.196,32.4724 C145.88,33.0536 155.553,31.1793 164.318,27.0233 " fill-rule="evenodd" vector-effect="non-scaling-stroke"/>
   </g>
   <g fill="none" fill-opacity="1" font-family="Noto Sans" font-size="42.3333" font-style="normal" font-weight="400" stroke="#000000" transform="matrix(1,0,0,1,537.773,523.692)">
    <path d="M50.364,59.4905 L-49.636,59.4905 L-49.636,-60.5095 L50.364,-60.5095 L50.364,59.4905" fill-rule="evenodd" vector-effect="non-scaling-stroke"/>
   </g>
   <g fill="none" fill-opacity="1" font-family="Noto Sans" font-size="42.3333" font-style="normal" font-weight="400" stroke="#000000" transform="matrix(1,0,0,1,2343.18,2213.13)">
    <path d="M761.087,7.0117 L761.087,-7.0117 C748.276,-12.4925 735.02,-16.8705 721.465,-20.098 L720.979,-33.2485 C734.259,-37.4683 747.155,-42.8133 759.526,-49.2253 L758.491,-63.2104 C745.31,-67.7301 731.767,-71.1172 718.01,-73.3347 L716.554,-86.4134 C729.486,-91.6025 741.952,-97.8853 753.816,-105.193 L751.751,-119.064 C738.272,-122.598 724.516,-124.975 710.633,-126.171 L708.215,-139.106 C720.729,-145.236 732.697,-152.423 743.989,-160.587 L740.904,-174.267 C727.201,-176.796 713.307,-178.151 699.374,-178.318 L696.007,-191.04 C708.034,-198.077 719.439,-206.128 730.097,-215.104 L726.011,-228.518 C712.158,-230.028 698.202,-230.354 684.294,-229.491 L679.997,-241.929 C691.472,-249.836 702.251,-258.707 712.217,-268.445 L707.151,-281.522 C693.225,-282.004 679.283,-281.298 665.477,-279.411 L660.273,-291.498 C671.132,-300.23 681.226,-309.873 690.446,-320.321 L684.429,-332.988 C670.505,-332.44 656.653,-330.707 643.024,-327.805 L636.942,-339.474 C647.126,-348.985 656.481,-359.346 664.904,-370.447 L657.967,-382.635 C644.122,-381.061 630.436,-378.309 617.058,-374.408 L610.131,-385.597 C619.585,-395.833 628.149,-406.858 635.729,-418.55 L627.911,-430.192 C614.22,-427.6 600.775,-423.844 587.722,-418.967 L579.987,-429.613 C588.66,-440.52 596.386,-452.147 603.082,-464.367 L594.426,-475.4 C580.963,-471.803 567.832,-467.065 555.175,-461.237 L546.675,-471.283 C554.518,-482.8 561.365,-494.966 567.14,-507.647 L557.693,-518.011 C544.532,-513.43 531.787,-507.735 519.595,-500.988 L510.376,-510.379 C517.347,-522.444 523.277,-535.082 528.1,-548.155 L517.913,-557.793 C505.127,-552.253 492.837,-545.632 481.176,-538.003 L471.289,-546.687 C477.351,-559.235 482.33,-572.276 486.175,-585.67 L475.304,-594.528 C462.962,-588.059 451.194,-580.549 440.129,-572.08 L429.628,-580.01 C434.746,-592.971 438.749,-606.344 441.594,-619.985 L430.098,-628.017 C418.268,-620.654 407.087,-612.295 396.677,-603.032 L385.619,-610.165 C389.766,-623.468 392.77,-637.101 394.6,-650.914 L382.542,-658.075 C371.288,-649.859 360.755,-640.697 351.058,-630.69 L339.503,-636.987 C342.656,-650.56 344.646,-664.377 345.45,-678.289 L332.897,-684.54 C322.28,-675.514 312.453,-665.6 303.521,-654.904 L291.533,-660.33 C293.675,-674.099 294.638,-688.026 294.413,-701.958 L281.433,-707.265 C271.511,-697.48 262.443,-686.867 254.326,-675.541 L241.969,-680.067 C243.088,-693.957 243.021,-707.916 241.767,-721.794 L228.43,-726.128 C219.259,-715.637 210.999,-704.383 203.74,-692.488 L191.083,-696.09 C191.174,-710.024 190.076,-723.94 187.8,-737.688 L174.18,-741.025 C165.808,-729.885 158.402,-718.052 152.042,-705.654 L139.153,-708.31 C138.214,-722.213 136.091,-736.011 132.807,-749.553 L118.977,-751.874 C111.451,-740.147 104.939,-727.799 99.5118,-714.965 L86.4623,-716.663 C84.4993,-730.458 81.3631,-744.061 77.0877,-757.324 L63.1241,-758.617 C56.4846,-746.366 50.9022,-733.571 46.4378,-720.371 L33.2985,-721.101 C30.322,-734.713 26.1897,-748.048 20.9466,-760.958 L6.92558,-761.217 C1.20896,-748.509 -3.41321,-735.337 -6.89066,-721.843 L-20.0479,-721.6 C-24.0216,-734.956 -29.1274,-747.949 -35.3097,-760.437 L-49.3115,-759.66 C-54.074,-746.564 -57.7107,-733.086 -60.1822,-719.373 L-73.2855,-718.159 C-78.2347,-731.185 -84.2861,-743.765 -91.3738,-755.762 L-105.28,-753.953 C-109.062,-740.542 -111.694,-726.832 -113.146,-712.973 L-126.124,-710.795 C-132.021,-723.42 -138.985,-735.518 -146.94,-746.96 L-160.674,-744.129 C-163.456,-730.474 -165.068,-716.608 -165.492,-702.68 L-178.274,-699.549 C-185.087,-711.704 -192.926,-723.255 -201.703,-734.078 L-215.192,-730.24 C-216.957,-716.418 -217.54,-702.47 -216.935,-688.549 L-229.45,-684.482 C-237.144,-696.101 -245.814,-707.042 -255.366,-717.186 L-268.534,-712.363 C-269.274,-698.448 -268.826,-684.495 -267.194,-670.657 L-279.375,-665.677 C-287.905,-676.696 -297.359,-686.966 -307.636,-696.378 L-320.411,-690.595 C-320.121,-676.664 -318.644,-662.782 -315.994,-649.102 L-327.774,-643.236 C-337.095,-653.595 -347.282,-663.139 -358.225,-671.766 L-370.539,-665.056 C-369.221,-651.184 -366.722,-637.449 -363.07,-624.002 L-374.384,-617.282 C-384.444,-626.924 -395.309,-635.69 -406.859,-643.486 L-418.643,-635.884 C-416.305,-622.147 -412.798,-608.635 -408.163,-595.494 L-418.95,-587.957 C-429.695,-596.83 -441.177,-604.77 -453.271,-611.69 L-464.462,-603.239 C-461.115,-589.713 -456.621,-576.496 -451.027,-563.734 L-461.228,-555.421 C-472.599,-563.475 -484.636,-570.546 -497.209,-576.554 L-507.745,-567.3 C-503.408,-554.057 -497.95,-541.209 -491.429,-528.894 L-500.989,-519.851 C-512.923,-527.044 -525.449,-533.206 -538.431,-538.269 L-548.255,-528.262 C-542.952,-515.376 -536.56,-502.966 -529.148,-491.166 L-538.013,-481.441 C-550.446,-487.733 -563.393,-492.953 -576.714,-497.045 L-585.772,-486.339 C-579.532,-473.88 -572.24,-461.976 -563.977,-450.756 L-572.1,-440.403 C-584.964,-445.759 -598.261,-450.009 -611.847,-453.105 L-620.09,-441.76 C-612.947,-429.796 -604.796,-418.462 -595.726,-407.883 L-603.063,-396.959 C-616.287,-401.351 -629.862,-404.607 -643.64,-406.691 L-651.022,-394.768 C-643.015,-383.364 -634.049,-372.663 -624.223,-362.783 L-630.733,-351.346 C-644.245,-354.75 -658.023,-356.994 -671.917,-358.056 L-678.399,-345.62 C-669.572,-334.838 -659.84,-324.829 -649.311,-315.702 L-654.958,-303.815 C-668.685,-306.212 -682.592,-307.432 -696.526,-307.465 L-702.072,-294.584 C-692.472,-284.484 -682.028,-275.221 -670.854,-266.896 L-675.608,-254.625 C-689.474,-256.001 -703.433,-256.191 -717.331,-255.194 L-721.911,-241.94 C-711.591,-232.576 -700.492,-224.109 -688.733,-216.632 L-692.568,-204.044 C-706.498,-204.392 -720.432,-203.551 -734.22,-201.53 L-737.807,-187.974 C-726.825,-179.398 -715.13,-171.774 -702.852,-165.186 L-705.746,-152.349 C-719.664,-151.667 -733.498,-149.799 -747.099,-146.766 L-749.675,-132.981 C-738.089,-125.239 -725.864,-118.5 -713.132,-112.837 L-715.07,-99.821 C-728.9,-98.1133 -742.559,-95.229 -755.898,-91.1994 L-757.449,-77.2621 C-745.323,-70.3974 -732.633,-64.5795 -719.518,-59.8719 L-720.49,-46.7483 C-734.156,-44.0239 -747.564,-40.1387 -760.569,-35.135 L-761.087,-21.1212 C-748.487,-15.1708 -735.402,-10.306 -721.975,-6.57975 L-721.975,6.57975 C-735.402,10.306 -748.487,15.1708 -761.087,21.1212 L-760.569,35.135 C-747.564,40.1387 -734.156,44.0239 -720.49,46.7483 L-719.518,59.8719 C-732.633,64.5795 -745.323,70.3974 -757.449,77.2621 L-755.898,91.1994 C-742.559,95.229 -728.9,98.1133 -715.07,99.821 L-713.132,112.837 C-725.864,118.5 -738.089,125.239 -749.675,132.981 L-747.099,146.766 C-733.498,149.799 -719.664,151.667 -705.746,152.349 L-702.852,165.186 C-715.13,171.774 -726.825,179.398 -737.807,187.974 L-734.22,201.53 C-720.432,203.551 -706.498,204.392 -692.568,204.044 L-688.733,216.632 C-700.492,224.109 -711.591,232.576 -721.911,241.94 L-717.331,255.194 C-703.433,256.191 -689.474,256.001 -675.608,254.625 L-670.854,266.896 C-682.028,275.221 -692.472,284.484 -702.072,294.584 L-696.526,307.465 C-682.592,307.432 -668.685,306.212 -654.958,303.815 L-649.311,315.702 C-659.84,324.829 -669.572,334.838 -678.399,345.62 L-671.917,358.056 C-658.023,356.994 -644.245,354.75 -630.733,351.346 L-624.223,362.783 C-634.049,372.663 -643.015,383.364 -651.022,394.768 L-643.64,406.691 C-629.862,404.607 -616.287,401.351 -603.063,396.959 L-595.726,407.883 C-604.796,418.462 -612.947,429.796 -620.09,441.76 L-611.847,453.105 C-598.261,450.009 -584.964,445.759 -572.1,440.403 L-563.977,450.756 C-572.24,461.976 -579.532,473.88 -585.772,486.339 L-576.714,497.045 C-563.393,492.953 -550.446,487.733 -538.013,481.441 L-529.148,491.166 C-536.56,502.966 -542.952,515.376 -548.255,528.262 L-538.431,538.269 C-525.449,533.206 -512.923,527.044 -500.989,519.851 L-491.429,528.894 C-497.95,541.209 -503.408,554.057 -507.745,567.3 L-497.209,576.554 C-484.636,570.546 -472.599,563.475 -461.228,555.421 L-451.027,563.734 C-456.621,576.496 -461.115,589.713 -464.462,603.239 L-453.271,611.69 C-441.177,604.77 -429.695,596.83 -418.95,587.957 L-408.163,595.494 C-412.798,608.635 -416.305,622.147 -418.643,635.884 L-406.859,643.486 C-395.309,635.69 -384.444,626.924 -374.384,617.282 L-363.07,624.002 C-366.722,637.449 -369.221,651.184 -370.539,665.056 L-358.225,671.766 C-347.282,663.139 -337.095,653.595 -327.774,643.236 L-315.994,649.102 C-318.644,662.782 -320.121,676.664 -320.411,690.595 L-307.636,696.378 C-297.359,686.966 -287.905,676.696 -279.375,665.677 L-267.194,670.657 C-268.826,684.495 -269.274,698.448 -268.534,712.363 L-255.366,717.186 C-245.814,707.042 -237.144,696.101 -229.45,684.482 L-216.935,688.549 C-217.54,702.47 -216.957,716.418 -215.192,730.24 L-201.703,734.078 C-192.926,723.255 -185.087,711.704 -178.274,699.549 L-165.492,702.68 C-165.068,716.608 -163.456,730.474 -160.674,744.129 L-146.94,746.96 C-138.985,735.518 -132.021,723.42 -126.124,710.795 L-113.146,712.973 C-111.694,726.832 -109.062,740.542 -105.28,753.953 L-91.3738,755.762 C-84.2861,743.765 -78.2347,731.185 -73.2855,718.159 L-60.1822,719.373 C-57.7107,733.086 -54.074,746.564 -49.3115,759.66 L-35.3097,760.437 C-29.1274,747.949 -24.0216,734.956 -20.0479,721.6 L-6.89066,721.843 C-3.41321,735.337 1.20896,748.509 6.92558,761.217 L20.9466,760.958 C26.1897,748.048 30.322,734.713 33.2985,721.101 L46.4378,720.371 C50.9022,733.571 56.4846,746.366 63.1241,758.617 L77.0877,757.324 C81.3631,744.061 84.4993,730.458 86.4623,716.663 L99.5118,714.965 C104.939,727.799 111.451,740.147 118.977,751.874 L132.807,749.553 C136.091,736.011 138.214,722.213 139.153,708.31 L152.042,705.654 C158.402,718.052 165.808,729.885 174.18,741.025 L187.8,737.688 C190.076,723.94 191.174,710.024 191.083,696.09 L203.74,692.488 C210.999,704.383 219.259,715.637 228.43,726.128 L241.767,721.794 C243.021,707.916 243.088,693.957 241.969,680.067 L254.326,675.541 C262.443,686.867 271.511,697.48 281.433,707.265 L294.413,701.958 C294.638,688.026 293.675,674.099 291.533,660.33 L303.521,654.904 C312.453,665.6 322.28,675.514 332.897,684.54 L345.45,678.289 C344.646,664.377 342.656,650.56 339.503,636.987 L351.058,630.69 C360.755,640.697 371.288,649.859 382.542,658.075 L394.6,650.914 C392.77,637.101 389.766,623.468 385.619,610.165 L396.677,603.032 C407.087,612.295 418.268,620.654 430.098,628.017 L441.594,619.985 C438.749,606.344 434.746,592.971 429.628,580.01 L440.129,572.08 C451.194,580.549 462.962,588.059 475.304,594.528 L486.175,585.67 C482.33,572.276 477.351,559.235 471.289,546.687 L481.176,538.003 C492.837,545.632 505.127,552.253 517.913,557.793 L528.1,548.155 C523.277,535.082 517.347,522.444 510.376,510.379 L519.595,500.988 C531.787,507.735 544.532,513.43 557.693,518.011 L567.14,507.647 C561.365,494.966 554.518,482.8 546.675,471.283 L555.175,461.237 C567.832,467.065 580.963,471.803 594.426,475.4 L603.082,464.367 C596.386,452.147 588.66,440.52 579.987,429.613 L587.722,418.967 C600.775,423.844 614.22,427.6 627.911,430.192 L635.729,418.55 C628.149,406.858 619.585,395.833 610.131,385.597 L617.058,374.408 C630.436,378.309 644.122,381.061 657.967,382.635 L664.904,370.447 C656.481,359.346 647.126,348.985 636.942,339.474 L643.024,327.805 C656.653,330.707 670.505,332.44 684.429,332.988 L690.446,320.321 C681.226,309.873 671.132,300.23 660.273,291.498 L665.477,279.411 C679.283,281.298 693.225,282.004 707.151,281.522 L712.217,268.445 C702.251,258.707 691.472,249.836 679.997,241.929 L684.294,229.491 C698.202,230.354 712.158,230.028 726.011,228.518 L730.097,215.104 C719.439,206.128 708.034,198.077 696.007,191.04 L699.374,178.318 C713.307,178.151 727.201,176.796 740.904,174.267 L743.989,160.587 C732.697,152.423 720.729,145.236 708.215,139.106 L710.633,126.171 C724.516,124.975 738.272,122.598 751.751,119.064 L753.816,105.193 C741.952,97.8853 729.486,91.6025 716.554,86.4134 L718.01,73.3347 C731.767,71.1172 745.31,67.7301 758.491,63.2104 L759.526,49.2253 C747.155,42.8133 734.259,37.4683 720.979,33.2485 L721.465,20.098 C735.02,16.8705 748.276,12.4925 761.087,7.0117 " fill-rule="evenodd" vector-effect="non-scaling-stroke"/>
   </g>
   <g fill="none" fill-opacity="1" font-family="Noto Sans" font-size="42.3333" font-style="normal" font-weight="400" stroke="#000000" transform="matrix(1,0,0,1,2343.18,2213.13)">
    <path d="M164.077,-43.9992 L639.302,-55.9431 C622.766,-244.955 523.455,-416.966 368.034,-525.793 L120.078,-120.208 C141.179,-99.1072 156.354,-72.8237 164.077,-43.9992 " fill-rule="evenodd" vector-effect="non-scaling-stroke"/>
   </g>
   <g fill="none" fill-opacity="1" font-family="Noto Sans" font-size="42.3333" font-style="normal" font-weight="400" stroke="#000000" transform="matrix(1,0,0,1,2343.18,2213.13)">
    <path d="M-164.338,43.9992 L-639.563,55.9431 C-623.026,244.955 -523.715,416.966 -368.295,525.793 L-120.339,120.208 C-141.439,99.1072 -156.614,72.8237 -164.338,43.9992 " fill-rule="evenodd" vector-effect="non-scaling-stroke"/>
   </g>
   <g fill="none" fill-opacity="1" font-family="Noto Sans" font-size="42.3333" font-style="normal" font-weight="400" stroke="#000000" transform="matrix(1,0,0,1,2343.18,2213.13)">
    <path d="M-120.339,-120.208 L-368.295,-525.793 C-523.715,-416.966 -623.026,-244.955 -639.563,-55.9431 L-164.338,-43.9992 C-156.614,-72.8237 -141.439,-99.1072 -120.339,-120.208 " fill-rule="evenodd" vector-effect="non-scaling-stroke"/>
   </g>
   <g fill="none" fill-opacity="1" font-family="Noto Sans" font-size="42.3333" font-style="normal" font-weight="400" stroke="#000000" transform="matrix(1,0,0,1,2343.18,2213.13)">
    <path d="M-44.1296,164.207 L-271.398,581.736 C-99.4414,661.921 99.1806,661.921 271.138,581.736 L43.8689,164.207 C15.0444,171.931 -15.3052,171.931 -44.1296,164.207 " fill-rule="evenodd" vector-effect="non-scaling-stroke"/>
   </g>
   <g fill="none" fill-opacity="1" font-family="Noto Sans" font-size="42.3333" font-style="normal" font-weight="400" stroke="#000000" transform="matrix(1,0,0,1,2343.18,2213.13)">
    <path d="M43.8689,-164.207 L271.138,-581.736 C99.1806,-661.921 -99.4414,-661.921 -271.398,-581.736 L-44.1296,-164.207 C-15.3052,-171.931 15.0444,-171.931 43.8689,-164.207 " fill-rule="evenodd" vector-effect="non-scaling-stroke"/>
   </g>
   <g fill="none" fill-opacity="1" font-family="Noto Sans" font-size="42.3333" font-style="normal" font-weight="400" stroke="#000000" transform="matrix(1,0,0,1,2343.18,2213.13)">
    <path d="M120.078,120.208 L368.034,525.793 C523.455,416.966 622.766,244.955 639.302,55.9431 L164.077,43.9992 C156.354,72.8237 141.179,99.1072 120.078,120.208 " fill-rule="evenodd" vector-effect="non-scaling-stroke"/>
   </g>
   <g fill="none" fill-opacity="1" font-family="Noto Sans" font-size="42.3333" font-style="normal" font-weight="400" stroke="#000000" transform="matrix(1,0,0,1,2343.18,2213.13)">
    <path d="M-45.1304,-60 L-45.1304,60 L44.8696,60 L44.8696,-60 L-45.1304,-60" fill-rule="evenodd" vector-effect="non-scaling-stroke"/>
   </g>
   <g fill="none" fill-opacity="1" font-family="Noto Sans" font-size="42.3333" font-style="normal" font-weight="400" stroke="#000000" transform="matrix(1,0,0,1,3028.93,799.527)">
    <path d="M761.087,7.0117 L761.087,-7.0117 C748.276,-12.4925 735.02,-16.8705 721.465,-20.098 L720.979,-33.2485 C734.259,-37.4683 747.155,-42.8133 759.526,-49.2253 L758.491,-63.2104 C745.31,-67.7301 731.767,-71.1172 718.01,-73.3347 L716.554,-86.4134 C729.486,-91.6025 741.952,-97.8853 753.816,-105.193 L751.751,-119.064 C738.272,-122.598 724.516,-124.975 710.633,-126.171 L708.215,-139.106 C720.729,-145.236 732.697,-152.423 743.989,-160.587 L740.904,-174.267 C727.201,-176.796 713.307,-178.151 699.374,-178.318 L696.007,-191.04 C708.034,-198.077 719.439,-206.128 730.097,-215.104 L726.011,-228.518 C712.158,-230.028 698.202,-230.354 684.294,-229.491 L679.997,-241.929 C691.472,-249.836 702.251,-258.707 712.217,-268.445 L707.151,-281.522 C693.225,-282.004 679.283,-281.298 665.477,-279.411 L660.273,-291.498 C671.132,-300.23 681.226,-309.873 690.446,-320.321 L684.429,-332.988 C670.505,-332.44 656.653,-330.707 643.024,-327.805 L636.942,-339.474 C647.126,-348.985 656.481,-359.346 664.904,-370.447 L657.967,-382.635 C644.122,-381.061 630.436,-378.309 617.058,-374.408 L610.131,-385.597 C619.585,-395.833 628.149,-406.858 635.729,-418.55 L627.911,-430.192 C614.22,-427.6 600.775,-423.844 587.722,-418.967 L579.987,-429.613 C588.66,-440.52 596.386,-452.147 603.082,-464.367 L594.426,-475.4 C580.963,-471.803 567.832,-467.065 555.175,-461.237 L546.675,-471.283 C554.518,-482.8 561.365,-494.966 567.14,-507.647 L557.693,-518.011 C544.532,-513.43 531.787,-507.735 519.595,-500.988 L510.376,-510.379 C517.347,-522.444 523.277,-535.082 528.1,-548.155 L517.913,-557.793 C505.127,-552.253 492.837,-545.632 481.176,-538.003 L471.289,-546.687 C477.351,-559.235 482.33,-572.276 486.175,-585.67 L475.304,-594.528 C462.962,-588.059 451.194,-580.549 440.129,-572.08 L429.628,-580.01 C434.746,-592.971 438.749,-606.344 441.594,-619.985 L430.098,-628.017 C418.268,-620.654 407.087,-612.295 396.677,-603.032 L385.619,-610.165 C389.766,-623.468 392.77,-637.101 394.6,-650.914 L382.542,-658.075 C371.288,-649.859 360.755,-640.697 351.058,-630.69 L339.503,-636.987 C342.656,-650.56 344.646,-664.377 345.45,-678.289 L332.897,-684.54 C322.28,-675.514 312.453,-665.6 303.521,-654.904 L291.533,-660.33 C293.675,-674.099 294.638,-688.026 294.413,-701.958 L281.433,-707.265 C271.511,-697.48 262.443,-686.867 254.326,-675.541 L241.969,-680.067 C243.088,-693.957 243.021,-707.916 241.767,-721.794 L228.43,-726.128 C219.259,-715.637 210.999,-704.383 203.74,-692.488 L191.083,-696.09 C191.174,-710.024 190.076,-723.94 187.8,-737.688 L174.18,-741.025 C165.808,-729.885 158.402,-718.052 152.042,-705.654 L139.153,-708.31 C138.214,-722.213 136.091,-736.011 132.807,-749.553 L118.977,-751.874 C111.451,-740.147 104.939,-727.799 99.5118,-714.965 L86.4623,-716.663 C84.4993,-730.458 81.3631,-744.061 77.0877,-757.324 L63.1241,-758.617 C56.4846,-746.366 50.9022,-733.571 46.4378,-720.371 L33.2985,-721.101 C30.322,-734.713 26.1897,-748.048 20.9466,-760.958 L6.92558,-761.217 C1.20896,-748.509 -3.41321,-735.337 -6.89066,-721.843 L-20.0479,-721.6 C-24.0216,-734.956 -29.1274,-747.949 -35.3097,-760.437 L-49.3115,-759.66 C-54.074,-746.564 -57.7107,-733.086 -60.1822,-719.373 L-73.2855,-718.159 C-78.2347,-731.185 -84.2861,-743.765 -91.3738,-755.762 L-105.28,-753.953 C-109.062,-740.542 -111.694,-726.832 -113.146,-712.973 L-126.124,-710.795 C-132.021,-723.42 -138.985,-735.518 -146.94,-746.96 L-160.674,-744.129 C-163.456,-730.474 -165.068,-716.608 -165.492,-702.68 L-178.274,-699.549 C-185.087,-711.704 -192.926,-723.255 -201.703,-734.078 L-215.192,-730.24 C-216.957,-716.418 -217.54,-702.47 -216.935,-688.549 L-229.45,-684.482 C-237.144,-696.101 -245.814,-707.042 -255.366,-717.186 L-268.534,-712.363 C-269.274,-698.448 -268.826,-684.495 -267.194,-670.657 L-279.375,-665.677 C-287.905,-676.696 -297.359,-686.966 -307.636,-696.378 L-320.411,-690.595 C-320.121,-676.664 -318.644,-662.782 -315.994,-649.102 L-327.774,-643.236 C-337.095,-653.595 -347.282,-663.139 -358.225,-671.766 L-370.539,-665.056 C-369.221,-651.184 -366.722,-637.449 -363.07,-624.002 L-374.384,-617.282 C-384.444,-626.924 -395.309,-635.69 -406.859,-643.486 L-418.643,-635.884 C-416.305,-622.147 -412.798,-608.635 -408.163,-595.494 L-418.95,-587.957 C-429.695,-596.83 -441.177,-604.77 -453.271,-611.69 L-464.462,-603.239 C-461.115,-589.713 -456.621,-576.496 -451.027,-563.734 L-461.228,-555.421 C-472.599,-563.475 -484.636,-570.546 -497.209,-576.554 L-507.745,-567.3 C-503.408,-554.057 -497.95,-541.209 -491.429,-528.894 L-500.989,-519.851 C-512.923,-527.044 -525.449,-533.206 -538.431,-538.269 L-548.255,-528.262 C-542.952,-515.376 -536.56,-502.966 -529.148,-491.166 L-538.013,-481.441 C-550.446,-487.733 -563.393,-492.953 -576.714,-497.045 L-585.772,-486.339 C-579.532,-473.88 -572.24,-461.976 -563.977,-450.756 L-572.1,-440.403 C-584.964,-445.759 -598.261,-450.009 -611.847,-453.105 L-620.09,-441.76 C-612.947,-429.796 -604.796,-418.462 -595.726,-407.883 L-603.063,-396.959 C-616.287,-401.351 -629.862,-404.607 -643.64,-406.691 L-651.022,-394.768 C-643.015,-383.364 -634.049,-372.663 -624.223,-362.783 L-630.733,-351.346 C-644.245,-354.75 -658.023,-356.994 -671.917,-358.056 L-678.399,-345.62 C-669.572,-334.838 -659.84,-324.829 -649.311,-315.702 L-654.958,-303.815 C-668.685,-306.212 -682.592,-307.432 -696.526,-307.465 L-702.072,-294.584 C-692.472,-284.484 -682.028,-275.221 -670.854,-266.896 L-675.608,-254.625 C-689.474,-256.001 -703.433,-256.191 -717.331,-255.194 L-721.911,-241.94 C-711.591,-232.576 -700.492,-224.109 -688.733,-216.632 L-692.568,-204.044 C-706.498,-204.392 -720.432,-203.551 -734.22,-201.53 L-737.807,-187.974 C-726.825,-179.398 -715.13,-171.774 -702.852,-165.186 L-705.746,-152.349 C-719.664,-151.667 -733.498,-149.799 -747.099,-146.766 L-749.675,-132.981 C-738.089,-125.239 -725.864,-118.5 -713.132,-112.837 L-715.07,-99.821 C-728.9,-98.1133 -742.559,-95.229 -755.898,-91.1994 L-757.449,-77.2621 C-745.323,-70.3974 -732.633,-64.5795 -719.518,-59.8719 L-720.49,-46.7483 C-734.156,-44.0239 -747.564,-40.1387 -760.569,-35.135 L-761.087,-21.1212 C-748.487,-15.1708 -735.402,-10.306 -721.975,-6.57975 L-721.975,6.57975 C-735.402,10.306 -748.487,15.1708 -761.087,21.1212 L-760.569,35.135 C-747.564,40.1387 -734.156,44.0239 -720.49,46.7483 L-719.518,59.8719 C-732.633,64.5795 -745.323,70.3974 -757.449,77.2621 L-755.898,91.1994 C-742.559,95.229 -728.9,98.1133 -715.07,99.821 L-713.132,112.837 C-725.864,118.5 -738.089,125.239 -749.675,132.981 L-747.099,146.766 C-733.498,149.799 -719.664,151.667 -705.746,152.349 L-702.852,165.186 C-715.13,171.774 -726.825,179.398 -737.807,187.974 L-734.22,201.53 C-720.432,203.551 -706.498,204.392 -692.568,204.044 L-688.733,216.632 C-700.492,224.109 -711.591,232.576 -721.911,241.94 L-717.331,255.194 C-703.433,256.191 -689.474,256.001 -675.608,254.625 L-670.854,266.896 C-682.028,275.221 -692.472,284.484 -702.072,294.584 L-696.526,307.465 C-682.592,307.432 -668.685,306.212 -654.958,303.815 L-649.311,315.702 C-659.84,324.829 -669.572,334.838 -678.399,345.62 L-671.917,358.056 C-658.023,356.994 -644.245,354.75 -630.733,351.346 L-624.223,362.783 C-634.049,372.663 -643.015,383.364 -651.022,394.768 L-643.64,406.691 C-629.862,404.607 -616.287,401.351 -603.063,396.959 L-595.726,407.883 C-604.796,418.462 -612.947,429.796 -620.09,441.76 L-611.847,453.105 C-598.261,450.009 -584.964,445.759 -572.1,440.403 L-563.977,450.756 C-572.24,461.976 -579.532,473.88 -585.772,486.339 L-576.714,497.045 C-563.393,492.953 -550.446,487.733 -538.013,481.441 L-529.148,491.166 C-536.56,502.966 -542.952,515.376 -548.255,528.262 L-538.431,538.269 C-525.449,533.206 -512.923,527.044 -500.989,519.851 L-491.429,528.894 C-497.95,541.209 -503.408,554.057 -507.745,567.3 L-497.209,576.554 C-484.636,570.546 -472.599,563.475 -461.228,555.421 L-451.027,563.734 C-456.621,576.496 -461.115,589.713 -464.462,603.239 L-453.271,611.69 C-441.177,604.77 -429.695,596.83 -418.95,587.957 L-408.163,595.494 C-412.798,608.635 -416.305,622.147 -418.643,635.884 L-406.859,643.486 C-395.309,635.69 -384.444,626.924 -374.384,617.282 L-363.07,624.002 C-366.722,637.449 -369.221,651.184 -370.539,665.056 L-358.225,671.766 C-347.282,663.139 -337.095,653.595 -327.774,643.236 L-315.994,649.102 C-318.644,662.782 -320.121,676.664 -320.411,690.595 L-307.636,696.378 C-297.359,686.966 -287.905,676.696 -279.375,665.677 L-267.194,670.657 C-268.826,684.495 -269.274,698.448 -268.534,712.363 L-255.366,717.186 C-245.814,707.042 -237.144,696.101 -229.45,684.482 L-216.935,688.549 C-217.54,702.47 -216.957,716.418 -215.192,730.24 L-201.703,734.078 C-192.926,723.255 -185.087,711.704 -178.274,699.549 L-165.492,702.68 C-165.068,716.608 -163.456,730.474 -160.674,744.129 L-146.94,746.96 C-138.985,735.518 -132.021,723.42 -126.124,710.795 L-113.146,712.973 C-111.694,726.832 -109.062,740.542 -105.28,753.953 L-91.3738,755.762 C-84.2861,743.765 -78.2347,731.185 -73.2855,718.159 L-60.1822,719.373 C-57.7107,733.086 -54.074,746.564 -49.3115,759.66 L-35.3097,760.437 C-29.1274,747.949 -24.0216,734.956 -20.0479,721.6 L-6.89066,721.843 C-3.41321,735.337 1.20896,748.509 6.92558,761.217 L20.9466,760.958 C26.1897,748.048 30.322,734.713 33.2985,721.101 L46.4378,720.371 C50.9022,733.571 56.4846,746.366 63.1241,758.617 L77.0877,757.324 C81.3631,744.061 84.4993,730.458 86.4623,716.663 L99.5118,714.965 C104.939,727.799 111.451,740.147 118.977,751.874 L132.807,749.553 C136.091,736.011 138.214,722.213 139.153,708.31 L152.042,705.654 C158.402,718.052 165.808,729.885 174.18,741.025 L187.8,737.688 C190.076,723.94 191.174,710.024 191.083,696.09 L203.74,692.488 C210.999,704.383 219.259,715.637 228.43,726.128 L241.767,721.794 C243.021,707.916 243.088,693.957 241.969,680.067 L254.326,675.541 C262.443,686.867 271.511,697.48 281.433,707.265 L294.413,701.958 C294.638,688.026 293.675,674.099 291.533,660.33 L303.521,654.904 C312.453,665.6 322.28,675.514 332.897,684.54 L345.45,678.289 C344.646,664.377 342.656,650.56 339.503,636.987 L351.058,630.69 C360.755,640.697 371.288,649.859 382.542,658.075 L394.6,650.914 C392.77,637.101 389.766,623.468 385.619,610.165 L396.677,603.032 C407.087,612.295 418.268,620.654 430.098,628.017 L441.594,619.985 C438.749,606.344 434.746,592.971 429.628,580.01 L440.129,572.08 C451.194,580.549 462.962,588.059 475.304,594.528 L486.175,585.67 C482.33,572.276 477.351,559.235 471.289,546.687 L481.176,538.003 C492.837,545.632 505.127,552.253 517.913,557.793 L528.1,548.155 C523.277,535.082 517.347,522.444 510.376,510.379 L519.595,500.988 C531.787,507.735 544.532,513.43 557.693,518.011 L567.14,507.647 C561.365,494.966 554.518,482.8 546.675,471.283 L555.175,461.237 C567.832,467.065 580.963,471.803 594.426,475.4 L603.082,464.367 C596.386,452.147 588.66,440.52 579.987,429.613 L587.722,418.967 C600.775,423.844 614.22,427.6 627.911,430.192 L635.729,418.55 C628.149,406.858 619.585,395.833 610.131,385.597 L617.058,374.408 C630.436,378.309 644.122,381.061 657.967,382.635 L664.904,370.447 C656.481,359.346 647.126,348.985 636.942,339.474 L643.024,327.805 C656.653,330.707 670.505,332.44 684.429,332.988 L690.446,320.321 C681.226,309.873 671.132,300.23 660.273,291.498 L665.477,279.411 C679.283,281.298 693.225,282.004 707.151,281.522 L712.217,268.445 C702.251,258.707 691.472,249.836 679.997,241.929 L684.294,229.491 C698.202,230.354 712.158,230.028 726.011,228.518 L730.097,215.104 C719.439,206.128 708.034,198.077 696.007,191.04 L699.374,178.318 C713.307,178.151 727.201,176.796 740.904,174.267 L743.989,160.587 C732.697,152.423 720.729,145.236 708.215,139.106 L710.633,126.171 C724.516,124.975 738.272,122.598 751.751,119.064 L753.816,105.193 C741.952,97.8853 729.486,91.6025 716.554,86.4134 L718.01,73.3347 C731.767,71.1172 745.31,67.7301 758.491,63.2104 L759.526,49.2253 C747.155,42.8133 734.259,37.4683 720.979,33.2485 L721.465,20.098 C735.02,16.8705 748.276,12.4925 761.087,7.0117 " fill-rule="evenodd" vector-effect="non-scaling-stroke"/>
   </g>
   <g fill="none" fill-opacity="1" font-family="Noto Sans" font-size="42.3333" font-style="normal" font-weight="400" stroke="#000000" transform="matrix(1,0,0,1,3028.93,799.527)">
    <path d="M164.077,-43.9992 L639.302,-55.9431 C622.766,-244.955 523.455,-416.966 368.034,-525.793 L120.078,-120.208 C141.179,-99.1072 156.354,-72.8237 164.077,-43.9992 " fill-rule="evenodd" vector-effect="non-scaling-stroke"/>
   </g>
   <g fill="none" fill-opacity="1" font-family="Noto Sans" font-size="42.3333" font-style="normal" font-weight="400" stroke="#000000" transform="matrix(1,0,0,1,3028.93,799.527)">
    <path d="M-164.338,43.9992 L-639.563,55.9431 C-623.026,244.955 -523.715,416.966 -368.295,525.793 L-120.339,120.208 C-141.439,99.1072 -156.614,72.8237 -164.338,43.9992 " fill-rule="evenodd" vector-effect="non-scaling-stroke"/>
   </g>
   <g fill="none" fill-opacity="1" font-family="Noto Sans" font-size="42.3333" font-style="normal" font-weight="400" stroke="#000000" transform="matrix(1,0,0,1,3028.93,799.527)">
    <path d="M-120.339,-120.208 L-368.295,-525.793 C-523.715,-416.966 -623.026,-244.955 -639.563,-55.9431 L-164.338,-43.9992 C-156.614,-72.8237 -141.439,-99.1072 -120.339,-120.208 " fill-rule="evenodd" vector-effect="non-scaling-stroke"/>
   </g>
   <g fill="none" fill-opacity="1" font-family="Noto Sans" font-size="42.3333" font-style="normal" font-weight="400" stroke="#000000" transform="matrix(1,0,0,1,3028.93,799.527)">
    <path d="M-44.1296,164.207 L-271.398,581.736 C-99.4414,661.921 99.1806,661.921 271.138,581.736 L43.8689,164.207 C15.0444,171.931 -15.3052,171.931 -44.1296,164.207 " fill-rule="evenodd" vector-effect="non-scaling-stroke"/>
   </g>
   <g fill="none" fill-opacity="1" font-family="Noto Sans" font-size="42.3333" font-style="normal" font-weight="400" stroke="#000000" transform="matrix(1,0,0,1,3028.93,799.527)">
    <path d="M43.8689,-164.207 L271.138,-581.736 C99.1806,-661.921 -99.4414,-661.921 -271.398,-581.736 L-44.1296,-164.207 C-15.3052,-171.931 15.0444,-171.931 43.8689,-164.207 " fill-rule="evenodd" vector-effect="non-scaling-stroke"/>
   </g>
   <g fill="none" fill-opacity="1" font-family="Noto Sans" font-size="42.3333" font-style="normal" font-weight="400" stroke="#000000" transform="matrix(1,0,0,1,3028.93,799.527)">
    <path d="M120.078,120.208 L368.034,525.793 C523.455,416.966 622.766,244.955 639.302,55.9431 L164.077,43.9992 C156.354,72.8237 141.179,99.1072 120.078,120.208 " fill-rule="evenodd" vector-effect="non-scaling-stroke"/>
   </g>
   <g fill="none" fill-opacity="1" font-family="Noto Sans" font-size="42.3333" font-style="normal" font-weight="400" stroke="#000000" transform="matrix(1,0,0,1,3028.93,799.527)">
    <path d="M-45.1304,-60 L-45.1304,60 L44.8696,60 L44.8696,-60 L-45.1304,-60" fill-rule="evenodd" vector-effect="non-scaling-stroke"/>
   </g>
   <g fill="none" fill-opacity="1" font-family="Noto Sans" font-size="42.3333" font-style="normal" font-weight="400" stroke="#000000" transform="matrix(1,0,0,1,3240.49,2061.74)">
    <path d="M-40,477.5 L-60,277.5 L-60,157.5 L-90,157.5 L-90,-157.5 L-60,-157.5 L-60,-277.5 L-40,-477.5 L40,-477.5 L60,-277.5 L60,-157.5 L90,-157.5 L90,157.5 L60,157.5 L60,277.5 L40,477.5 L-40,477.5" fill-rule="evenodd" vector-effect="non-scaling-stroke"/>
   </g>
   <g fill="none" fill-opacity="1" font-family="Noto Sans" font-size="42.3333" font-style="normal" font-weight="400" stroke="#000000" transform="matrix(1,0,0,1,3459.35,2061.74)">
    <path d="M-40,477.5 L-60,277.5 L-60,157.5 L-90,157.5 L-90,-157.5 L-60,-157.5 L-60,-277.5 L-40,-477.5 L40,-477.5 L60,-277.5 L60,-157.5 L90,-157.5 L90,157.5 L60,157.5 L60,277.5 L40,477.5 L-40,477.5" fill-rule="evenodd" vector-effect="non-scaling-stroke"/>
   </g>
   <g fill="none" fill-opacity="1" font-family="Noto Sans" font-size="42.3333" font-style="normal" font-weight="400" stroke="#000000" transform="matrix(1,0,0,1,3678.21,2061.74)">
    <path d="M-40,477.5 L-60,277.5 L-60,157.5 L-90,157.5 L-90,-157.5 L-60,-157.5 L-60,-277.5 L-40,-477.5 L40,-477.5 L60,-277.5 L60,-157.5 L90,-157.5 L90,157.5 L60,157.5 L60,277.5 L40,477.5 L-40,477.5" fill-rule="evenodd" vector-effect="non-scaling-stroke"/>
   </g>
   <g fill="none" fill-opacity="1" font-family="Noto Sans" font-size="42.3333" font-style="normal" font-weight="400" stroke="#000000" transform="matrix(1,0,0,1,188.967,950.423)">
    <path d="M160,0 C160,88.3656 88.3656,160 0,160 C-88.3656,160 -160,88.3656 -160,0 C-160,-88.3656 -88.3656,-160 0,-160 C88.3656,-160 160,-88.3656 160,0 " fill-rule="evenodd" vector-effect="non-scaling-stroke"/>
   </g>
   <g fill="none" fill-opacity="1" font-family="Noto Sans" font-size="42.3333" font-style="normal" font-weight="400" stroke="#000000" transform="matrix(1,0,0,1,188.967,950.423)">
    <path d="M-60,-60 L-60,60 L60,60 L60,-60 L-60,-60" fill-rule="evenodd" vector-effect="non-scaling-stroke"/>
   </g>
   <g fill="#ffffff" fill-opacity="1" font-family="Noto Sans" font-size="42.3333" font-style="normal" font-weight="400" stroke="#000000" stroke-linecap="round" stroke-linejoin="bevel" stroke-opacity="1" stroke-width="3.5" transform="matrix(1,0,0,1,188.967,950.423)">
    <path d="M0,17.5 L0,-17.5 M17.5,0 L-17.5,0" fill-rule="evenodd" vector-effect="none"/>
   </g>
   <g fill="none" fill-opacity="1" font-family="Noto Sans" font-size="42.3333" font-style="normal" font-weight="400" stroke="#000000" transform="matrix(1,0,0,1,523.7,950.423)">
    <path d="M160,0 C160,88.3656 88.3656,160 0,160 C-88.3656,160 -160,88.3656 -160,0 C-160,-88.3656 -88.3656,-160 0,-160 C88.3656,-160 160,-88.3656 160,0 " fill-rule="evenodd" vector-effect="non-scaling-stroke"/>
   </g>
   <g fill="none" fill-opacity="1" font-family="Noto Sans" font-size="42.3333" font-style="normal" font-weight="400" stroke="#000000" transform="matrix(1,0,0,1,523.7,950.423)">
    <path d="M-60,-60 L-60,60 L60,60 L60,-60 L-60,-60" fill-rule="evenodd" vector-effect="non-scaling-stroke"/>
   </g>
   <g fill="#ffffff" fill-opacity="1" font-family="Noto Sans" font-size="42.3333" font-style="normal" font-weight="400" stroke="#000000" stroke-linecap="round" stroke-linejoin="bevel" stroke-opacity="1" stroke-width="3.5" transform="matrix(1,0,0,1,523.7,950.423)">
    <path d="M0,17.5 L0,-17.5 M17.5,0 L-17.5,0" fill-rule="evenodd" vector-effect="none"/>
   </g>
   <g fill="none" fill-opacity="1" font-family="Noto Sans" font-size="42.3333" font-style="normal" font-weight="400" stroke="#000000" transform="matrix(1,0,0,1,658.832,193.223)">
    <path d="M116.57,-117.663 L107.874,-125.631 C98.4881,-123.18 89.8732,-118.398 82.829,-111.729 L75.18,-101.336 L58.5043,-111.72 L64.4572,-123.169 C67.3352,-132.433 67.8264,-142.274 65.8851,-151.779 L54.8985,-156.067 C47.0315,-150.391 40.7258,-142.82 36.5665,-134.056 L33.1885,-121.602 L13.8876,-125.261 L15.3025,-138.088 C14.6397,-147.766 11.5427,-157.12 6.29909,-165.281 L-5.49477,-165.311 C-10.7802,-157.177 -13.9251,-147.839 -14.6377,-138.165 L-13.2886,-125.331 L-32.6081,-121.771 L-35.9221,-134.243 C-40.0363,-143.028 -46.3031,-150.631 -54.1409,-156.347 L-65.1493,-152.115 C-67.1393,-142.62 -66.6987,-132.777 -63.8682,-123.499 L-57.9742,-112.019 L-74.7031,-101.72 L-82.2985,-112.152 C-89.3084,-118.858 -97.8987,-123.684 -107.272,-126.183 L-116.008,-118.26 C-114.434,-108.688 -110.467,-99.6682 -104.476,-92.0386 L-94.8334,-83.4633 L-106.712,-67.8169 L-117.563,-74.8008 C-126.522,-78.5213 -136.276,-79.9184 -145.919,-78.8623 L-151.203,-68.3184 C-146.277,-59.9612 -139.32,-52.9838 -130.978,-48.0337 L-118.888,-43.5209 L-124.313,-24.6399 L-136.954,-27.2323 C-146.652,-27.4653 -156.251,-25.2446 -164.862,-20.7764 L-165.98,-9.03564 C-158.368,-3.02219 -149.36,0.970895 -139.793,2.57303 L-126.89,2.41382 L-125.127,21.9794 L-137.851,24.1286 C-146.978,27.4147 -155.128,32.9532 -161.543,40.2301 L-158.344,51.582 C-149.074,54.4396 -139.232,54.9091 -129.732,52.9468 L-117.757,48.1372 L-109.046,65.7449 L-120.134,72.3454 C-127.458,78.7067 -133.056,86.815 -136.409,95.9179 L-129.326,105.348 C-119.65,104.664 -110.303,101.546 -102.153,96.2845 L-92.7244,87.4739 L-78.2407,100.746 L-86.196,110.906 C-90.7273,119.484 -93.0183,129.067 -92.8565,138.766 L-82.8451,145 C-74.0691,140.867 -66.4796,134.583 -60.7808,126.733 L-55.1718,115.111 L-36.8719,122.255 L-40.6196,134.603 C-41.7464,144.238 -40.4209,154.002 -36.7662,162.988 L-25.1787,165.184 C-18.4886,158.16 -13.6814,149.559 -11.2033,140.18 L-10.1713,127.317 L9.47341,127.368 L10.4394,140.236 C12.8693,149.627 17.6323,158.253 24.2863,165.311 L35.8849,163.174 C39.5856,154.207 40.9612,144.45 39.8839,134.81 L36.1996,122.442 L54.536,115.393 L60.0852,127.043 C65.7436,134.923 73.3009,141.245 82.0555,145.424 L92.0988,139.241 C92.3104,129.542 90.0685,119.948 85.5813,111.347 L77.6783,101.146 L92.2299,87.9486 L101.613,96.8075 C109.736,102.111 119.066,105.276 128.739,106.01 L135.871,96.6167 C132.565,87.4968 127.008,79.3598 119.717,72.961 L108.663,66.3037 L117.464,48.7409 L129.414,53.612 C138.904,55.623 148.748,55.204 158.033,52.394 L161.29,41.0587 C154.912,33.7489 146.792,28.1687 137.681,24.8358 L124.969,22.6213 L126.831,3.06504 L139.734,3.29048 C149.309,1.73748 158.337,-2.20931 165.98,-8.1836 L164.922,-19.93 C156.335,-24.4423 146.747,-26.7122 137.048,-26.5291 L124.393,-24.0016 L119.066,-42.9102 L131.178,-47.3608 C139.546,-52.2681 146.539,-59.2097 151.508,-67.5414 L146.278,-78.1123 C136.64,-79.2179 126.879,-77.8709 117.902,-74.1964 L107.015,-67.2683 L95.2164,-82.9755 L104.903,-91.5012 C110.933,-99.0999 114.946,-108.099 116.57,-117.663 " fill-rule="evenodd" vector-effect="non-scaling-stroke"/>
   </g>
   <g fill="none" fill-opacity="1" font-family="Noto Sans" font-size="42.3333" font-style="normal" font-weight="400" stroke="#000000" transform="matrix(1,0,0,1,658.832,193.223)">
    <path d="M24.9757,0.848514 C24.9757,14.6556 13.7828,25.8485 -0.0242759,25.8485 C-13.8314,25.8485 -25.0243,14.6556 -25.0243,0.848514 C-25.0243,-12.9586 -13.8314,-24.1515 -0.0242759,-24.1515 C13.7828,-24.1515 24.9757,-12.9586 24.9757,0.848514 " fill-rule="evenodd" vector-effect="non-scaling-stroke"/>
   </g>
   <g fill="none" fill-opacity="1" font-family="Noto Sans" font-size="42.3333" font-style="normal" font-weight="400" stroke="#000000" transform="matrix(1,0,0,1,658.832,193.223)">
    <path d="M-25.9243,47.6656 C-25.9243,57.0545 -33.5354,64.6656 -42.9243,64.6656 C-52.3131,64.6656 -59.9243,57.0545 -59.9243,47.6656 C-59.9243,38.2768 -52.3131,30.6656 -42.9243,30.6656 C-33.5354,30.6656 -25.9243,38.2768 -25.9243,47.6656 " fill-rule="evenodd" vector-effect="non-scaling-stroke"/>
   </g>
   <g fill="none" fill-opacity="1" font-family="Noto Sans" font-size="42.3333" font-style="normal" font-weight="400" stroke="#000000" transform="matrix(1,0,0,1,658.832,193.223)">
    <path d="M63.7928,43.7485 C63.7928,53.1373 56.1817,60.7485 46.7928,60.7485 C37.404,60.7485 29.7928,53.1373 29.7928,43.7485 C29.7928,34.3597 37.404,26.7485 46.7928,26.7485 C56.1817,26.7485 63.7928,34.3597 63.7928,43.7485 " fill-rule="evenodd" vector-effect="non-scaling-stroke"/>
   </g>
   <g fill="none" fill-opacity="1" font-family="Noto Sans" font-size="42.3333" font-style="normal" font-weight="400" stroke="#000000" transform="matrix(1,0,0,1,658.832,193.223)">
    <path d="M-29.8414,-42.0515 C-29.8414,-32.6626 -37.4525,-25.0515 -46.8414,-25.0515 C-56.2302,-25.0515 -63.8414,-32.6626 -63.8414,-42.0515 C-63.8414,-51.4403 -56.2302,-59.0515 -46.8414,-59.0515 C-37.4525,-59.0515 -29.8414,-51.4403 -29.8414,-42.0515 " fill-rule="evenodd" vector-effect="non-scaling-stroke"/>
   </g>
   <g fill="none" fill-opacity="1" font-family="Noto Sans" font-size="42.3333" font-style="normal" font-weight="400" stroke="#000000" transform="matrix(1,0,0,1,658.832,193.223)">
    <path d="M59.8757,-45.9686 C59.8757,-36.5798 52.2645,-28.9686 42.8757,-28.9686 C33.4869,-28.9686 25.8757,-36.5798 25.8757,-45.9686 C25.8757,-55.3574 33.4869,-62.9686 42.8757,-62.9686 C52.2645,-62.9686 59.8757,-55.3574 59.8757,-45.9686 " fill-rule="evenodd" vector-effect="non-scaling-stroke"/>
   </g>
   <g fill="none" fill-opacity="1" font-family="Noto Sans" font-size="42.3333" font-style="normal" font-weight="400" stroke="#000000" transform="matrix(1,0,0,1,188.967,193.223)">
    <path d="M116.57,-117.663 L107.874,-125.631 C98.4881,-123.18 89.8732,-118.398 82.829,-111.729 L75.18,-101.336 L58.5043,-111.72 L64.4572,-123.169 C67.3352,-132.433 67.8264,-142.274 65.8851,-151.779 L54.8985,-156.067 C47.0315,-150.391 40.7258,-142.82 36.5665,-134.056 L33.1885,-121.602 L13.8876,-125.261 L15.3025,-138.088 C14.6397,-147.766 11.5427,-157.12 6.29909,-165.281 L-5.49477,-165.311 C-10.7802,-157.177 -13.9251,-147.839 -14.6377,-138.165 L-13.2886,-125.331 L-32.6081,-121.771 L-35.9221,-134.243 C-40.0363,-143.028 -46.3031,-150.631 -54.1409,-156.347 L-65.1493,-152.115 C-67.1393,-142.62 -66.6987,-132.777 -63.8682,-123.499 L-57.9742,-112.019 L-74.7031,-101.72 L-82.2985,-112.152 C-89.3084,-118.858 -97.8987,-123.684 -107.272,-126.183 L-116.008,-118.26 C-114.434,-108.688 -110.467,-99.6682 -104.476,-92.0386 L-94.8334,-83.4633 L-106.712,-67.8169 L-117.563,-74.8008 C-126.522,-78.5213 -136.276,-79.9184 -145.919,-78.8623 L-151.203,-68.3184 C-146.277,-59.9612 -139.32,-52.9838 -130.978,-48.0337 L-118.888,-43.5209 L-124.313,-24.6399 L-136.954,-27.2323 C-146.652,-27.4653 -156.251,-25.2446 -164.862,-20.7764 L-165.98,-9.03564 C-158.368,-3.02219 -149.36,0.970895 -139.793,2.57303 L-126.89,2.41382 L-125.127,21.9794 L-137.851,24.1286 C-146.978,27.4147 -155.128,32.9532 -161.543,40.2301 L-158.344,51.582 C-149.074,54.4396 -139.232,54.9091 -129.732,52.9468 L-117.757,48.1372 L-109.046,65.7449 L-120.134,72.3454 C-127.458,78.7067 -133.056,86.815 -136.409,95.9179 L-129.326,105.348 C-119.65,104.664 -110.303,101.546 -102.153,96.2845 L-92.7244,87.4739 L-78.2407,100.746 L-86.196,110.906 C-90.7273,119.484 -93.0183,129.067 -92.8565,138.766 L-82.8451,145 C-74.0691,140.867 -66.4796,134.583 -60.7808,126.733 L-55.1718,115.111 L-36.8719,122.255 L-40.6196,134.603 C-41.7464,144.238 -40.4209,154.002 -36.7662,162.988 L-25.1787,165.184 C-18.4886,158.16 -13.6814,149.559 -11.2033,140.18 L-10.1713,127.317 L9.47341,127.368 L10.4394,140.236 C12.8693,149.627 17.6323,158.253 24.2863,165.311 L35.8849,163.174 C39.5856,154.207 40.9612,144.45 39.8839,134.81 L36.1996,122.442 L54.536,115.393 L60.0852,127.043 C65.7436,134.923 73.3009,141.245 82.0555,145.424 L92.0988,139.241 C92.3104,129.542 90.0685,119.948 85.5813,111.347 L77.6783,101.146 L92.2299,87.9486 L101.613,96.8075 C109.736,102.111 119.066,105.276 128.739,106.01 L135.871,96.6167 C132.565,87.4968 127.008,79.3598 119.717,72.961 L108.663,66.3037 L117.464,48.7409 L129.414,53.612 C138.904,55.623 148.748,55.204 158.033,52.394 L161.29,41.0587 C154.912,33.7489 146.792,28.1687 137.681,24.8358 L124.969,22.6213 L126.831,3.06504 L139.734,3.29048 C149.309,1.73748 158.337,-2.20931 165.98,-8.1836 L164.922,-19.93 C156.335,-24.4423 146.747,-26.7122 137.048,-26.5291 L124.393,-24.0016 L119.066,-42.9102 L131.178,-47.3608 C139.546,-52.2681 146.539,-59.2097 151.508,-67.5414 L146.278,-78.1123 C136.64,-79.2179 126.879,-77.8709 117.902,-74.1964 L107.015,-67.2683 L95.2164,-82.9755 L104.903,-91.5012 C110.933,-99.0999 114.946,-108.099 116.57,-117.663 " fill-rule="evenodd" vector-effect="non-scaling-stroke"/>
   </g>
   <g fill="none" fill-opacity="1" font-family="Noto Sans" font-size="42.3333" font-style="normal" font-weight="400" stroke="#000000" transform="matrix(1,0,0,1,188.967,193.223)">
    <path d="M24.9757,0.848514 C24.9757,14.6556 13.7828,25.8485 -0.0242759,25.8485 C-13.8314,25.8485 -25.0243,14.6556 -25.0243,0.848514 C-25.0243,-12.9586 -13.8314,-24.1515 -0.0242759,-24.1515 C13.7828,-24.1515 24.9757,-12.9586 24.9757,0.848514 " fill-rule="evenodd" vector-effect="non-scaling-stroke"/>
   </g>
   <g fill="none" fill-opacity="1" font-family="Noto Sans" font-size="42.3333" font-style="normal" font-weight="400" stroke="#000000" transform="matrix(1,0,0,1,188.967,193.223)">
    <path d="M-25.9243,47.6656 C-25.9243,57.0545 -33.5354,64.6656 -42.9243,64.6656 C-52.3131,64.6656 -59.9243,57.0545 -59.9243,47.6656 C-59.9243,38.2768 -52.3131,30.6656 -42.9243,30.6656 C-33.5354,30.6656 -25.9243,38.2768 -25.9243,47.6656 " fill-rule="evenodd" vector-effect="non-scaling-stroke"/>
   </g>
   <g fill="none" fill-opacity="1" font-family="Noto Sans" font-size="42.3333" font-style="normal" font-weight="400" stroke="#000000" transform="matrix(1,0,0,1,188.967,193.223)">
    <path d="M63.7928,43.7485 C63.7928,53.1373 56.1817,60.7485 46.7928,60.7485 C37.404,60.7485 29.7928,53.1373 29.7928,43.7485 C29.7928,34.3597 37.404,26.7485 46.7928,26.7485 C56.1817,26.7485 63.7928,34.3597 63.7928,43.7485 " fill-rule="evenodd" vector-effect="non-scaling-stroke"/>
   </g>
   <g fill="none" fill-opacity="1" font-family="Noto Sans" font-size="42.3333" font-style="normal" font-weight="400" stroke="#000000" transform="matrix(1,0,0,1,188.967,193.223)">
    <path d="M-29.8414,-42.0515 C-29.8414,-32.6626 -37.4525,-25.0515 -46.8414,-25.0515 C-56.2302,-25.0515 -63.8414,-32.6626 -63.8414,-42.0515 C-63.8414,-51.4403 -56.2302,-59.0515 -46.8414,-59.0515 C-37.4525,-59.0515 -29.8414,-51.4403 -29.8414,-42.0515 " fill-rule="evenodd" vector-effect="non-scaling-stroke"/>
   </g>
   <g fill="none" fill-opacity="1" font-family="Noto Sans" font-size="42.3333" font-style="normal" font-weight="400" stroke="#000000" transform="matrix(1,0,0,1,188.967,193.223)">
    <path d="M59.8757,-45.9686 C59.8757,-36.5798 52.2645,-28.9686 42.8757,-28.9686 C33.4869,-28.9686 25.8757,-36.5798 25.8757,-45.9686 C25.8757,-55.3574 33.4869,-62.9686 42.8757,-62.9686 C52.2645,-62.9686 59.8757,-55.3574 59.8757,-45.9686 " fill-rule="evenodd" vector-effect="non-scaling-stroke"/>
   </g>
   </g>
 </g>
</svg>