<svg xmlns="http://www.w3.org/2000/svg" xmlns:cc="http://creativecommons.org/ns#" xmlns:dc="http://purl.org/dc/elements/1.1/" xmlns:freecad="https://www.freecad.org/wiki/index.php?title=Svg_Namespace" xmlns:inkscape="http://www.inkscape.org/namespaces/inkscape" xmlns:rdf="http://www.w3.org/1999/02/22-rdf-syntax-ns#" xmlns:sodipodi="http://sodipodi.sourceforge.net/DTD/sodipodi-0.dtd" xmlns:svg="http://www.w3.org/2000/svg" xmlns:xlink="http://www.w3.org/1999/xlink" baseProfile="tiny" height="210mm" version="1.2" viewBox="0 0 2970 2100" width="297mm">
 <title>FreeCAD SVG Export</title>
 <desc>Drawing page: Page008 exported from FreeCAD document: marble_pump_export</desc>
 <defs/>
 <g id="Page008" inkscape:groupmode="layer" inkscape:label="TechDraw">
  <g id="TD_CAM_300x3003.svg" style="stroke: none;" transform="scale(10.000000, 10.000000)">
   <sodipodi:namedview bordercolor="#666666" borderopacity="1" gridtolerance="10" guidetolerance="10" id="namedview221" inkscape:current-layer="svg2" inkscape:cx="589.50759" inkscape:cy="402.26751" inkscape:deskcolor="#505050" inkscape:document-units="mm" inkscape:pagecheckerboard="true" inkscape:pageopacity="0" inkscape:pageshadow="2" inkscape:showpageshadow="false" inkscape:window-height="1659" inkscape:window-maximized="1" inkscape:window-width="3072" inkscape:window-x="0" inkscape:window-y="0" inkscape:zoom="1.9253357" objecttolerance="10" pagecolor="#ffffff" showgrid="false" units="mm"/>
   <!-- Working space 10 10 410 287 -->
   <!-- Title block 220 227 410 287 -->
   <metadata id="metadata849">
    <rdf:RDF>
     <cc:Work rdf:about="">
      <dc:format>image/svg+xml</dc:format>
      <dc:type rdf:resource="http://purl.org/dc/dcmitype/StillImage"/>
      <dc:date>01.03.2020</dc:date>
      <dc:creator>
       <cc:Agent>
        <dc:title>Stefan Krüger</dc:title>
       </cc:Agent>
      </dc:creator>
      <dc:rights>
       <cc:Agent>
        <dc:title>Stefan Krüger</dc:title>
       </cc:Agent>
      </dc:rights>
      <dc:publisher>
       <cc:Agent>
        <dc:title>Stefan Krüger</dc:title>
       </cc:Agent>
      </dc:publisher>
      <dc:language>EN / DE</dc:language>
      <cc:license rdf:resource="http://creativecommons.org/publicdomain/zero/1.0/"/>
     </cc:Work>
     <cc:License rdf:about="http://creativecommons.org/publicdomain/zero/1.0/">
      <cc:permits rdf:resource="http://creativecommons.org/ns#Reproduction"/>
      <cc:permits rdf:resource="http://creativecommons.org/ns#Distribution"/>
      <cc:permits rdf:resource="http://creativecommons.org/ns#DerivativeWorks"/>
     </cc:License>
    </rdf:RDF>
   </metadata>
   <defs id="defs847"/>
   <!-- DrawingContent -->
  </g>
  <g fill="none" fill-rule="evenodd" id="DrawingContent" stroke="black" stroke-linecap="square" stroke-linejoin="bevel" stroke-width="1">
   <g fill="none" fill-opacity="1" font-family="Noto Sans" font-size="42.3333" font-style="normal" font-weight="400" stroke="#000000" transform="matrix(1,0,0,1,840.953,737.889)">
    <path d="M126.668,715.784 C234.747,472.334 175.249,187.056 -21.1341,7.10361 C-217.517,-172.849 -506.895,-207.256 -740,-78.3708 L-740,-715.784 L740,-715.784 L740,662.125 L126.668,715.784" fill-rule="evenodd" vector-effect="non-scaling-stroke"/>
   </g>
   <g fill="none" fill-opacity="1" font-family="Noto Sans" font-size="42.3333" font-style="normal" font-weight="400" stroke="#000000" transform="matrix(1,0,0,1,840.953,737.889)">
    <path d="M687.5,-603.284 L687.5,-253.284 C687.5,-220.147 660.637,-193.284 627.5,-193.284 L277.5,-193.284 C244.363,-193.284 217.5,-220.147 217.5,-253.284 L217.5,-603.284 C217.5,-636.422 244.363,-663.284 277.5,-663.284 L627.5,-663.284 C660.637,-663.284 687.5,-636.422 687.5,-603.284 " fill-rule="evenodd" vector-effect="non-scaling-stroke"/>
   </g>
   <g fill="none" fill-opacity="1" font-family="Noto Sans" font-size="42.3333" font-style="normal" font-weight="400" stroke="#000000" transform="matrix(1,0,0,1,840.953,737.889)">
    <path d="M-623,-315.784 C-623,-306.396 -630.611,-298.784 -640,-298.784 C-649.389,-298.784 -657,-306.396 -657,-315.784 C-657,-325.173 -649.389,-332.784 -640,-332.784 C-630.611,-332.784 -623,-325.173 -623,-315.784 " fill-rule="evenodd" vector-effect="non-scaling-stroke"/>
   </g>
   <g fill="none" fill-opacity="1" font-family="Noto Sans" font-size="42.3333" font-style="normal" font-weight="400" stroke="#000000" transform="matrix(1,0,0,1,840.953,737.889)">
    <path d="M-623,-515.784 C-623,-506.396 -630.611,-498.784 -640,-498.784 C-649.389,-498.784 -657,-506.396 -657,-515.784 C-657,-525.173 -649.389,-532.784 -640,-532.784 C-630.611,-532.784 -623,-525.173 -623,-515.784 " fill-rule="evenodd" vector-effect="non-scaling-stroke"/>
   </g>
   <g fill="none" fill-opacity="1" font-family="Noto Sans" font-size="42.3333" font-style="normal" font-weight="400" stroke="#000000" transform="matrix(1,0,0,1,840.953,737.889)">
    <path d="M377,84.2156 C377,93.6044 369.389,101.216 360,101.216 C350.611,101.216 343,93.6044 343,84.2156 C343,74.8267 350.611,67.2156 360,67.2156 C369.389,67.2156 377,74.8267 377,84.2156 " fill-rule="evenodd" vector-effect="non-scaling-stroke"/>
   </g>
   <g fill="none" fill-opacity="1" font-family="Noto Sans" font-size="42.3333" font-style="normal" font-weight="400" stroke="#000000" transform="matrix(1,0,0,1,840.953,737.889)">
    <path d="M-333,-215.784 C-333,-206.396 -340.611,-198.784 -350,-198.784 C-359.389,-198.784 -367,-206.396 -367,-215.784 C-367,-225.173 -359.389,-232.784 -350,-232.784 C-340.611,-232.784 -333,-225.173 -333,-215.784 " fill-rule="evenodd" vector-effect="non-scaling-stroke"/>
   </g>
   <g fill="none" fill-opacity="1" font-family="Noto Sans" font-size="42.3333" font-style="normal" font-weight="400" stroke="#000000" transform="matrix(1,0,0,1,840.953,737.889)">
    <path d="M-623,-215.784 C-623,-206.396 -630.611,-198.784 -640,-198.784 C-649.389,-198.784 -657,-206.396 -657,-215.784 C-657,-225.173 -649.389,-232.784 -640,-232.784 C-630.611,-232.784 -623,-225.173 -623,-215.784 " fill-rule="evenodd" vector-effect="non-scaling-stroke"/>
   </g>
   <g fill="none" fill-opacity="1" font-family="Noto Sans" font-size="42.3333" font-style="normal" font-weight="400" stroke="#000000" transform="matrix(1,0,0,1,840.953,737.889)">
    <path d="M657,484.216 C657,493.604 649.389,501.216 640,501.216 C630.611,501.216 623,493.604 623,484.216 C623,474.827 630.611,467.216 640,467.216 C649.389,467.216 657,474.827 657,484.216 " fill-rule="evenodd" vector-effect="non-scaling-stroke"/>
   </g>
   <g fill="none" fill-opacity="1" font-family="Noto Sans" font-size="42.3333" font-style="normal" font-weight="400" stroke="#000000" transform="matrix(1,0,0,1,840.953,737.889)">
    <path d="M-623,-615.784 C-623,-606.396 -630.611,-598.784 -640,-598.784 C-649.389,-598.784 -657,-606.396 -657,-615.784 C-657,-625.173 -649.389,-632.784 -640,-632.784 C-630.611,-632.784 -623,-625.173 -623,-615.784 " fill-rule="evenodd" vector-effect="non-scaling-stroke"/>
   </g>
   <g fill="none" fill-opacity="1" font-family="Noto Sans" font-size="42.3333" font-style="normal" font-weight="400" stroke="#000000" transform="matrix(1,0,0,1,840.953,737.889)">
    <path d="M657,584.216 C657,593.604 649.389,601.216 640,601.216 C630.611,601.216 623,593.604 623,584.216 C623,574.827 630.611,567.216 640,567.216 C649.389,567.216 657,574.827 657,584.216 " fill-rule="evenodd" vector-effect="non-scaling-stroke"/>
   </g>
   <g fill="none" fill-opacity="1" font-family="Noto Sans" font-size="42.3333" font-style="normal" font-weight="400" stroke="#000000" transform="matrix(1,0,0,1,758.5,1366.76)">
    <path d="M-126.668,-715.784 C-234.747,-472.334 -175.249,-187.056 21.1341,-7.10361 C217.517,172.849 506.895,207.256 740,78.3708 L740,715.784 L-740,715.784 L-740,-662.125 L-126.668,-715.784" fill-rule="evenodd" vector-effect="non-scaling-stroke"/>
   </g>
   <g fill="none" fill-opacity="1" font-family="Noto Sans" font-size="42.3333" font-style="normal" font-weight="400" stroke="#000000" transform="matrix(1,0,0,1,758.5,1366.76)">
    <path d="M-687.5,603.284 L-687.5,253.284 C-687.5,220.147 -660.637,193.284 -627.5,193.284 L-277.5,193.284 C-244.363,193.284 -217.5,220.147 -217.5,253.284 L-217.5,603.284 C-217.5,636.422 -244.363,663.284 -277.5,663.284 L-627.5,663.284 C-660.637,663.284 -687.5,636.422 -687.5,603.284 " fill-rule="evenodd" vector-effect="non-scaling-stroke"/>
   </g>
   <g fill="none" fill-opacity="1" font-family="Noto Sans" font-size="42.3333" font-style="normal" font-weight="400" stroke="#000000" transform="matrix(1,0,0,1,758.5,1366.76)">
    <path d="M-623,-484.216 C-623,-474.827 -630.611,-467.216 -640,-467.216 C-649.389,-467.216 -657,-474.827 -657,-484.216 C-657,-493.604 -649.389,-501.216 -640,-501.216 C-630.611,-501.216 -623,-493.604 -623,-484.216 " fill-rule="evenodd" vector-effect="non-scaling-stroke"/>
   </g>
   <g fill="none" fill-opacity="1" font-family="Noto Sans" font-size="42.3333" font-style="normal" font-weight="400" stroke="#000000" transform="matrix(1,0,0,1,758.5,1366.76)">
    <path d="M367,215.784 C367,225.173 359.389,232.784 350,232.784 C340.611,232.784 333,225.173 333,215.784 C333,206.396 340.611,198.784 350,198.784 C359.389,198.784 367,206.396 367,215.784 " fill-rule="evenodd" vector-effect="non-scaling-stroke"/>
   </g>
   <g fill="none" fill-opacity="1" font-family="Noto Sans" font-size="42.3333" font-style="normal" font-weight="400" stroke="#000000" transform="matrix(1,0,0,1,758.5,1366.76)">
    <path d="M-343,-84.2156 C-343,-74.8267 -350.611,-67.2156 -360,-67.2156 C-369.389,-67.2156 -377,-74.8267 -377,-84.2156 C-377,-93.6044 -369.389,-101.216 -360,-101.216 C-350.611,-101.216 -343,-93.6044 -343,-84.2156 " fill-rule="evenodd" vector-effect="non-scaling-stroke"/>
   </g>
   <g fill="none" fill-opacity="1" font-family="Noto Sans" font-size="42.3333" font-style="normal" font-weight="400" stroke="#000000" transform="matrix(1,0,0,1,758.5,1366.76)">
    <path d="M657,515.784 C657,525.173 649.389,532.784 640,532.784 C630.611,532.784 623,525.173 623,515.784 C623,506.396 630.611,498.784 640,498.784 C649.389,498.784 657,506.396 657,515.784 " fill-rule="evenodd" vector-effect="non-scaling-stroke"/>
   </g>
   <g fill="none" fill-opacity="1" font-family="Noto Sans" font-size="42.3333" font-style="normal" font-weight="400" stroke="#000000" transform="matrix(1,0,0,1,758.5,1366.76)">
    <path d="M657,615.784 C657,625.173 649.389,632.784 640,632.784 C630.611,632.784 623,625.173 623,615.784 C623,606.396 630.611,598.784 640,598.784 C649.389,598.784 657,606.396 657,615.784 " fill-rule="evenodd" vector-effect="non-scaling-stroke"/>
   </g>
   <g fill="none" fill-opacity="1" font-family="Noto Sans" font-size="42.3333" font-style="normal" font-weight="400" stroke="#000000" transform="matrix(1,0,0,1,758.5,1366.76)">
    <path d="M657,315.784 C657,325.173 649.389,332.784 640,332.784 C630.611,332.784 623,325.173 623,315.784 C623,306.396 630.611,298.784 640,298.784 C649.389,298.784 657,306.396 657,315.784 " fill-rule="evenodd" vector-effect="non-scaling-stroke"/>
   </g>
   <g fill="none" fill-opacity="1" font-family="Noto Sans" font-size="42.3333" font-style="normal" font-weight="400" stroke="#000000" transform="matrix(1,0,0,1,758.5,1366.76)">
    <path d="M657,215.784 C657,225.173 649.389,232.784 640,232.784 C630.611,232.784 623,225.173 623,215.784 C623,206.396 630.611,198.784 640,198.784 C649.389,198.784 657,206.396 657,215.784 " fill-rule="evenodd" vector-effect="non-scaling-stroke"/>
   </g>
   <g fill="none" fill-opacity="1" font-family="Noto Sans" font-size="42.3333" font-style="normal" font-weight="400" stroke="#000000" transform="matrix(1,0,0,1,758.5,1366.76)">
    <path d="M-623,-584.216 C-623,-574.827 -630.611,-567.216 -640,-567.216 C-649.389,-567.216 -657,-574.827 -657,-584.216 C-657,-593.604 -649.389,-601.216 -640,-601.216 C-630.611,-601.216 -623,-593.604 -623,-584.216 " fill-rule="evenodd" vector-effect="non-scaling-stroke"/>
   </g>
   </g>
 </g>
</svg>