<?xml version='1.0' encoding='UTF-8' standalone='no'?>
<svg baseProfile="tiny" height="300mm" version="1.2" viewBox="0 0 4200 3000" width="420mm" xmlns="http://www.w3.org/2000/svg" xmlns:cc="http://creativecommons.org/ns#" xmlns:dc="http://purl.org/dc/elements/1.1/" xmlns:freecad="https://www.freecad.org/wiki/index.php?title=Svg_Namespace" xmlns:inkscape="http://www.inkscape.org/namespaces/inkscape" xmlns:rdf="http://www.w3.org/1999/02/22-rdf-syntax-ns#" xmlns:sodipodi="http://sodipodi.sourceforge.net/DTD/sodipodi-0.dtd" xmlns:svg="http://www.w3.org/2000/svg" xmlns:xlink="http://www.w3.org/1999/xlink">
 <title>FreeCAD SVG Export</title>
 <desc>Drawing page: Page001 exported from FreeCAD document: marble_pump_pipe_export</desc>
 <defs/>
 <g id="Page001" inkscape:groupmode="layer" inkscape:label="TechDraw">
  <g id="TD_CAM_300x3001.svg" style="stroke: none;" transform="scale(10.000000, 10.000000)">
   <sodipodi:namedview bordercolor="#666666" borderopacity="1" gridtolerance="10" guidetolerance="10" id="namedview221" inkscape:current-layer="svg2" inkscape:cx="553.15027" inkscape:cy="576.16869" inkscape:deskcolor="#505050" inkscape:document-units="mm" inkscape:pagecheckerboard="true" inkscape:pageopacity="0" inkscape:pageshadow="2" inkscape:showpageshadow="false" inkscape:window-height="1659" inkscape:window-maximized="1" inkscape:window-width="3072" inkscape:window-x="0" inkscape:window-y="0" inkscape:zoom="1.4119129" objecttolerance="10" pagecolor="#ffffff" showgrid="false">
    <inkscape:grid empspacing="10" id="grid811" originx="0" originy="0" spacingx="1" spacingy="1" type="xygrid" units="mm"/>
   </sodipodi:namedview>
   <!-- Working space 10 10 410 287 -->
   <!-- Title block 220 227 410 287 -->
   <metadata id="metadata849">
    <rdf:RDF>
     <cc:Work rdf:about="">
      <dc:format>image/svg+xml</dc:format>
      <dc:type rdf:resource="http://purl.org/dc/dcmitype/StillImage"/>
      <dc:date>25.04.2026</dc:date>
      <dc:creator>
       <cc:Agent>
        <dc:title>Stefan Krüger</dc:title>
       </cc:Agent>
      </dc:creator>
      <dc:rights>
       <cc:Agent>
        <dc:title>Stefan Krüger</dc:title>
       </cc:Agent>
      </dc:rights>
      <dc:publisher>
       <cc:Agent>
        <dc:title>Stefan Krüger</dc:title>
       </cc:Agent>
      </dc:publisher>
      <dc:language>EN / DE</dc:language>
      <cc:license rdf:resource="http://creativecommons.org/publicdomain/zero/1.0/"/>
     </cc:Work>
     <cc:License rdf:about="http://creativecommons.org/publicdomain/zero/1.0/">
      <cc:permits rdf:resource="http://creativecommons.org/ns#Reproduction"/>
      <cc:permits rdf:resource="http://creativecommons.org/ns#Distribution"/>
      <cc:permits rdf:resource="http://creativecommons.org/ns#DerivativeWorks"/>
     </cc:License>
    </rdf:RDF>
   </metadata>
   <defs id="defs847"/>
   <!-- DrawingContent -->
  </g>
  <g fill="none" fill-rule="evenodd" id="DrawingContent" stroke="black" stroke-linecap="square" stroke-linejoin="bevel" stroke-width="1">
   <g fill="#f1f3f5" fill-opacity="1" font-family="Noto Sans" font-size="42.3333" font-style="normal" font-weight="400" stroke="none" transform="matrix(1,0,0,1,1570.56,111.76)">
    <path d="M1434,100 L1554,100 L1554,-100 L-1554,-100 L-1554,100 L-1434,100 L-1434,-1.08469e-13 L-1400,-8.88178e-14 L-1400,100 L1400,100 L1400,2.11275e-13 L1434,2.13163e-13 L1434,100" fill-rule="evenodd" vector-effect="non-scaling-stroke"/>
   </g>
   <g fill="none" font-family="Noto Sans" font-size="42.3333" font-style="normal" font-weight="400" stroke="#000000" stroke-linecap="round" stroke-linejoin="bevel" stroke-opacity="1" stroke-width="7" transform="matrix(1,0,0,1,1570.56,111.76)">
    <path d="M1434,100 L1554,100" fill-rule="evenodd" vector-effect="none"/>
   </g>
   <g fill="none" font-family="Noto Sans" font-size="42.3333" font-style="normal" font-weight="400" stroke="#000000" stroke-linecap="round" stroke-linejoin="bevel" stroke-opacity="1" stroke-width="7" transform="matrix(1,0,0,1,1570.56,111.76)">
    <path d="M1554,100 L1554,-100" fill-rule="evenodd" vector-effect="none"/>
   </g>
   <g fill="none" font-family="Noto Sans" font-size="42.3333" font-style="normal" font-weight="400" stroke="#000000" stroke-linecap="round" stroke-linejoin="bevel" stroke-opacity="1" stroke-width="7" transform="matrix(1,0,0,1,1570.56,111.76)">
    <path d="M1554,-100 L-1554,-100" fill-rule="evenodd" vector-effect="none"/>
   </g>
   <g fill="none" font-family="Noto Sans" font-size="42.3333" font-style="normal" font-weight="400" stroke="#000000" stroke-linecap="round" stroke-linejoin="bevel" stroke-opacity="1" stroke-width="7" transform="matrix(1,0,0,1,1570.56,111.76)">
    <path d="M-1554,-100 L-1554,100" fill-rule="evenodd" vector-effect="none"/>
   </g>
   <g fill="none" font-family="Noto Sans" font-size="42.3333" font-style="normal" font-weight="400" stroke="#000000" stroke-linecap="round" stroke-linejoin="bevel" stroke-opacity="1" stroke-width="7" transform="matrix(1,0,0,1,1570.56,111.76)">
    <path d="M-1554,100 L-1434,100" fill-rule="evenodd" vector-effect="none"/>
   </g>
   <g fill="none" font-family="Noto Sans" font-size="42.3333" font-style="normal" font-weight="400" stroke="#000000" stroke-linecap="round" stroke-linejoin="bevel" stroke-opacity="1" stroke-width="7" transform="matrix(1,0,0,1,1570.56,111.76)">
    <path d="M-1434,-1.06581e-13 L-1434,100" fill-rule="evenodd" vector-effect="none"/>
   </g>
   <g fill="none" font-family="Noto Sans" font-size="42.3333" font-style="normal" font-weight="400" stroke="#000000" stroke-linecap="round" stroke-linejoin="bevel" stroke-opacity="1" stroke-width="7" transform="matrix(1,0,0,1,1570.56,111.76)">
    <path d="M-1400,-1.06581e-13 L-1434,-1.10356e-13" fill-rule="evenodd" vector-effect="none"/>
   </g>
   <g fill="none" font-family="Noto Sans" font-size="42.3333" font-style="normal" font-weight="400" stroke="#000000" stroke-linecap="round" stroke-linejoin="bevel" stroke-opacity="1" stroke-width="7" transform="matrix(1,0,0,1,1570.56,111.76)">
    <path d="M-1400,100 L-1400,-7.10543e-14" fill-rule="evenodd" vector-effect="none"/>
   </g>
   <g fill="none" font-family="Noto Sans" font-size="42.3333" font-style="normal" font-weight="400" stroke="#000000" stroke-linecap="round" stroke-linejoin="bevel" stroke-opacity="1" stroke-width="7" transform="matrix(1,0,0,1,1570.56,111.76)">
    <path d="M-1400,100 L1400,100" fill-rule="evenodd" vector-effect="none"/>
   </g>
   <g fill="none" font-family="Noto Sans" font-size="42.3333" font-style="normal" font-weight="400" stroke="#000000" stroke-linecap="round" stroke-linejoin="bevel" stroke-opacity="1" stroke-width="7" transform="matrix(1,0,0,1,1570.56,111.76)">
    <path d="M1400,2.13163e-13 L1400,100" fill-rule="evenodd" vector-effect="none"/>
   </g>
   <g fill="none" font-family="Noto Sans" font-size="42.3333" font-style="normal" font-weight="400" stroke="#000000" stroke-linecap="round" stroke-linejoin="bevel" stroke-opacity="1" stroke-width="7" transform="matrix(1,0,0,1,1570.56,111.76)">
    <path d="M1434,2.13163e-13 L1400,2.09388e-13" fill-rule="evenodd" vector-effect="none"/>
   </g>
   <g fill="none" font-family="Noto Sans" font-size="42.3333" font-style="normal" font-weight="400" stroke="#000000" stroke-linecap="round" stroke-linejoin="bevel" stroke-opacity="1" stroke-width="7" transform="matrix(1,0,0,1,1570.56,111.76)">
    <path d="M1434,100 L1434,2.13163e-13" fill-rule="evenodd" vector-effect="none"/>
   </g>
   <g fill="#f1f3f5" fill-opacity="1" font-family="Noto Sans" font-size="42.3333" font-style="normal" font-weight="400" stroke="none" transform="matrix(1,0,0,1,1570.56,326.499)">
    <path d="M1434,100 L1554,100 L1554,-100 L-1554,-100 L-1554,100 L-1434,100 L-1434,-1.08469e-13 L-1400,-8.88178e-14 L-1400,100 L1400,100 L1400,2.11275e-13 L1434,2.13163e-13 L1434,100" fill-rule="evenodd" vector-effect="non-scaling-stroke"/>
   </g>
   <g fill="none" font-family="Noto Sans" font-size="42.3333" font-style="normal" font-weight="400" stroke="#000000" stroke-linecap="round" stroke-linejoin="bevel" stroke-opacity="1" stroke-width="7" transform="matrix(1,0,0,1,1570.56,326.499)">
    <path d="M1434,100 L1554,100" fill-rule="evenodd" vector-effect="none"/>
   </g>
   <g fill="none" font-family="Noto Sans" font-size="42.3333" font-style="normal" font-weight="400" stroke="#000000" stroke-linecap="round" stroke-linejoin="bevel" stroke-opacity="1" stroke-width="7" transform="matrix(1,0,0,1,1570.56,326.499)">
    <path d="M1554,100 L1554,-100" fill-rule="evenodd" vector-effect="none"/>
   </g>
   <g fill="none" font-family="Noto Sans" font-size="42.3333" font-style="normal" font-weight="400" stroke="#000000" stroke-linecap="round" stroke-linejoin="bevel" stroke-opacity="1" stroke-width="7" transform="matrix(1,0,0,1,1570.56,326.499)">
    <path d="M1554,-100 L-1554,-100" fill-rule="evenodd" vector-effect="none"/>
   </g>
   <g fill="none" font-family="Noto Sans" font-size="42.3333" font-style="normal" font-weight="400" stroke="#000000" stroke-linecap="round" stroke-linejoin="bevel" stroke-opacity="1" stroke-width="7" transform="matrix(1,0,0,1,1570.56,326.499)">
    <path d="M-1554,-100 L-1554,100" fill-rule="evenodd" vector-effect="none"/>
   </g>
   <g fill="none" font-family="Noto Sans" font-size="42.3333" font-style="normal" font-weight="400" stroke="#000000" stroke-linecap="round" stroke-linejoin="bevel" stroke-opacity="1" stroke-width="7" transform="matrix(1,0,0,1,1570.56,326.499)">
    <path d="M-1554,100 L-1434,100" fill-rule="evenodd" vector-effect="none"/>
   </g>
   <g fill="none" font-family="Noto Sans" font-size="42.3333" font-style="normal" font-weight="400" stroke="#000000" stroke-linecap="round" stroke-linejoin="bevel" stroke-opacity="1" stroke-width="7" transform="matrix(1,0,0,1,1570.56,326.499)">
    <path d="M-1434,-1.06581e-13 L-1434,100" fill-rule="evenodd" vector-effect="none"/>
   </g>
   <g fill="none" font-family="Noto Sans" font-size="42.3333" font-style="normal" font-weight="400" stroke="#000000" stroke-linecap="round" stroke-linejoin="bevel" stroke-opacity="1" stroke-width="7" transform="matrix(1,0,0,1,1570.56,326.499)">
    <path d="M-1400,-1.06581e-13 L-1434,-1.10356e-13" fill-rule="evenodd" vector-effect="none"/>
   </g>
   <g fill="none" font-family="Noto Sans" font-size="42.3333" font-style="normal" font-weight="400" stroke="#000000" stroke-linecap="round" stroke-linejoin="bevel" stroke-opacity="1" stroke-width="7" transform="matrix(1,0,0,1,1570.56,326.499)">
    <path d="M-1400,100 L-1400,-7.10543e-14" fill-rule="evenodd" vector-effect="none"/>
   </g>
   <g fill="none" font-family="Noto Sans" font-size="42.3333" font-style="normal" font-weight="400" stroke="#000000" stroke-linecap="round" stroke-linejoin="bevel" stroke-opacity="1" stroke-width="7" transform="matrix(1,0,0,1,1570.56,326.499)">
    <path d="M-1400,100 L1400,100" fill-rule="evenodd" vector-effect="none"/>
   </g>
   <g fill="none" font-family="Noto Sans" font-size="42.3333" font-style="normal" font-weight="400" stroke="#000000" stroke-linecap="round" stroke-linejoin="bevel" stroke-opacity="1" stroke-width="7" transform="matrix(1,0,0,1,1570.56,326.499)">
    <path d="M1400,2.13163e-13 L1400,100" fill-rule="evenodd" vector-effect="none"/>
   </g>
   <g fill="none" font-family="Noto Sans" font-size="42.3333" font-style="normal" font-weight="400" stroke="#000000" stroke-linecap="round" stroke-linejoin="bevel" stroke-opacity="1" stroke-width="7" transform="matrix(1,0,0,1,1570.56,326.499)">
    <path d="M1434,2.13163e-13 L1400,2.09388e-13" fill-rule="evenodd" vector-effect="none"/>
   </g>
   <g fill="none" font-family="Noto Sans" font-size="42.3333" font-style="normal" font-weight="400" stroke="#000000" stroke-linecap="round" stroke-linejoin="bevel" stroke-opacity="1" stroke-width="7" transform="matrix(1,0,0,1,1570.56,326.499)">
    <path d="M1434,100 L1434,2.13163e-13" fill-rule="evenodd" vector-effect="none"/>
   </g>
   <g fill="#f1f3f5" fill-opacity="1" font-family="Noto Sans" font-size="42.3333" font-style="normal" font-weight="400" stroke="none" transform="matrix(1,0,0,1,1570.56,539.943)">
    <path d="M1434,100 L1554,100 L1554,-100 L-1554,-100 L-1554,100 L-1434,100 L-1434,-1.08469e-13 L-1400,-8.88178e-14 L-1400,100 L1400,100 L1400,2.11275e-13 L1434,2.13163e-13 L1434,100" fill-rule="evenodd" vector-effect="non-scaling-stroke"/>
   </g>
   <g fill="none" font-family="Noto Sans" font-size="42.3333" font-style="normal" font-weight="400" stroke="#000000" stroke-linecap="round" stroke-linejoin="bevel" stroke-opacity="1" stroke-width="7" transform="matrix(1,0,0,1,1570.56,539.943)">
    <path d="M1434,100 L1554,100" fill-rule="evenodd" vector-effect="none"/>
   </g>
   <g fill="none" font-family="Noto Sans" font-size="42.3333" font-style="normal" font-weight="400" stroke="#000000" stroke-linecap="round" stroke-linejoin="bevel" stroke-opacity="1" stroke-width="7" transform="matrix(1,0,0,1,1570.56,539.943)">
    <path d="M1554,100 L1554,-100" fill-rule="evenodd" vector-effect="none"/>
   </g>
   <g fill="none" font-family="Noto Sans" font-size="42.3333" font-style="normal" font-weight="400" stroke="#000000" stroke-linecap="round" stroke-linejoin="bevel" stroke-opacity="1" stroke-width="7" transform="matrix(1,0,0,1,1570.56,539.943)">
    <path d="M1554,-100 L-1554,-100" fill-rule="evenodd" vector-effect="none"/>
   </g>
   <g fill="none" font-family="Noto Sans" font-size="42.3333" font-style="normal" font-weight="400" stroke="#000000" stroke-linecap="round" stroke-linejoin="bevel" stroke-opacity="1" stroke-width="7" transform="matrix(1,0,0,1,1570.56,539.943)">
    <path d="M-1554,-100 L-1554,100" fill-rule="evenodd" vector-effect="none"/>
   </g>
   <g fill="none" font-family="Noto Sans" font-size="42.3333" font-style="normal" font-weight="400" stroke="#000000" stroke-linecap="round" stroke-linejoin="bevel" stroke-opacity="1" stroke-width="7" transform="matrix(1,0,0,1,1570.56,539.943)">
    <path d="M-1554,100 L-1434,100" fill-rule="evenodd" vector-effect="none"/>
   </g>
   <g fill="none" font-family="Noto Sans" font-size="42.3333" font-style="normal" font-weight="400" stroke="#000000" stroke-linecap="round" stroke-linejoin="bevel" stroke-opacity="1" stroke-width="7" transform="matrix(1,0,0,1,1570.56,539.943)">
    <path d="M-1434,-1.06581e-13 L-1434,100" fill-rule="evenodd" vector-effect="none"/>
   </g>
   <g fill="none" font-family="Noto Sans" font-size="42.3333" font-style="normal" font-weight="400" stroke="#000000" stroke-linecap="round" stroke-linejoin="bevel" stroke-opacity="1" stroke-width="7" transform="matrix(1,0,0,1,1570.56,539.943)">
    <path d="M-1400,-1.06581e-13 L-1434,-1.10356e-13" fill-rule="evenodd" vector-effect="none"/>
   </g>
   <g fill="none" font-family="Noto Sans" font-size="42.3333" font-style="normal" font-weight="400" stroke="#000000" stroke-linecap="round" stroke-linejoin="bevel" stroke-opacity="1" stroke-width="7" transform="matrix(1,0,0,1,1570.56,539.943)">
    <path d="M-1400,100 L-1400,-7.10543e-14" fill-rule="evenodd" vector-effect="none"/>
   </g>
   <g fill="none" font-family="Noto Sans" font-size="42.3333" font-style="normal" font-weight="400" stroke="#000000" stroke-linecap="round" stroke-linejoin="bevel" stroke-opacity="1" stroke-width="7" transform="matrix(1,0,0,1,1570.56,539.943)">
    <path d="M-1400,100 L1400,100" fill-rule="evenodd" vector-effect="none"/>
   </g>
   <g fill="none" font-family="Noto Sans" font-size="42.3333" font-style="normal" font-weight="400" stroke="#000000" stroke-linecap="round" stroke-linejoin="bevel" stroke-opacity="1" stroke-width="7" transform="matrix(1,0,0,1,1570.56,539.943)">
    <path d="M1400,2.13163e-13 L1400,100" fill-rule="evenodd" vector-effect="none"/>
   </g>
   <g fill="none" font-family="Noto Sans" font-size="42.3333" font-style="normal" font-weight="400" stroke="#000000" stroke-linecap="round" stroke-linejoin="bevel" stroke-opacity="1" stroke-width="7" transform="matrix(1,0,0,1,1570.56,539.943)">
    <path d="M1434,2.13163e-13 L1400,2.09388e-13" fill-rule="evenodd" vector-effect="none"/>
   </g>
   <g fill="none" font-family="Noto Sans" font-size="42.3333" font-style="normal" font-weight="400" stroke="#000000" stroke-linecap="round" stroke-linejoin="bevel" stroke-opacity="1" stroke-width="7" transform="matrix(1,0,0,1,1570.56,539.943)">
    <path d="M1434,100 L1434,2.13163e-13" fill-rule="evenodd" vector-effect="none"/>
   </g>
   <g fill="#f1f3f5" fill-opacity="1" font-family="Noto Sans" font-size="42.3333" font-style="normal" font-weight="400" stroke="none" transform="matrix(1,0,0,1,1570.56,751.226)">
    <path d="M1434,100 L1554,100 L1554,-100 L-1554,-100 L-1554,100 L-1434,100 L-1434,-1.08469e-13 L-1400,-8.88178e-14 L-1400,100 L1400,100 L1400,2.11275e-13 L1434,2.13163e-13 L1434,100" fill-rule="evenodd" vector-effect="non-scaling-stroke"/>
   </g>
   <g fill="none" font-family="Noto Sans" font-size="42.3333" font-style="normal" font-weight="400" stroke="#000000" stroke-linecap="round" stroke-linejoin="bevel" stroke-opacity="1" stroke-width="7" transform="matrix(1,0,0,1,1570.56,751.226)">
    <path d="M1434,100 L1554,100" fill-rule="evenodd" vector-effect="none"/>
   </g>
   <g fill="none" font-family="Noto Sans" font-size="42.3333" font-style="normal" font-weight="400" stroke="#000000" stroke-linecap="round" stroke-linejoin="bevel" stroke-opacity="1" stroke-width="7" transform="matrix(1,0,0,1,1570.56,751.226)">
    <path d="M1554,100 L1554,-100" fill-rule="evenodd" vector-effect="none"/>
   </g>
   <g fill="none" font-family="Noto Sans" font-size="42.3333" font-style="normal" font-weight="400" stroke="#000000" stroke-linecap="round" stroke-linejoin="bevel" stroke-opacity="1" stroke-width="7" transform="matrix(1,0,0,1,1570.56,751.226)">
    <path d="M1554,-100 L-1554,-100" fill-rule="evenodd" vector-effect="none"/>
   </g>
   <g fill="none" font-family="Noto Sans" font-size="42.3333" font-style="normal" font-weight="400" stroke="#000000" stroke-linecap="round" stroke-linejoin="bevel" stroke-opacity="1" stroke-width="7" transform="matrix(1,0,0,1,1570.56,751.226)">
    <path d="M-1554,-100 L-1554,100" fill-rule="evenodd" vector-effect="none"/>
   </g>
   <g fill="none" font-family="Noto Sans" font-size="42.3333" font-style="normal" font-weight="400" stroke="#000000" stroke-linecap="round" stroke-linejoin="bevel" stroke-opacity="1" stroke-width="7" transform="matrix(1,0,0,1,1570.56,751.226)">
    <path d="M-1554,100 L-1434,100" fill-rule="evenodd" vector-effect="none"/>
   </g>
   <g fill="none" font-family="Noto Sans" font-size="42.3333" font-style="normal" font-weight="400" stroke="#000000" stroke-linecap="round" stroke-linejoin="bevel" stroke-opacity="1" stroke-width="7" transform="matrix(1,0,0,1,1570.56,751.226)">
    <path d="M-1434,-1.06581e-13 L-1434,100" fill-rule="evenodd" vector-effect="none"/>
   </g>
   <g fill="none" font-family="Noto Sans" font-size="42.3333" font-style="normal" font-weight="400" stroke="#000000" stroke-linecap="round" stroke-linejoin="bevel" stroke-opacity="1" stroke-width="7" transform="matrix(1,0,0,1,1570.56,751.226)">
    <path d="M-1400,-1.06581e-13 L-1434,-1.10356e-13" fill-rule="evenodd" vector-effect="none"/>
   </g>
   <g fill="none" font-family="Noto Sans" font-size="42.3333" font-style="normal" font-weight="400" stroke="#000000" stroke-linecap="round" stroke-linejoin="bevel" stroke-opacity="1" stroke-width="7" transform="matrix(1,0,0,1,1570.56,751.226)">
    <path d="M-1400,100 L-1400,-7.10543e-14" fill-rule="evenodd" vector-effect="none"/>
   </g>
   <g fill="none" font-family="Noto Sans" font-size="42.3333" font-style="normal" font-weight="400" stroke="#000000" stroke-linecap="round" stroke-linejoin="bevel" stroke-opacity="1" stroke-width="7" transform="matrix(1,0,0,1,1570.56,751.226)">
    <path d="M-1400,100 L1400,100" fill-rule="evenodd" vector-effect="none"/>
   </g>
   <g fill="none" font-family="Noto Sans" font-size="42.3333" font-style="normal" font-weight="400" stroke="#000000" stroke-linecap="round" stroke-linejoin="bevel" stroke-opacity="1" stroke-width="7" transform="matrix(1,0,0,1,1570.56,751.226)">
    <path d="M1400,2.13163e-13 L1400,100" fill-rule="evenodd" vector-effect="none"/>
   </g>
   <g fill="none" font-family="Noto Sans" font-size="42.3333" font-style="normal" font-weight="400" stroke="#000000" stroke-linecap="round" stroke-linejoin="bevel" stroke-opacity="1" stroke-width="7" transform="matrix(1,0,0,1,1570.56,751.226)">
    <path d="M1434,2.13163e-13 L1400,2.09388e-13" fill-rule="evenodd" vector-effect="none"/>
   </g>
   <g fill="none" font-family="Noto Sans" font-size="42.3333" font-style="normal" font-weight="400" stroke="#000000" stroke-linecap="round" stroke-linejoin="bevel" stroke-opacity="1" stroke-width="7" transform="matrix(1,0,0,1,1570.56,751.226)">
    <path d="M1434,100 L1434,2.13163e-13" fill-rule="evenodd" vector-effect="none"/>
   </g>
  </g>
 </g>
</svg>
